%TF.GenerationSoftware,KiCad,Pcbnew,(6.99.0-222-g367431f825)*%
%TF.CreationDate,2022-01-16T00:47:27+01:00*%
%TF.ProjectId,Adalyn,4164616c-796e-42e6-9b69-6361645f7063,rev?*%
%TF.SameCoordinates,Original*%
%TF.FileFunction,Legend,Bot*%
%TF.FilePolarity,Positive*%
%FSLAX46Y46*%
G04 Gerber Fmt 4.6, Leading zero omitted, Abs format (unit mm)*
G04 Created by KiCad (PCBNEW (6.99.0-222-g367431f825)) date 2022-01-16 00:47:27*
%MOMM*%
%LPD*%
G01*
G04 APERTURE LIST*
%ADD10C,0.120000*%
%ADD11C,0.150000*%
G04 APERTURE END LIST*
D10*
%TO.C,SW1*%
X142894099Y-73330796D02*
X142894099Y-71330796D01*
X143944099Y-70030796D02*
X144394099Y-69580796D01*
X143944099Y-74630796D02*
X144394099Y-75080796D01*
X144394099Y-69580796D02*
X146894099Y-69580796D01*
X144394099Y-75080796D02*
X146894099Y-75080796D01*
X147344099Y-70030796D02*
X146894099Y-69580796D01*
X147344099Y-74630796D02*
X146894099Y-75080796D01*
X148394099Y-73330796D02*
X148394099Y-71330796D01*
%TO.C,D101*%
X59022951Y-59303293D02*
X59226144Y-57857502D01*
X59022951Y-59303293D02*
X58102002Y-59173862D01*
X55893704Y-58863506D02*
X56194318Y-56724527D01*
X55893704Y-58863506D02*
X56814653Y-58992937D01*
%TO.C,D102*%
X95392951Y-64443293D02*
X95596144Y-62997502D01*
X95392951Y-64443293D02*
X94472002Y-64313862D01*
X92263704Y-64003506D02*
X92564318Y-61864527D01*
X92263704Y-64003506D02*
X93184653Y-64132937D01*
%TO.C,D103*%
X133112951Y-69753293D02*
X133316144Y-68307502D01*
X133112951Y-69753293D02*
X132192002Y-69623862D01*
X129983704Y-69313506D02*
X130284318Y-67174527D01*
X129983704Y-69313506D02*
X130904653Y-69442937D01*
%TO.C,D104*%
X189434494Y-65333506D02*
X189231301Y-63887715D01*
X189434494Y-65333506D02*
X188513545Y-65462937D01*
X186305247Y-65773293D02*
X186004633Y-63634314D01*
X186305247Y-65773293D02*
X187226196Y-65643862D01*
%TO.C,D105*%
X227164494Y-60033506D02*
X226961301Y-58587715D01*
X227164494Y-60033506D02*
X226243545Y-60162937D01*
X224035247Y-60473293D02*
X223734633Y-58334314D01*
X224035247Y-60473293D02*
X224956196Y-60343862D01*
%TO.C,D106*%
X55415247Y-61948299D02*
X55212054Y-63394090D01*
X55415247Y-61948299D02*
X56336196Y-62077730D01*
X58544494Y-62388086D02*
X58243880Y-64527065D01*
X58544494Y-62388086D02*
X57623545Y-62258655D01*
%TO.C,D107*%
X97765247Y-68998299D02*
X97562054Y-70444090D01*
X97765247Y-68998299D02*
X98686196Y-69127730D01*
X100894494Y-69438086D02*
X100593880Y-71577065D01*
X100894494Y-69438086D02*
X99973545Y-69308655D01*
%TO.C,D109*%
X191612877Y-69258354D02*
X191816070Y-70704145D01*
X191612877Y-69258354D02*
X192533826Y-69128923D01*
X194742124Y-68818567D02*
X195042738Y-70957546D01*
X194742124Y-68818567D02*
X193821175Y-68947998D01*
%TO.C,D110*%
X229323704Y-63968086D02*
X229526897Y-65413877D01*
X229323704Y-63968086D02*
X230244653Y-63838655D01*
X232452951Y-63528299D02*
X232753565Y-65667278D01*
X232452951Y-63528299D02*
X231532002Y-63657730D01*
%TO.C,D111*%
X140014099Y-107190796D02*
X140014099Y-105730796D01*
X140014099Y-107190796D02*
X139084099Y-107190796D01*
X136854099Y-107190796D02*
X136854099Y-105030796D01*
X136854099Y-107190796D02*
X137784099Y-107190796D01*
%TO.C,D112*%
X143614099Y-107200796D02*
X143614099Y-105740796D01*
X143614099Y-107200796D02*
X142684099Y-107200796D01*
X140454099Y-107200796D02*
X140454099Y-105040796D01*
X140454099Y-107200796D02*
X141384099Y-107200796D01*
%TO.C,D113*%
X150850000Y-107190000D02*
X150850000Y-105730000D01*
X150850000Y-107190000D02*
X149920000Y-107190000D01*
X147690000Y-107190000D02*
X147690000Y-105030000D01*
X147690000Y-107190000D02*
X148620000Y-107190000D01*
%TO.C,D114*%
X154480000Y-107200000D02*
X154480000Y-105740000D01*
X154480000Y-107200000D02*
X153550000Y-107200000D01*
X151320000Y-107200000D02*
X151320000Y-105040000D01*
X151320000Y-107200000D02*
X152250000Y-107200000D01*
%TO.C,D115*%
X142790000Y-108710000D02*
X141330000Y-108710000D01*
X142790000Y-108710000D02*
X142790000Y-109640000D01*
X142790000Y-111870000D02*
X140630000Y-111870000D01*
X142790000Y-111870000D02*
X142790000Y-110940000D01*
%TO.C,D116*%
X144050000Y-112630000D02*
X144050000Y-114090000D01*
X144050000Y-112630000D02*
X144980000Y-112630000D01*
X147210000Y-112630000D02*
X147210000Y-114790000D01*
X147210000Y-112630000D02*
X146280000Y-112630000D01*
%TO.C,D117*%
X148510000Y-111870000D02*
X149970000Y-111870000D01*
X148510000Y-111870000D02*
X148510000Y-110940000D01*
X148510000Y-108710000D02*
X150670000Y-108710000D01*
X148510000Y-108710000D02*
X148510000Y-109640000D01*
%TO.C,D118*%
X147224099Y-106190796D02*
X147224099Y-104730796D01*
X147224099Y-106190796D02*
X146294099Y-106190796D01*
X144064099Y-106190796D02*
X144064099Y-104030796D01*
X144064099Y-106190796D02*
X144994099Y-106190796D01*
%TO.C,C2*%
X150485000Y-77728748D02*
X150485000Y-78251252D01*
X149015000Y-77728748D02*
X149015000Y-78251252D01*
%TO.C,C4*%
X146385000Y-77728748D02*
X146385000Y-78251252D01*
X144915000Y-77728748D02*
X144915000Y-78251252D01*
%TO.C,C5*%
X148445000Y-77728748D02*
X148445000Y-78251252D01*
X146975000Y-77728748D02*
X146975000Y-78251252D01*
%TO.C,C6*%
X138755000Y-78221252D02*
X138755000Y-77698748D01*
X140225000Y-78221252D02*
X140225000Y-77698748D01*
%TO.C,C101*%
X152525000Y-77728748D02*
X152525000Y-78251252D01*
X151055000Y-77728748D02*
X151055000Y-78251252D01*
%TO.C,R2*%
X140775000Y-78177064D02*
X140775000Y-77722936D01*
X142245000Y-78177064D02*
X142245000Y-77722936D01*
%TO.C,R3*%
X142745000Y-78197064D02*
X142745000Y-77742936D01*
X144215000Y-78197064D02*
X144215000Y-77742936D01*
%TO.C,R4*%
X150239099Y-73887860D02*
X150239099Y-73433732D01*
X151709099Y-73887860D02*
X151709099Y-73433732D01*
%TO.C,R5*%
X153352936Y-92915000D02*
X153807064Y-92915000D01*
X153352936Y-94385000D02*
X153807064Y-94385000D01*
%TO.C,D108*%
X158749605Y-73477290D02*
X158952798Y-74923081D01*
X158749605Y-73477290D02*
X159670554Y-73347859D01*
X161878852Y-73037503D02*
X162179466Y-75176482D01*
X161878852Y-73037503D02*
X160957903Y-73166934D01*
%TO.C,F101*%
X151944099Y-62898732D02*
X151944099Y-64102860D01*
X150124099Y-62898732D02*
X150124099Y-64102860D01*
%TO.C,L101*%
X139964099Y-61023575D02*
X139964099Y-60698017D01*
X140984099Y-61023575D02*
X140984099Y-60698017D01*
%TO.C,R101*%
X141127035Y-62635796D02*
X141581163Y-62635796D01*
X141127035Y-64105796D02*
X141581163Y-64105796D01*
%TO.C,R102*%
X149549099Y-63233732D02*
X149549099Y-63687860D01*
X148079099Y-63233732D02*
X148079099Y-63687860D01*
D11*
%TO.C,U1*%
X149249099Y-89955796D02*
X149249099Y-89630796D01*
X149249099Y-89955796D02*
X148924099Y-89955796D01*
X149249099Y-82930796D02*
X150674099Y-82930796D01*
X149249099Y-82705796D02*
X149249099Y-82930796D01*
X149249099Y-82705796D02*
X148924099Y-82705796D01*
X141999099Y-89955796D02*
X142324099Y-89955796D01*
X141999099Y-89955796D02*
X141999099Y-89630796D01*
X141999099Y-82705796D02*
X142324099Y-82705796D01*
X141999099Y-82705796D02*
X141999099Y-83030796D01*
D10*
%TO.C,C7*%
X154381252Y-88985000D02*
X153858748Y-88985000D01*
X154381252Y-87515000D02*
X153858748Y-87515000D01*
%TO.C,Y1*%
X155764099Y-83000796D02*
X155764099Y-87000796D01*
X152464099Y-83000796D02*
X155764099Y-83000796D01*
%TO.C,U102*%
X145704099Y-65030796D02*
X146504099Y-65030796D01*
X145704099Y-65030796D02*
X144904099Y-65030796D01*
X145704099Y-61910796D02*
X147504099Y-61910796D01*
X145704099Y-61910796D02*
X144904099Y-61910796D01*
%TO.C,C8*%
X153848748Y-80745000D02*
X154371252Y-80745000D01*
X153848748Y-82215000D02*
X154371252Y-82215000D01*
%TD*%
M02*
