%TF.GenerationSoftware,KiCad,Pcbnew,(6.99.0-222-g367431f825)*%
%TF.CreationDate,2022-01-17T23:29:45+01:00*%
%TF.ProjectId,Adalyn,4164616c-796e-42e6-9b69-6361645f7063,rev?*%
%TF.SameCoordinates,Original*%
%TF.FileFunction,Legend,Bot*%
%TF.FilePolarity,Positive*%
%FSLAX46Y46*%
G04 Gerber Fmt 4.6, Leading zero omitted, Abs format (unit mm)*
G04 Created by KiCad (PCBNEW (6.99.0-222-g367431f825)) date 2022-01-17 23:29:45*
%MOMM*%
%LPD*%
G01*
G04 APERTURE LIST*
%ADD10C,0.300000*%
%ADD11C,0.120000*%
%ADD12C,0.150000*%
G04 APERTURE END LIST*
D10*
X236718644Y-115761168D02*
X236435710Y-115800932D01*
X236304184Y-115891547D01*
X236182599Y-116052896D01*
X236151630Y-116345771D01*
X236221216Y-116840905D01*
X236331713Y-117113898D01*
X236493062Y-117235483D01*
X236644470Y-117286334D01*
X236927404Y-117246570D01*
X237058930Y-117155955D01*
X237180515Y-116994606D01*
X237211484Y-116701732D01*
X237141898Y-116206598D01*
X237031401Y-115933605D01*
X236870052Y-115812020D01*
X236718644Y-115761168D01*
X235787353Y-116396967D02*
X235221485Y-116476494D01*
X235714326Y-117417057D02*
X235535389Y-116143856D01*
X235444773Y-116012330D01*
X235293366Y-115961478D01*
X235151899Y-115981360D01*
X234857209Y-116527690D02*
X234291341Y-116607217D01*
X234784182Y-117547781D02*
X234605245Y-116274579D01*
X234514629Y-116143053D01*
X234363222Y-116092201D01*
X234221755Y-116112083D01*
X233278229Y-117687298D02*
X233429637Y-117738150D01*
X233712571Y-117698386D01*
X233844097Y-117607770D01*
X233894948Y-117456363D01*
X233815421Y-116890495D01*
X233724806Y-116758969D01*
X233573398Y-116708118D01*
X233290464Y-116747881D01*
X233158938Y-116838497D01*
X233108086Y-116989905D01*
X233127968Y-117131371D01*
X233855185Y-117173429D01*
X232501786Y-116858723D02*
X232640959Y-117848991D01*
X232521668Y-117000190D02*
X232440994Y-116939397D01*
X232289586Y-116888546D01*
X232077386Y-116918369D01*
X231945860Y-117008984D01*
X231895008Y-117160392D01*
X232004358Y-117938459D01*
X231500908Y-116999387D02*
X230935041Y-117078915D01*
X231219121Y-116534076D02*
X231398058Y-117807278D01*
X231347207Y-117958686D01*
X231215681Y-118049301D01*
X231074214Y-118069183D01*
X230558529Y-118069527D02*
X230427004Y-118160142D01*
X230144070Y-118199906D01*
X229992662Y-118149054D01*
X229902047Y-118017528D01*
X229892106Y-117946795D01*
X229942957Y-117795387D01*
X230074483Y-117704772D01*
X230286684Y-117674949D01*
X230418209Y-117584334D01*
X230469061Y-117432926D01*
X230459120Y-117362193D01*
X230368505Y-117230667D01*
X230217097Y-117179815D01*
X230004897Y-117209638D01*
X229873371Y-117300253D01*
X229355392Y-118310747D02*
X229216219Y-117320479D01*
X229146633Y-116825345D02*
X229227307Y-116886138D01*
X229166515Y-116966812D01*
X229085840Y-116906020D01*
X229146633Y-116825345D01*
X229166515Y-116966812D01*
X228061640Y-118420442D02*
X228213048Y-118471293D01*
X228495982Y-118431530D01*
X228627508Y-118340914D01*
X228688300Y-118260240D01*
X228739152Y-118108832D01*
X228679506Y-117684431D01*
X228588891Y-117552906D01*
X228508216Y-117492113D01*
X228356809Y-117441262D01*
X228073875Y-117481025D01*
X227942349Y-117571641D01*
X227495104Y-118572194D02*
X227286344Y-117086792D01*
X226858503Y-118661662D02*
X226749152Y-117883594D01*
X226800004Y-117732187D01*
X226931530Y-117641571D01*
X227143730Y-117611749D01*
X227295138Y-117662600D01*
X227375812Y-117723393D01*
X226355052Y-117722590D02*
X225789185Y-117802117D01*
X226073266Y-117257279D02*
X226252202Y-118530481D01*
X226201351Y-118681888D01*
X226069825Y-118772504D01*
X225928358Y-118792386D01*
X225139681Y-118903227D02*
X225271207Y-118812612D01*
X225322058Y-118661204D01*
X225143122Y-117388002D01*
X224563204Y-118984245D02*
X224424031Y-117993977D01*
X224354444Y-117498843D02*
X224435119Y-117559636D01*
X224374326Y-117640310D01*
X224293652Y-117579518D01*
X224354444Y-117498843D01*
X224374326Y-117640310D01*
X223269452Y-119093940D02*
X223420859Y-119144791D01*
X223703793Y-119105028D01*
X223835319Y-119014412D01*
X223896112Y-118933738D01*
X223946963Y-118782330D01*
X223887318Y-118357930D01*
X223796702Y-118226404D01*
X223716028Y-118165611D01*
X223564620Y-118114760D01*
X223281686Y-118154523D01*
X223150160Y-118245139D01*
X222702915Y-119245692D02*
X222494155Y-117760290D01*
X222066314Y-119335160D02*
X221956964Y-118557093D01*
X222007816Y-118405685D01*
X222139341Y-118315070D01*
X222351542Y-118285247D01*
X222502950Y-118336098D01*
X222583624Y-118396891D01*
X220598595Y-119541435D02*
X220389836Y-118056033D01*
X220469363Y-118621900D02*
X220317956Y-118571049D01*
X220035022Y-118610812D01*
X219903496Y-118701428D01*
X219842703Y-118782102D01*
X219791852Y-118933510D01*
X219851497Y-119357910D01*
X219942113Y-119489436D01*
X220022787Y-119550229D01*
X220174195Y-119601080D01*
X220457129Y-119561317D01*
X220588655Y-119470701D01*
X218738976Y-119730657D02*
X218890384Y-119781508D01*
X219173317Y-119741745D01*
X219304843Y-119651129D01*
X219355695Y-119499721D01*
X219276167Y-118933854D01*
X219185552Y-118802328D01*
X219034144Y-118751477D01*
X218751211Y-118791240D01*
X218619685Y-118881856D01*
X218568833Y-119033263D01*
X218588715Y-119174730D01*
X219315931Y-119216788D01*
X218162498Y-119811675D02*
X218030972Y-119902291D01*
X217748039Y-119942054D01*
X217596631Y-119891203D01*
X217506016Y-119759677D01*
X217496075Y-119688944D01*
X217546926Y-119537536D01*
X217678452Y-119446920D01*
X217890652Y-119417098D01*
X218022178Y-119326482D01*
X218073030Y-119175075D01*
X218063089Y-119104341D01*
X217972474Y-118972815D01*
X217821066Y-118921964D01*
X217608866Y-118951786D01*
X217477340Y-119042402D01*
X216959361Y-120052896D02*
X216820188Y-119062628D01*
X216750602Y-118567494D02*
X216831276Y-118628286D01*
X216770484Y-118708961D01*
X216689809Y-118648168D01*
X216750602Y-118567494D01*
X216770484Y-118708961D01*
X216385178Y-119123764D02*
X215819311Y-119203292D01*
X216103391Y-118658453D02*
X216282328Y-119931655D01*
X216231476Y-120083063D01*
X216099951Y-120173678D01*
X215958484Y-120193560D01*
X215384301Y-119264429D02*
X214606233Y-119373779D01*
X215523474Y-120254697D01*
X214745406Y-120364047D01*
X214241956Y-119424975D02*
X213676088Y-119504502D01*
X213960169Y-118959663D02*
X214139106Y-120232865D01*
X214088254Y-120384273D01*
X213956728Y-120474888D01*
X213815261Y-120494770D01*
X211710942Y-120790513D02*
X211502183Y-119305111D01*
X211701001Y-120719780D02*
X211852409Y-120770631D01*
X212135343Y-120730867D01*
X212266869Y-120640252D01*
X212327661Y-120559578D01*
X212378513Y-120408170D01*
X212318867Y-119983769D01*
X212228252Y-119852243D01*
X212147578Y-119791451D01*
X211996170Y-119740599D01*
X211713236Y-119780363D01*
X211581710Y-119870978D01*
X210358691Y-119970732D02*
X210497864Y-120961000D01*
X210995292Y-119881264D02*
X211104642Y-120659331D01*
X211053791Y-120810739D01*
X210922265Y-120901354D01*
X210710064Y-120931177D01*
X210558657Y-120880326D01*
X210477982Y-120819533D01*
X209030145Y-121167274D02*
X208821386Y-119681872D01*
X208809151Y-120621289D02*
X208464278Y-121246802D01*
X208325105Y-120256534D02*
X208970500Y-120742874D01*
X207311992Y-121336615D02*
X207463400Y-121387466D01*
X207746334Y-121347702D01*
X207877860Y-121257087D01*
X207928711Y-121105679D01*
X207849184Y-120539812D01*
X207758569Y-120408286D01*
X207607161Y-120357434D01*
X207324227Y-120397198D01*
X207192701Y-120487813D01*
X207141850Y-120639221D01*
X207161731Y-120780688D01*
X207888948Y-120822746D01*
X206674722Y-121498308D02*
X206535549Y-120508040D01*
X206465963Y-120012905D02*
X206546637Y-120073698D01*
X206485845Y-120154372D01*
X206405170Y-120093580D01*
X206465963Y-120012905D01*
X206485845Y-120154372D01*
X205888339Y-120598999D02*
X206027512Y-121589267D01*
X205908221Y-120740466D02*
X205827546Y-120679673D01*
X205676138Y-120628822D01*
X205463938Y-120658645D01*
X205332412Y-120749260D01*
X205281561Y-120900668D01*
X205390911Y-121678735D01*
X204238625Y-121768548D02*
X204390033Y-121819400D01*
X204672967Y-121779636D01*
X204804493Y-121689021D01*
X204855344Y-121537613D01*
X204775817Y-120971745D01*
X204685201Y-120840219D01*
X204533794Y-120789368D01*
X204250860Y-120829132D01*
X204119334Y-120919747D01*
X204068482Y-121071155D01*
X204088364Y-121212622D01*
X204815580Y-121254679D01*
X202002780Y-122154906D02*
X202710114Y-122055497D01*
X202501354Y-120570095D01*
X200650529Y-121335125D02*
X200789702Y-122325393D01*
X201287129Y-121245657D02*
X201396480Y-122023725D01*
X201345628Y-122175132D01*
X201214102Y-122265748D01*
X201001902Y-122295570D01*
X200850494Y-122244719D01*
X200769820Y-122183926D01*
X200286251Y-121386321D02*
X199720384Y-121465849D01*
X200213224Y-122406412D02*
X200034287Y-121133210D01*
X199943672Y-121001684D01*
X199792264Y-120950833D01*
X199650797Y-120970714D01*
X199356107Y-121517044D02*
X198790240Y-121596572D01*
X199074321Y-121051733D02*
X199253257Y-122324935D01*
X199202406Y-122476343D01*
X199070880Y-122566958D01*
X198929413Y-122586840D01*
X198425964Y-121647767D02*
X197860096Y-121727295D01*
X198352936Y-122667858D02*
X198173999Y-121394657D01*
X198083384Y-121263131D01*
X197931976Y-121212279D01*
X197790510Y-121232161D01*
X197422792Y-122798582D02*
X197283619Y-121808313D01*
X197323383Y-122091247D02*
X197232768Y-121959721D01*
X197152093Y-121898929D01*
X197000686Y-121848077D01*
X196859219Y-121867959D01*
X196421915Y-122939246D02*
X196282741Y-121948978D01*
X196213155Y-121453844D02*
X196293829Y-121514636D01*
X196233037Y-121595310D01*
X196152362Y-121534518D01*
X196213155Y-121453844D01*
X196233037Y-121595310D01*
X195847731Y-122010114D02*
X195281864Y-122089642D01*
X195565944Y-121544803D02*
X195744881Y-122818005D01*
X195694030Y-122969413D01*
X195562504Y-123060028D01*
X195421037Y-123079910D01*
X194917587Y-122140838D02*
X194351720Y-122220365D01*
X194635800Y-121675526D02*
X194814737Y-122948728D01*
X194763886Y-123100136D01*
X194632360Y-123190751D01*
X194490893Y-123210633D01*
X193338608Y-123300446D02*
X193490016Y-123351297D01*
X193772949Y-123311534D01*
X193904475Y-123220918D01*
X193955327Y-123069510D01*
X193875799Y-122503643D01*
X193785184Y-122372117D01*
X193633776Y-122321265D01*
X193350843Y-122361029D01*
X193219317Y-122451645D01*
X193168465Y-122603052D01*
X193188347Y-122744519D01*
X193915563Y-122786577D01*
X191925564Y-122561339D02*
X192064737Y-123551607D01*
X192562165Y-122471871D02*
X192671515Y-123249938D01*
X192620663Y-123401346D01*
X192489138Y-123491962D01*
X192276937Y-123521784D01*
X192125529Y-123470933D01*
X192044855Y-123410140D01*
X191549052Y-123551951D02*
X191417526Y-123642567D01*
X191134592Y-123682330D01*
X190983184Y-123631479D01*
X190892569Y-123499953D01*
X190882628Y-123429219D01*
X190933480Y-123277812D01*
X191065006Y-123187196D01*
X191277206Y-123157374D01*
X191408732Y-123066758D01*
X191459584Y-122915350D01*
X191449643Y-122844617D01*
X191359027Y-122713091D01*
X191207619Y-122662240D01*
X190995419Y-122692062D01*
X190863893Y-122782678D01*
X189770107Y-123801966D02*
X189921514Y-123852817D01*
X190204448Y-123813054D01*
X190335974Y-123722438D01*
X190386826Y-123571031D01*
X190307298Y-123005163D01*
X190216683Y-122873637D01*
X190065275Y-122822786D01*
X189782341Y-122862549D01*
X189650815Y-122953165D01*
X189599964Y-123104572D01*
X189619846Y-123246039D01*
X190347062Y-123288097D01*
X189112955Y-123822192D02*
X189052162Y-123902866D01*
X189132837Y-123963659D01*
X189193629Y-123882984D01*
X189112955Y-123822192D01*
X189132837Y-123963659D01*
X188465744Y-123913151D02*
X188404952Y-123993826D01*
X188485626Y-124054618D01*
X188546419Y-123973944D01*
X188465744Y-123913151D01*
X188485626Y-124054618D01*
X187818534Y-124004111D02*
X187757741Y-124084785D01*
X187838416Y-124145578D01*
X187899208Y-124064903D01*
X187818534Y-124004111D01*
X187838416Y-124145578D01*
X226046432Y-109275583D02*
X225748204Y-107153580D01*
X225411456Y-108427126D02*
X224704122Y-108526536D01*
X225612569Y-108831645D02*
X224908675Y-107415830D01*
X224622301Y-108970818D01*
X224045823Y-109051837D02*
X223837064Y-107566435D01*
X223483397Y-107616139D01*
X223281137Y-107716696D01*
X223159552Y-107878044D01*
X223108701Y-108029452D01*
X223077731Y-108322327D01*
X223107554Y-108534527D01*
X223218051Y-108807520D01*
X223308666Y-108939046D01*
X223470015Y-109060631D01*
X223692156Y-109101542D01*
X224045823Y-109051837D01*
X222631633Y-108817805D02*
X221924299Y-108917214D01*
X222832746Y-109222324D02*
X222128852Y-107806508D01*
X221842478Y-109361497D01*
X220558666Y-109541925D02*
X221266000Y-109442516D01*
X221057241Y-107957113D01*
X219599846Y-108955373D02*
X219699255Y-109662707D01*
X219985630Y-108107719D02*
X219599846Y-108955373D01*
X218995362Y-108246892D01*
X218627644Y-109813312D02*
X218418884Y-108327910D01*
X217778843Y-109932604D01*
X217570083Y-108447201D01*
X216311125Y-110138878D02*
X216102365Y-108653476D01*
X231576456Y-110952270D02*
X231278228Y-108830267D01*
X230930392Y-110538155D02*
X230721633Y-109052753D01*
X230367966Y-109102458D01*
X230165706Y-109203014D01*
X230044121Y-109364363D01*
X229993270Y-109515770D01*
X229962300Y-109808645D01*
X229992123Y-110020845D01*
X230102620Y-110293838D01*
X230193235Y-110425364D01*
X230354584Y-110546949D01*
X230576725Y-110587860D01*
X230930392Y-110538155D01*
X228929306Y-110747259D02*
X229080714Y-110798110D01*
X229363648Y-110758347D01*
X229495174Y-110667731D01*
X229546025Y-110516323D01*
X229466498Y-109950456D01*
X229375882Y-109818930D01*
X229224475Y-109768079D01*
X228941541Y-109807842D01*
X228810015Y-109898458D01*
X228759163Y-110049865D01*
X228779045Y-110191332D01*
X229506261Y-110233390D01*
X228352829Y-110828277D02*
X228221303Y-110918893D01*
X227938369Y-110958656D01*
X227786961Y-110907805D01*
X227696346Y-110776279D01*
X227686405Y-110705546D01*
X227737256Y-110554138D01*
X227868782Y-110463522D01*
X228080983Y-110433700D01*
X228212509Y-110343084D01*
X228263360Y-110191676D01*
X228253419Y-110120943D01*
X228162804Y-109989417D01*
X228011396Y-109938566D01*
X227799196Y-109968388D01*
X227667670Y-110059004D01*
X227149692Y-111069498D02*
X227010518Y-110079230D01*
X226940932Y-109584096D02*
X227021606Y-109644888D01*
X226960814Y-109725563D01*
X226880139Y-109664770D01*
X226940932Y-109584096D01*
X226960814Y-109725563D01*
X225726707Y-110259658D02*
X225895703Y-111462126D01*
X225986318Y-111593652D01*
X226066993Y-111654444D01*
X226218400Y-111705296D01*
X226430601Y-111675473D01*
X226562127Y-111584858D01*
X225855939Y-111179192D02*
X226007347Y-111230044D01*
X226290281Y-111190280D01*
X226421807Y-111099665D01*
X226482599Y-111018990D01*
X226533451Y-110867583D01*
X226473805Y-110443182D01*
X226383190Y-110311656D01*
X226302515Y-110250864D01*
X226151108Y-110200012D01*
X225868174Y-110239776D01*
X225736648Y-110330391D01*
X225150230Y-110340676D02*
X225289403Y-111330944D01*
X225170111Y-110482143D02*
X225089437Y-110421351D01*
X224938029Y-110370499D01*
X224725829Y-110400322D01*
X224594303Y-110490937D01*
X224543451Y-110642345D01*
X224652802Y-111420413D01*
X223185083Y-111626687D02*
X222976323Y-110141285D01*
X223055851Y-110707153D02*
X222904443Y-110656301D01*
X222621509Y-110696065D01*
X222489983Y-110786680D01*
X222429191Y-110867354D01*
X222378339Y-111018762D01*
X222437985Y-111443163D01*
X222528600Y-111574689D01*
X222609275Y-111635481D01*
X222760682Y-111686333D01*
X223043616Y-111646569D01*
X223175142Y-111555954D01*
X221903566Y-110796965D02*
X221689071Y-111836938D01*
X221196231Y-110896375D02*
X221689071Y-111836938D01*
X221880243Y-112170723D01*
X221960917Y-112231516D01*
X222112325Y-112282367D01*
X219867686Y-112092917D02*
X219658926Y-110607515D01*
X219312906Y-111738103D01*
X218668658Y-110746688D01*
X218877418Y-112232090D01*
X217664340Y-112402577D02*
X217554990Y-111624509D01*
X217605842Y-111473101D01*
X217737368Y-111382486D01*
X218020301Y-111342722D01*
X218171709Y-111393574D01*
X217654399Y-112331844D02*
X217805807Y-112382695D01*
X218159474Y-112332990D01*
X218291000Y-112242375D01*
X218341852Y-112090967D01*
X218321970Y-111949500D01*
X218231355Y-111817975D01*
X218079947Y-111767123D01*
X217726280Y-111816828D01*
X217574872Y-111765976D01*
X217087863Y-112483596D02*
X216948690Y-111493328D01*
X216988454Y-111776261D02*
X216897838Y-111644735D01*
X216817164Y-111583943D01*
X216665756Y-111533091D01*
X216524289Y-111552973D01*
X216089279Y-111614110D02*
X215874785Y-112654083D01*
X215381945Y-111713519D01*
X214340156Y-112076325D02*
X214835290Y-112006738D01*
X214944641Y-112784806D02*
X214735881Y-111299404D01*
X214028547Y-111398813D01*
X213660829Y-112965234D02*
X213452070Y-111479832D01*
X212886202Y-111559359D01*
X212754676Y-111649974D01*
X212693884Y-111730649D01*
X212643032Y-111882057D01*
X212672855Y-112094257D01*
X212763470Y-112225783D01*
X212844145Y-112286575D01*
X212995553Y-112337427D01*
X213561420Y-112257899D01*
X212238992Y-111650319D02*
X211952618Y-113205307D01*
X211248724Y-111789492D01*
X236277130Y-112745514D02*
X235978902Y-110623511D01*
X235026582Y-111622918D02*
X235521716Y-111553331D01*
X235631066Y-112331399D02*
X235422307Y-110845997D01*
X234714972Y-110945406D01*
X234135055Y-112541650D02*
X234266581Y-112451034D01*
X234327373Y-112370360D01*
X234378225Y-112218952D01*
X234318579Y-111794552D01*
X234227964Y-111663026D01*
X234147290Y-111602233D01*
X233995882Y-111551382D01*
X233783682Y-111581204D01*
X233652156Y-111671820D01*
X233591363Y-111752494D01*
X233540512Y-111903902D01*
X233600157Y-112328302D01*
X233690772Y-112459828D01*
X233771447Y-112520621D01*
X233922855Y-112571472D01*
X234135055Y-112541650D01*
X233063444Y-112692255D02*
X232924271Y-111701987D01*
X232964035Y-111984920D02*
X232873419Y-111853394D01*
X232792745Y-111792602D01*
X232641337Y-111741750D01*
X232499870Y-111761632D01*
X232062566Y-112832919D02*
X231853806Y-111347517D01*
X231841572Y-112286933D02*
X231496699Y-112912446D01*
X231357526Y-111922178D02*
X232002921Y-112408518D01*
X230344413Y-113002259D02*
X230495821Y-113053111D01*
X230778755Y-113013347D01*
X230910281Y-112922732D01*
X230961132Y-112771324D01*
X230881605Y-112205456D01*
X230790989Y-112073930D01*
X230639582Y-112023079D01*
X230356648Y-112062843D01*
X230225122Y-112153458D01*
X230174270Y-112304866D01*
X230194152Y-112446333D01*
X230921369Y-112488390D01*
X229070542Y-113253420D02*
X228861783Y-111768018D01*
X229060601Y-113182687D02*
X229212009Y-113233539D01*
X229494943Y-113193775D01*
X229626469Y-113103160D01*
X229687261Y-113022485D01*
X229738113Y-112871077D01*
X229678467Y-112446677D01*
X229587852Y-112315151D01*
X229507178Y-112254358D01*
X229355770Y-112203507D01*
X229072836Y-112243271D01*
X228941310Y-112333886D01*
X227602824Y-113459695D02*
X227394064Y-111974293D01*
X227473591Y-112540160D02*
X227322184Y-112489309D01*
X227039250Y-112529072D01*
X226907724Y-112619688D01*
X226846931Y-112700362D01*
X226796080Y-112851770D01*
X226855726Y-113276171D01*
X226946341Y-113407696D01*
X227027015Y-113468489D01*
X227178423Y-113519341D01*
X227461357Y-113479577D01*
X227592883Y-113388961D01*
X226321306Y-112629973D02*
X226106812Y-113669946D01*
X225613972Y-112729382D02*
X226106812Y-113669946D01*
X226297984Y-114003731D01*
X226378658Y-114064523D01*
X226530066Y-114115375D01*
X224346219Y-113845250D02*
X224143960Y-113945807D01*
X223790293Y-113995511D01*
X223638885Y-113944660D01*
X223558210Y-113883867D01*
X223467595Y-113752341D01*
X223447713Y-113610874D01*
X223498565Y-113459467D01*
X223559357Y-113378792D01*
X223690883Y-113288177D01*
X223963876Y-113177680D01*
X224095402Y-113087064D01*
X224156194Y-113006390D01*
X224207046Y-112854982D01*
X224187164Y-112713515D01*
X224096549Y-112581989D01*
X224015874Y-112521197D01*
X223864467Y-112470345D01*
X223510799Y-112520050D01*
X223308540Y-112620606D01*
X222284340Y-114135029D02*
X222435747Y-114185880D01*
X222718681Y-114146116D01*
X222850207Y-114055501D01*
X222911000Y-113974827D01*
X222961851Y-113823419D01*
X222902206Y-113399018D01*
X222811590Y-113267492D01*
X222730916Y-113206700D01*
X222579508Y-113155848D01*
X222296574Y-113195612D01*
X222165048Y-113286227D01*
X221081202Y-114376249D02*
X220971852Y-113598181D01*
X221022703Y-113446773D01*
X221154229Y-113356158D01*
X221437163Y-113316394D01*
X221588571Y-113367246D01*
X221071261Y-114305516D02*
X221222669Y-114356367D01*
X221576336Y-114306662D01*
X221707862Y-114216047D01*
X221758714Y-114064639D01*
X221738832Y-113923172D01*
X221648217Y-113791647D01*
X221496809Y-113740795D01*
X221143142Y-113790500D01*
X220991734Y-113739648D01*
X220577752Y-113437177D02*
X220011884Y-113516704D01*
X220295965Y-112971866D02*
X220474902Y-114245067D01*
X220424050Y-114396475D01*
X220292524Y-114487090D01*
X220151058Y-114506972D01*
X219647608Y-113567900D02*
X219081740Y-113647427D01*
X219365821Y-113102589D02*
X219544758Y-114375791D01*
X219493906Y-114527198D01*
X219362380Y-114617814D01*
X219220914Y-114637696D01*
X218068628Y-114727508D02*
X218220036Y-114778360D01*
X218502970Y-114738596D01*
X218634496Y-114647981D01*
X218685347Y-114496573D01*
X218605820Y-113930705D01*
X218515205Y-113799179D01*
X218363797Y-113748328D01*
X218080863Y-113788092D01*
X217949337Y-113878707D01*
X217898486Y-114030115D01*
X217918367Y-114171582D01*
X218645584Y-114213639D01*
X217431358Y-114889201D02*
X217292185Y-113898933D01*
X217331949Y-114181867D02*
X217241334Y-114050341D01*
X217160659Y-113989548D01*
X217009252Y-113938697D01*
X216867785Y-113958579D01*
X215854672Y-115038659D02*
X216006080Y-115089511D01*
X216289014Y-115049747D01*
X216420540Y-114959132D01*
X216471391Y-114807724D01*
X216391864Y-114241857D01*
X216301248Y-114110331D01*
X216149841Y-114059479D01*
X215866907Y-114099243D01*
X215735381Y-114189858D01*
X215684529Y-114341266D01*
X215704411Y-114482733D01*
X216431627Y-114524790D01*
X214580801Y-115289821D02*
X214372042Y-113804419D01*
X214570860Y-115219087D02*
X214722268Y-115269939D01*
X215005202Y-115230175D01*
X215136728Y-115139560D01*
X215197520Y-115058885D01*
X215248372Y-114907478D01*
X215188726Y-114483077D01*
X215098111Y-114351551D01*
X215017437Y-114290759D01*
X214866029Y-114239907D01*
X214583095Y-114279671D01*
X214451569Y-114370286D01*
X214004324Y-115370839D02*
X213795564Y-113885437D01*
X213441897Y-113935142D01*
X213239638Y-114035698D01*
X213118053Y-114197047D01*
X213067201Y-114348455D01*
X213036231Y-114641329D01*
X213066054Y-114853530D01*
X213176551Y-115126523D01*
X213267167Y-115258048D01*
X213428515Y-115379633D01*
X213650657Y-115420544D01*
X214004324Y-115370839D01*
X212579046Y-115571149D02*
X212439873Y-114580881D01*
X212479637Y-114863815D02*
X212389021Y-114732289D01*
X212308347Y-114671496D01*
X212156939Y-114620645D01*
X212015472Y-114640527D01*
X211578168Y-115711813D02*
X211438995Y-114721545D01*
X211369408Y-114226411D02*
X211450083Y-114287204D01*
X211389290Y-114367878D01*
X211308616Y-114307086D01*
X211369408Y-114226411D01*
X211389290Y-114367878D01*
X211003985Y-114782682D02*
X210438117Y-114862209D01*
X210930958Y-115802773D02*
X210752021Y-114529571D01*
X210661405Y-114398045D01*
X210509998Y-114347194D01*
X210368531Y-114367075D01*
X210073841Y-114913405D02*
X209507973Y-114992933D01*
X209792054Y-114448094D02*
X209970991Y-115721296D01*
X209920139Y-115872704D01*
X209788613Y-115963319D01*
X209647146Y-115983201D01*
X208494861Y-116073013D02*
X208646269Y-116123865D01*
X208929203Y-116084101D01*
X209060729Y-115993486D01*
X209111580Y-115842078D01*
X209032053Y-115276211D01*
X208941438Y-115144685D01*
X208790030Y-115093833D01*
X208507096Y-115133597D01*
X208375570Y-115224212D01*
X208324718Y-115375620D01*
X208344600Y-115517087D01*
X209071817Y-115559144D01*
X207857591Y-116234706D02*
X207718418Y-115244438D01*
X207758182Y-115527372D02*
X207667567Y-115395846D01*
X207586892Y-115335054D01*
X207435484Y-115284202D01*
X207294018Y-115304084D01*
%TO.C,G\u002A\u002A\u002A*%
G36*
X132406288Y-116629020D02*
G01*
X132558960Y-116744261D01*
X132784290Y-116936194D01*
X133051798Y-117179553D01*
X133284814Y-117395063D01*
X133682826Y-117753664D01*
X134153274Y-118167203D01*
X134708109Y-118645968D01*
X135359282Y-119200245D01*
X136118745Y-119840321D01*
X136998449Y-120576483D01*
X137254172Y-120790449D01*
X137740991Y-121202845D01*
X138112732Y-121527751D01*
X138381724Y-121777662D01*
X138560302Y-121965077D01*
X138660796Y-122102491D01*
X138695538Y-122202402D01*
X138676860Y-122277305D01*
X138670503Y-122290354D01*
X138678481Y-122324592D01*
X138737196Y-122354845D01*
X138861524Y-122382509D01*
X139066342Y-122408982D01*
X139366525Y-122435660D01*
X139776950Y-122463942D01*
X140312492Y-122495224D01*
X140988029Y-122530903D01*
X141818436Y-122572377D01*
X141967649Y-122579707D01*
X142675235Y-122614497D01*
X143369361Y-122648665D01*
X144018780Y-122680671D01*
X144592246Y-122708976D01*
X145058511Y-122732037D01*
X145386329Y-122748314D01*
X145822109Y-122774728D01*
X146357346Y-122823146D01*
X146896856Y-122893033D01*
X147472325Y-122989847D01*
X148115440Y-123119042D01*
X148857889Y-123286074D01*
X149731357Y-123496398D01*
X149866972Y-123529628D01*
X150471891Y-123674370D01*
X151071095Y-123812690D01*
X151624860Y-123935722D01*
X152093458Y-124034595D01*
X152437165Y-124100442D01*
X152797226Y-124168488D01*
X153159521Y-124260554D01*
X153381291Y-124357966D01*
X153479434Y-124468918D01*
X153470846Y-124601601D01*
X153423544Y-124669467D01*
X153268092Y-124734896D01*
X153196356Y-124731987D01*
X152890122Y-124695023D01*
X152440313Y-124617992D01*
X151861984Y-124503955D01*
X151170186Y-124355970D01*
X150379973Y-124177096D01*
X149506396Y-123970392D01*
X148865598Y-123816944D01*
X148199228Y-123662463D01*
X147634723Y-123540887D01*
X147137529Y-123447034D01*
X146673094Y-123375721D01*
X146206865Y-123321765D01*
X145704288Y-123279982D01*
X145130811Y-123245191D01*
X144451881Y-123212207D01*
X143861166Y-123185235D01*
X142648086Y-123129080D01*
X141599670Y-123079366D01*
X140712382Y-123035909D01*
X139982687Y-122998523D01*
X139407048Y-122967025D01*
X138981928Y-122941231D01*
X138703793Y-122920957D01*
X138569105Y-122906019D01*
X138441264Y-122849040D01*
X138377968Y-122679842D01*
X138376748Y-122660103D01*
X138330036Y-122536318D01*
X138208319Y-122367202D01*
X138001634Y-122143130D01*
X137700014Y-121854479D01*
X137293495Y-121491624D01*
X136772111Y-121044941D01*
X136125898Y-120504805D01*
X136055186Y-120446154D01*
X135421443Y-119916671D01*
X134805204Y-119395311D01*
X134220638Y-118894556D01*
X133681917Y-118426890D01*
X133203211Y-118004796D01*
X132798692Y-117640757D01*
X132482529Y-117347255D01*
X132268893Y-117136773D01*
X132171956Y-117021795D01*
X132139671Y-116840892D01*
X132212184Y-116677215D01*
X132361364Y-116607166D01*
X132406288Y-116629020D01*
G37*
G36*
X209920743Y-92753864D02*
G01*
X210009981Y-92801205D01*
X210064349Y-92884791D01*
X210026621Y-93043670D01*
X209998805Y-93070341D01*
X209882367Y-93123981D01*
X209669342Y-93186009D01*
X209345411Y-93259547D01*
X208896254Y-93347718D01*
X208307552Y-93453644D01*
X207564985Y-93580447D01*
X207107195Y-93658006D01*
X206319981Y-93794156D01*
X205502668Y-93938411D01*
X204704701Y-94081931D01*
X203975526Y-94215876D01*
X203364590Y-94331407D01*
X203361995Y-94331908D01*
X202721352Y-94451025D01*
X202039266Y-94570034D01*
X201367694Y-94680396D01*
X200758594Y-94773570D01*
X200263921Y-94841018D01*
X200032751Y-94869590D01*
X199616826Y-94921574D01*
X199279961Y-94964444D01*
X199052016Y-94994377D01*
X198962851Y-95007551D01*
X198912954Y-94995403D01*
X198771714Y-94929521D01*
X198659452Y-94834383D01*
X198609394Y-94680586D01*
X198686308Y-94555221D01*
X198741029Y-94539571D01*
X198944152Y-94502578D01*
X199265806Y-94453354D01*
X199675879Y-94396422D01*
X200144262Y-94336302D01*
X200245457Y-94323574D01*
X200871316Y-94237385D01*
X201557471Y-94132742D01*
X202227501Y-94021707D01*
X202804986Y-93916344D01*
X203344250Y-93813409D01*
X203986656Y-93694260D01*
X204699259Y-93564730D01*
X205452407Y-93430010D01*
X206216453Y-93295290D01*
X206961745Y-93165762D01*
X207658635Y-93046615D01*
X208277472Y-92943041D01*
X208788608Y-92860230D01*
X209162392Y-92803372D01*
X209493205Y-92760204D01*
X209759566Y-92740169D01*
X209920743Y-92753864D01*
G37*
G36*
X85831333Y-92771061D02*
G01*
X86180344Y-92815093D01*
X86638042Y-92883756D01*
X87219076Y-92978299D01*
X87938093Y-93099973D01*
X88809741Y-93250028D01*
X88880670Y-93262304D01*
X89566195Y-93382547D01*
X90301329Y-93513923D01*
X91031790Y-93646583D01*
X91703296Y-93770679D01*
X92261568Y-93876360D01*
X92546637Y-93929939D01*
X93170355Y-94039899D01*
X93810201Y-94144567D01*
X94405359Y-94234183D01*
X94895013Y-94298988D01*
X95168071Y-94331284D01*
X95674950Y-94392574D01*
X96045542Y-94441147D01*
X96302396Y-94481569D01*
X96468060Y-94518407D01*
X96565082Y-94556227D01*
X96616010Y-94599596D01*
X96643392Y-94653081D01*
X96647927Y-94751125D01*
X96543509Y-94898206D01*
X96395785Y-94959949D01*
X96168670Y-94971503D01*
X96149488Y-94968454D01*
X95956637Y-94941998D01*
X95641424Y-94902173D01*
X95243028Y-94853838D01*
X94800630Y-94801852D01*
X94729391Y-94793355D01*
X94263586Y-94729919D01*
X93685988Y-94641379D01*
X93042598Y-94535275D01*
X92379414Y-94419148D01*
X91742436Y-94300538D01*
X91600684Y-94273356D01*
X90892864Y-94140894D01*
X90090085Y-93994935D01*
X89251687Y-93846047D01*
X88437010Y-93704795D01*
X87705393Y-93581743D01*
X87317323Y-93517539D01*
X86678836Y-93409663D01*
X86181931Y-93320937D01*
X85809208Y-93246919D01*
X85543270Y-93183168D01*
X85366716Y-93125241D01*
X85262148Y-93068697D01*
X85212167Y-93009094D01*
X85199373Y-92941991D01*
X85203934Y-92876626D01*
X85229219Y-92816249D01*
X85289954Y-92774254D01*
X85400786Y-92751891D01*
X85576363Y-92750410D01*
X85831333Y-92771061D01*
G37*
G36*
X204446578Y-90928340D02*
G01*
X204169941Y-91162962D01*
X203551907Y-91652244D01*
X202992953Y-92027226D01*
X202461729Y-92296245D01*
X201926887Y-92467637D01*
X201357080Y-92549740D01*
X200720958Y-92550889D01*
X199987174Y-92479421D01*
X199124378Y-92343673D01*
X198861566Y-92296107D01*
X198221021Y-92163818D01*
X197698625Y-92023913D01*
X197256404Y-91863338D01*
X196856380Y-91669038D01*
X196460577Y-91427959D01*
X196325322Y-91335624D01*
X195991131Y-91075290D01*
X195686058Y-90779442D01*
X195395653Y-90427449D01*
X195105467Y-89998675D01*
X194801050Y-89472489D01*
X194467952Y-88828257D01*
X194091725Y-88045346D01*
X194020019Y-87892114D01*
X193649566Y-87090201D01*
X193340991Y-86397780D01*
X193081200Y-85779648D01*
X192951202Y-85443749D01*
X194039501Y-85443749D01*
X194085960Y-85547421D01*
X194279437Y-85663808D01*
X194560218Y-85845594D01*
X194945939Y-86171724D01*
X195376920Y-86598633D01*
X195831993Y-87101655D01*
X196289993Y-87656125D01*
X196729752Y-88237378D01*
X197130105Y-88820750D01*
X197469885Y-89381575D01*
X197511867Y-89456019D01*
X197735988Y-89821747D01*
X197906613Y-90036399D01*
X198028773Y-90106500D01*
X198072560Y-90102575D01*
X198158712Y-90027512D01*
X198182650Y-89827100D01*
X198182600Y-89817091D01*
X198158515Y-89601922D01*
X198103685Y-89467266D01*
X198088356Y-89443615D01*
X198028722Y-89280314D01*
X197955555Y-89010007D01*
X197881290Y-88676888D01*
X197874152Y-88640356D01*
X197812295Y-88178480D01*
X197777178Y-87621796D01*
X197767791Y-87014118D01*
X197783122Y-86399261D01*
X197822160Y-85821038D01*
X197883894Y-85323263D01*
X197967312Y-84949748D01*
X198024908Y-84746838D01*
X198055076Y-84497690D01*
X198003997Y-84275899D01*
X197857424Y-84033757D01*
X197601109Y-83723555D01*
X197434266Y-83500694D01*
X197192241Y-83097280D01*
X196930045Y-82588006D01*
X196662860Y-82004595D01*
X196405871Y-81378771D01*
X196174260Y-80742257D01*
X196140858Y-80644364D01*
X195993103Y-80235941D01*
X195877217Y-79968166D01*
X195783754Y-79821691D01*
X195703273Y-79777166D01*
X195628096Y-79767206D01*
X195509023Y-79696197D01*
X195466615Y-79662739D01*
X195326687Y-79665761D01*
X195280861Y-79692451D01*
X195234956Y-79783735D01*
X195226389Y-79965445D01*
X195250367Y-80275897D01*
X195265877Y-80504745D01*
X195262297Y-81038343D01*
X195216582Y-81637951D01*
X195134821Y-82274167D01*
X195023099Y-82917588D01*
X194887504Y-83538812D01*
X194734122Y-84108437D01*
X194569040Y-84597062D01*
X194398346Y-84975283D01*
X194228126Y-85213700D01*
X194134660Y-85305430D01*
X194039501Y-85443749D01*
X192951202Y-85443749D01*
X192857100Y-85200600D01*
X192655599Y-84625432D01*
X192463602Y-84018939D01*
X192268017Y-83345919D01*
X192055750Y-82571166D01*
X191951565Y-82196056D01*
X191852559Y-81863748D01*
X191773658Y-81624121D01*
X191725973Y-81512833D01*
X191678878Y-81421269D01*
X191628415Y-81229214D01*
X191599038Y-81030262D01*
X191354055Y-81223107D01*
X191235643Y-81322422D01*
X191165973Y-81419436D01*
X191136799Y-81556423D01*
X191139020Y-81776335D01*
X191163534Y-82122119D01*
X191174091Y-82245091D01*
X191265351Y-82949779D01*
X191413947Y-83768229D01*
X191611712Y-84665549D01*
X191850476Y-85606850D01*
X192122072Y-86557242D01*
X192418331Y-87481833D01*
X192476234Y-87647034D01*
X192745857Y-88332388D01*
X193078053Y-89078241D01*
X193450388Y-89840102D01*
X193840431Y-90573478D01*
X194225747Y-91233879D01*
X194583903Y-91776812D01*
X194618815Y-91825124D01*
X195029086Y-92355795D01*
X195470965Y-92868900D01*
X195919577Y-93339580D01*
X196350048Y-93742976D01*
X196737502Y-94054226D01*
X197057065Y-94248472D01*
X197151389Y-94294233D01*
X197413666Y-94469093D01*
X197510524Y-94637939D01*
X197439929Y-94797856D01*
X197324749Y-94827563D01*
X197127364Y-94811046D01*
X196883253Y-94729932D01*
X196480862Y-94499192D01*
X196027675Y-94148280D01*
X195540575Y-93694455D01*
X195036446Y-93154979D01*
X194532169Y-92547112D01*
X194044626Y-91888114D01*
X193590702Y-91195245D01*
X193140894Y-90401938D01*
X192584969Y-89248384D01*
X192072885Y-87989744D01*
X191616578Y-86661476D01*
X191227984Y-85299040D01*
X190919043Y-83937895D01*
X190701689Y-82613500D01*
X190679072Y-82443423D01*
X190634381Y-82133621D01*
X190597730Y-81913197D01*
X190575395Y-81821505D01*
X190526648Y-81837587D01*
X190358743Y-81942839D01*
X190088683Y-82131754D01*
X189733476Y-82391262D01*
X189310126Y-82708291D01*
X188835642Y-83069770D01*
X188327028Y-83462629D01*
X187801293Y-83873796D01*
X187275441Y-84290201D01*
X186766479Y-84698772D01*
X186291415Y-85086440D01*
X185867253Y-85440132D01*
X185620030Y-85642997D01*
X185331427Y-85863949D01*
X185100468Y-86023060D01*
X184961955Y-86095149D01*
X184793992Y-86108473D01*
X184563595Y-86020562D01*
X184409002Y-85834756D01*
X184359446Y-85593688D01*
X184444159Y-85339993D01*
X184445997Y-85337234D01*
X184579381Y-85187732D01*
X184802345Y-84983933D01*
X185067630Y-84769109D01*
X185155357Y-84701875D01*
X185444174Y-84477184D01*
X185811230Y-84188480D01*
X186218433Y-83865792D01*
X186627693Y-83539152D01*
X186993814Y-83248862D01*
X187720678Y-82685474D01*
X188550853Y-82055242D01*
X189460496Y-81375593D01*
X190425762Y-80663956D01*
X191422806Y-79937756D01*
X192427784Y-79214422D01*
X193416853Y-78511381D01*
X194366166Y-77846061D01*
X195251881Y-77235889D01*
X195552758Y-77029375D01*
X196332427Y-76484531D01*
X197199850Y-75866998D01*
X198123520Y-75199767D01*
X199071932Y-74505830D01*
X200013577Y-73808178D01*
X200916950Y-73129802D01*
X201750543Y-72493692D01*
X201929554Y-72356027D01*
X202560507Y-71874268D01*
X203243091Y-71357679D01*
X203958649Y-70820031D01*
X204688525Y-70275099D01*
X205414064Y-69736657D01*
X206116610Y-69218476D01*
X206777506Y-68734332D01*
X207378098Y-68297998D01*
X207899727Y-67923246D01*
X208323740Y-67623850D01*
X208631480Y-67413585D01*
X209000291Y-67163152D01*
X209713760Y-66644461D01*
X210388187Y-66111070D01*
X210986024Y-65593304D01*
X211469721Y-65121486D01*
X211535065Y-65052703D01*
X211856947Y-64734754D01*
X212104909Y-64540331D01*
X212302290Y-64458874D01*
X212472431Y-64479824D01*
X212638670Y-64592622D01*
X212715928Y-64676491D01*
X212783847Y-64868064D01*
X212726023Y-65108508D01*
X212539047Y-65426347D01*
X212534679Y-65432636D01*
X212294166Y-65721609D01*
X211933648Y-66081056D01*
X211476272Y-66491673D01*
X210945189Y-66934158D01*
X210363547Y-67389206D01*
X209754494Y-67837514D01*
X209141179Y-68259779D01*
X209109634Y-68280778D01*
X208811643Y-68484785D01*
X208428889Y-68754281D01*
X207978473Y-69076584D01*
X207477499Y-69439014D01*
X206943068Y-69828888D01*
X206392284Y-70233524D01*
X205842247Y-70640240D01*
X205310061Y-71036356D01*
X204812828Y-71409189D01*
X204367651Y-71746057D01*
X203991631Y-72034279D01*
X203701871Y-72261173D01*
X203515473Y-72414057D01*
X203449540Y-72480249D01*
X203466891Y-72517707D01*
X203584885Y-72650112D01*
X203782579Y-72834824D01*
X204022289Y-73040132D01*
X204266334Y-73234321D01*
X204477029Y-73385680D01*
X204616693Y-73462495D01*
X204768885Y-73549094D01*
X205019602Y-73785267D01*
X205320853Y-74146297D01*
X205661417Y-74615697D01*
X206030075Y-75176980D01*
X206415607Y-75813662D01*
X206806795Y-76509257D01*
X207192418Y-77247277D01*
X207263836Y-77390226D01*
X207842441Y-78640332D01*
X208289410Y-79802518D01*
X208605790Y-80892740D01*
X208792628Y-81926952D01*
X208850972Y-82921109D01*
X208781868Y-83891167D01*
X208586364Y-84853079D01*
X208265505Y-85822801D01*
X207820340Y-86816288D01*
X207443928Y-87517479D01*
X207001523Y-88220903D01*
X206504732Y-88884270D01*
X205929409Y-89537011D01*
X205636531Y-89827100D01*
X205251407Y-90208557D01*
X204446578Y-90928340D01*
G37*
G36*
X103308573Y-82275118D02*
G01*
X103181594Y-82722621D01*
X103044724Y-83218032D01*
X102935171Y-83611894D01*
X102760135Y-84202030D01*
X102577557Y-84760546D01*
X102375701Y-85317788D01*
X102142831Y-85904102D01*
X101867210Y-86549833D01*
X101537103Y-87285328D01*
X101140772Y-88140931D01*
X100932549Y-88578087D01*
X100509121Y-89405318D01*
X100102558Y-90092903D01*
X99693600Y-90656954D01*
X99262989Y-91113587D01*
X98791467Y-91478917D01*
X98259774Y-91769058D01*
X97648652Y-92000125D01*
X96938842Y-92188231D01*
X96111086Y-92349493D01*
X95905422Y-92383889D01*
X95083808Y-92498068D01*
X94388115Y-92548570D01*
X93791873Y-92533474D01*
X93268613Y-92450857D01*
X92791865Y-92298799D01*
X92335159Y-92075378D01*
X92166877Y-91973113D01*
X91702320Y-91645511D01*
X91173296Y-91222615D01*
X90608156Y-90731291D01*
X90035252Y-90198401D01*
X89482935Y-89650810D01*
X88979556Y-89115381D01*
X88553468Y-88618979D01*
X88233020Y-88188468D01*
X88180616Y-88108437D01*
X87818943Y-87499297D01*
X87462961Y-86811161D01*
X87137203Y-86097287D01*
X86866204Y-85410932D01*
X86674499Y-84805354D01*
X86606704Y-84514027D01*
X86487785Y-83700153D01*
X86445117Y-82829444D01*
X86478062Y-82023007D01*
X88342516Y-82023007D01*
X88346084Y-82095359D01*
X88406375Y-82205696D01*
X88580982Y-82232500D01*
X88686235Y-82244989D01*
X88827465Y-82318119D01*
X88990773Y-82481145D01*
X89208912Y-82761666D01*
X89425689Y-83075338D01*
X89667855Y-83461513D01*
X89859808Y-83804183D01*
X89900959Y-83888670D01*
X90073490Y-84306005D01*
X90254524Y-84825686D01*
X90429020Y-85396192D01*
X90581935Y-85965998D01*
X90698229Y-86483583D01*
X90762860Y-86897423D01*
X90790881Y-87161046D01*
X90826211Y-87445862D01*
X90855112Y-87630000D01*
X90924881Y-87779291D01*
X91067191Y-87800982D01*
X91281023Y-87670450D01*
X91340878Y-87609259D01*
X91425091Y-87449533D01*
X91491240Y-87193045D01*
X91550597Y-86803538D01*
X91610412Y-86451823D01*
X91737209Y-85912333D01*
X91906760Y-85314241D01*
X92104334Y-84702569D01*
X92315199Y-84122340D01*
X92524623Y-83618574D01*
X92717873Y-83236295D01*
X92845735Y-83001296D01*
X92961634Y-82719742D01*
X92982022Y-82540213D01*
X92977997Y-82520235D01*
X92993805Y-82319205D01*
X93073343Y-82083619D01*
X93209457Y-81797738D01*
X92896480Y-81540616D01*
X92852577Y-81503279D01*
X92622614Y-81258888D01*
X92412432Y-80941428D01*
X92217522Y-80537205D01*
X92033374Y-80032524D01*
X91855480Y-79413693D01*
X91679332Y-78667017D01*
X91500419Y-77778803D01*
X91314232Y-76735356D01*
X91248830Y-76376939D01*
X91178083Y-76041644D01*
X91116300Y-75800580D01*
X91071956Y-75690307D01*
X90971992Y-75668445D01*
X90787391Y-75747740D01*
X90703779Y-75810744D01*
X90623800Y-75925836D01*
X90585268Y-76109414D01*
X90571851Y-76411789D01*
X90560353Y-76690913D01*
X90451314Y-77516341D01*
X90225714Y-78403802D01*
X89879026Y-79368901D01*
X89406721Y-80427245D01*
X89401590Y-80437856D01*
X89173674Y-80898123D01*
X88995867Y-81227621D01*
X88852356Y-81451025D01*
X88727325Y-81593010D01*
X88604960Y-81678252D01*
X88406063Y-81828197D01*
X88342516Y-82023007D01*
X86478062Y-82023007D01*
X86480214Y-81970341D01*
X86594588Y-81191281D01*
X86762285Y-80534869D01*
X87062819Y-79618544D01*
X87445109Y-78642722D01*
X87891354Y-77644537D01*
X88383754Y-76661121D01*
X88904508Y-75729610D01*
X89435816Y-74887136D01*
X89959878Y-74170834D01*
X90100619Y-74001157D01*
X90336901Y-73740077D01*
X90535574Y-73549025D01*
X90664308Y-73460596D01*
X90723313Y-73433186D01*
X90903170Y-73314430D01*
X91134772Y-73136816D01*
X91380461Y-72932270D01*
X91602577Y-72732714D01*
X91763463Y-72570072D01*
X91825460Y-72476267D01*
X91825380Y-72475507D01*
X91754414Y-72404073D01*
X91560682Y-72245037D01*
X91258875Y-72009263D01*
X90863686Y-71707614D01*
X90389807Y-71350953D01*
X89851929Y-70950142D01*
X89264744Y-70516045D01*
X88642944Y-70059523D01*
X88001222Y-69591441D01*
X87354268Y-69122660D01*
X86716775Y-68664045D01*
X86103434Y-68226456D01*
X85528938Y-67820758D01*
X85057709Y-67482075D01*
X84418262Y-66995005D01*
X83847630Y-66527409D01*
X83365141Y-66096016D01*
X82990123Y-65717554D01*
X82741904Y-65408749D01*
X82585205Y-65154528D01*
X82498357Y-64936058D01*
X82512564Y-64767547D01*
X82621569Y-64607333D01*
X82639220Y-64588383D01*
X82772470Y-64484081D01*
X82918455Y-64456876D01*
X83097006Y-64516833D01*
X83327954Y-64674018D01*
X83631133Y-64938496D01*
X84026373Y-65320333D01*
X84149062Y-65439788D01*
X84719275Y-65955270D01*
X85348736Y-66472545D01*
X85963921Y-66930513D01*
X87355738Y-67913201D01*
X89156940Y-69212472D01*
X90916927Y-70512354D01*
X92581206Y-71772968D01*
X93300767Y-72323596D01*
X94562421Y-73279037D01*
X95793430Y-74198766D01*
X96973883Y-75068168D01*
X98083868Y-75872629D01*
X99103477Y-76597531D01*
X100012797Y-77228259D01*
X100321990Y-77439554D01*
X100709250Y-77704996D01*
X101061266Y-77947758D01*
X101397198Y-78181459D01*
X101736204Y-78419718D01*
X102097444Y-78676153D01*
X102500077Y-78964384D01*
X102963263Y-79298029D01*
X103506162Y-79690706D01*
X104147932Y-80156035D01*
X104907734Y-80707634D01*
X105066547Y-80823290D01*
X105659071Y-81259761D01*
X106282210Y-81725622D01*
X106920813Y-82208980D01*
X107559730Y-82697941D01*
X108183811Y-83180610D01*
X108777905Y-83645094D01*
X109326864Y-84079498D01*
X109815535Y-84471928D01*
X110228770Y-84810492D01*
X110551419Y-85083293D01*
X110768330Y-85278439D01*
X110864354Y-85384035D01*
X110905776Y-85487992D01*
X110903526Y-85740056D01*
X110781431Y-85954238D01*
X110573226Y-86087061D01*
X110312645Y-86095049D01*
X110192917Y-86033604D01*
X109970043Y-85880375D01*
X109683786Y-85661084D01*
X109367357Y-85400146D01*
X109038812Y-85124452D01*
X108621434Y-84783036D01*
X108154010Y-84407511D01*
X107654772Y-84011916D01*
X107141951Y-83610289D01*
X106633781Y-83216667D01*
X106148494Y-82845088D01*
X105704321Y-82509591D01*
X105319495Y-82224212D01*
X105012249Y-82002989D01*
X104800813Y-81859962D01*
X104703422Y-81809166D01*
X104702930Y-81809215D01*
X104676470Y-81889880D01*
X104642928Y-82094829D01*
X104609440Y-82380666D01*
X104554610Y-82829891D01*
X104403328Y-83713496D01*
X104191333Y-84685449D01*
X103929737Y-85706266D01*
X103629648Y-86736461D01*
X103302177Y-87736549D01*
X102958433Y-88667046D01*
X102609526Y-89488467D01*
X102474740Y-89771178D01*
X102054864Y-90561227D01*
X101580747Y-91342712D01*
X101069124Y-92094387D01*
X100536733Y-92795004D01*
X100000311Y-93423315D01*
X99476595Y-93958074D01*
X98982322Y-94378032D01*
X98534229Y-94661944D01*
X98387488Y-94729484D01*
X98079849Y-94818670D01*
X97878483Y-94785837D01*
X97789412Y-94631234D01*
X97787555Y-94614670D01*
X97818136Y-94498241D01*
X97950223Y-94385835D01*
X98214161Y-94250234D01*
X98535308Y-94056476D01*
X98929717Y-93741329D01*
X99366236Y-93332461D01*
X99819988Y-92854679D01*
X100266095Y-92332790D01*
X100679681Y-91791603D01*
X100909116Y-91455214D01*
X101315996Y-90792918D01*
X101728320Y-90050869D01*
X102119145Y-89280730D01*
X102461529Y-88534164D01*
X102728532Y-87862833D01*
X102888990Y-87399187D01*
X103186514Y-86458573D01*
X103457871Y-85495717D01*
X103694521Y-84546026D01*
X103887927Y-83644910D01*
X104029551Y-82827779D01*
X104110855Y-82130041D01*
X104111866Y-82116923D01*
X104136087Y-81773483D01*
X104138022Y-81554986D01*
X104108755Y-81418864D01*
X104039368Y-81322552D01*
X103920944Y-81223482D01*
X103896112Y-81204030D01*
X103746410Y-81097424D01*
X103678732Y-81093739D01*
X103650345Y-81187255D01*
X103623586Y-81298884D01*
X103544126Y-81512833D01*
X103498731Y-81640350D01*
X103450138Y-81797738D01*
X103417129Y-81904652D01*
X103308573Y-82275118D01*
G37*
G36*
X219666820Y-83545763D02*
G01*
X219799833Y-83619253D01*
X219814207Y-83805617D01*
X219710963Y-84098446D01*
X219491122Y-84491330D01*
X219228385Y-84899853D01*
X218891951Y-85409079D01*
X218507312Y-85981094D01*
X218092164Y-86590364D01*
X217664204Y-87211357D01*
X217241127Y-87818539D01*
X216840629Y-88386377D01*
X216480405Y-88889338D01*
X216178152Y-89301890D01*
X215951565Y-89598500D01*
X215775939Y-89815754D01*
X215286775Y-90385608D01*
X214787289Y-90921493D01*
X214293816Y-91409138D01*
X213822692Y-91834269D01*
X213390255Y-92182614D01*
X213012841Y-92439899D01*
X212706785Y-92591853D01*
X212488424Y-92624201D01*
X212264309Y-92651361D01*
X211965230Y-92827276D01*
X211729445Y-92969493D01*
X211482777Y-93042062D01*
X211292954Y-93019031D01*
X211199094Y-92896847D01*
X211202597Y-92874066D01*
X211298355Y-92748227D01*
X211502914Y-92555370D01*
X211790506Y-92314401D01*
X212135360Y-92044225D01*
X212511708Y-91763746D01*
X212893780Y-91491871D01*
X213255807Y-91247504D01*
X213572019Y-91049549D01*
X213816647Y-90916913D01*
X213963922Y-90868500D01*
X214066567Y-90829109D01*
X214275184Y-90672493D01*
X214552542Y-90414144D01*
X214879828Y-90072941D01*
X215238229Y-89667766D01*
X215608933Y-89217500D01*
X215624236Y-89198085D01*
X215806031Y-88956035D01*
X216063840Y-88599151D01*
X216381491Y-88150921D01*
X216742809Y-87634833D01*
X217131622Y-87074375D01*
X217531756Y-86493034D01*
X217927036Y-85914299D01*
X218301290Y-85361657D01*
X218638343Y-84858595D01*
X218922022Y-84428602D01*
X219136154Y-84095166D01*
X219295665Y-83857123D01*
X219495177Y-83623721D01*
X219641879Y-83544833D01*
X219666820Y-83545763D01*
G37*
G36*
X75744640Y-83552205D02*
G01*
X75872042Y-83698272D01*
X76046504Y-83937800D01*
X76241443Y-84235420D01*
X76420722Y-84516767D01*
X76708403Y-84955551D01*
X77055140Y-85475099D01*
X77441883Y-86047629D01*
X77849581Y-86645360D01*
X78259185Y-87240511D01*
X78651647Y-87805299D01*
X79007915Y-88311943D01*
X79308941Y-88732661D01*
X79535675Y-89039672D01*
X79621974Y-89151993D01*
X79976571Y-89592097D01*
X80327891Y-89997596D01*
X80656310Y-90348238D01*
X80942201Y-90623771D01*
X81165941Y-90803942D01*
X81307902Y-90868500D01*
X81338913Y-90870602D01*
X81460783Y-90906467D01*
X81635207Y-90994824D01*
X81878354Y-91146148D01*
X82206393Y-91370916D01*
X82635490Y-91679603D01*
X83181814Y-92082685D01*
X83401892Y-92247693D01*
X83733323Y-92506798D01*
X83947314Y-92696215D01*
X84059241Y-92832650D01*
X84084475Y-92932807D01*
X84038392Y-93013388D01*
X83919666Y-93066851D01*
X83681566Y-93021129D01*
X83363568Y-92843639D01*
X83310845Y-92809275D01*
X83032975Y-92675833D01*
X82797136Y-92633500D01*
X82666893Y-92618542D01*
X82373057Y-92494825D01*
X82003660Y-92260462D01*
X81575822Y-91930733D01*
X81106664Y-91520919D01*
X80613306Y-91046301D01*
X80112867Y-90522159D01*
X79622468Y-89963775D01*
X79159229Y-89386429D01*
X78972095Y-89135914D01*
X78683711Y-88737021D01*
X78352021Y-88267544D01*
X77989799Y-87746524D01*
X77609823Y-87193000D01*
X77224869Y-86626014D01*
X76847714Y-86064606D01*
X76491134Y-85527816D01*
X76167905Y-85034684D01*
X75890804Y-84604252D01*
X75672608Y-84255559D01*
X75526092Y-84007647D01*
X75464033Y-83879555D01*
X75463542Y-83877593D01*
X75459481Y-83662290D01*
X75550167Y-83531650D01*
X75708015Y-83525678D01*
X75744640Y-83552205D01*
G37*
G36*
X205411053Y-71239347D02*
G01*
X205529091Y-71307726D01*
X205632987Y-71350927D01*
X205823007Y-71341155D01*
X206024237Y-71330526D01*
X206217679Y-71377213D01*
X206317670Y-71414228D01*
X206522738Y-71366178D01*
X206538176Y-71357604D01*
X206632591Y-71339309D01*
X206777213Y-71366400D01*
X206996816Y-71447735D01*
X207316173Y-71592170D01*
X207760057Y-71808564D01*
X207862418Y-71859685D01*
X208501084Y-72189515D01*
X209220286Y-72576102D01*
X209981232Y-72997453D01*
X210745128Y-73431571D01*
X211473183Y-73856461D01*
X212126603Y-74250128D01*
X212666597Y-74590577D01*
X212840347Y-74705022D01*
X213604926Y-75234528D01*
X214398427Y-75821887D01*
X215201826Y-76450388D01*
X215996103Y-77103319D01*
X216762233Y-77763970D01*
X217481197Y-78415629D01*
X218133970Y-79041586D01*
X218701531Y-79625127D01*
X219164857Y-80149543D01*
X219504927Y-80598122D01*
X219575166Y-80704941D01*
X219847648Y-81170043D01*
X220058335Y-81614235D01*
X220200126Y-82013937D01*
X220265919Y-82345567D01*
X220248611Y-82585547D01*
X220141100Y-82710296D01*
X220136324Y-82712074D01*
X219957632Y-82701038D01*
X219817081Y-82538576D01*
X219728573Y-82240521D01*
X219646085Y-81911675D01*
X219419156Y-81404851D01*
X219059121Y-80844617D01*
X218561480Y-80224973D01*
X217921732Y-79539918D01*
X217135378Y-78783454D01*
X216844760Y-78519165D01*
X216365905Y-78096303D01*
X215855287Y-77657977D01*
X215330626Y-77218312D01*
X214809642Y-76791435D01*
X214310055Y-76391474D01*
X213849583Y-76032555D01*
X213445947Y-75728804D01*
X213116867Y-75494349D01*
X212880060Y-75343316D01*
X212753248Y-75289833D01*
X212732079Y-75283074D01*
X212588121Y-75213511D01*
X212335953Y-75080608D01*
X212003447Y-74899237D01*
X211618475Y-74684272D01*
X211262486Y-74486703D01*
X210710190Y-74188674D01*
X210091567Y-73862198D01*
X209437385Y-73522949D01*
X208778414Y-73186601D01*
X208145420Y-72868829D01*
X207569172Y-72585307D01*
X207080440Y-72351711D01*
X206709989Y-72183713D01*
X206105222Y-71922618D01*
X206675966Y-72780725D01*
X207063349Y-73379345D01*
X208070391Y-75110745D01*
X208947677Y-76894288D01*
X209688157Y-78711473D01*
X210284785Y-80543794D01*
X210730509Y-82372749D01*
X211018283Y-84179833D01*
X211021952Y-84212239D01*
X211071277Y-84799663D01*
X211104334Y-85499508D01*
X211121415Y-86271611D01*
X211122811Y-87075804D01*
X211108815Y-87871922D01*
X211079719Y-88619799D01*
X211035813Y-89279269D01*
X210977390Y-89810166D01*
X210966586Y-89884173D01*
X210869249Y-90500762D01*
X210766248Y-91074969D01*
X210663024Y-91581678D01*
X210565017Y-91995772D01*
X210477670Y-92292132D01*
X210406424Y-92445643D01*
X210349345Y-92506224D01*
X210219341Y-92551689D01*
X210078218Y-92437944D01*
X210037481Y-92353374D01*
X210030554Y-92198872D01*
X210067044Y-91948900D01*
X210149698Y-91570111D01*
X210238575Y-91170330D01*
X210409676Y-90211941D01*
X210526440Y-89213592D01*
X210593003Y-88133905D01*
X210613505Y-86931500D01*
X210599616Y-85917400D01*
X210544807Y-84805140D01*
X210442219Y-83767302D01*
X210285309Y-82754077D01*
X210067536Y-81715653D01*
X209782360Y-80602219D01*
X209581156Y-79931244D01*
X209219343Y-78903128D01*
X208785346Y-77826420D01*
X208294440Y-76731741D01*
X207761902Y-75649711D01*
X207203009Y-74610951D01*
X206633036Y-73646082D01*
X206067262Y-72785725D01*
X205520961Y-72060500D01*
X205410914Y-71922914D01*
X205192576Y-71608358D01*
X205104177Y-71391585D01*
X205144106Y-71266206D01*
X205310757Y-71225833D01*
X205411053Y-71239347D01*
G37*
G36*
X90030870Y-71229877D02*
G01*
X90157611Y-71297452D01*
X90156282Y-71452936D01*
X90025415Y-71702369D01*
X89763542Y-72051789D01*
X89577122Y-72288162D01*
X89077907Y-72989618D01*
X88554769Y-73811586D01*
X88023718Y-74723619D01*
X87500767Y-75695271D01*
X87001927Y-76696094D01*
X86543210Y-77695642D01*
X86140628Y-78663469D01*
X85810193Y-79569127D01*
X85606357Y-80228300D01*
X85396748Y-80995419D01*
X85200046Y-81797429D01*
X85032034Y-82569924D01*
X84908497Y-83248500D01*
X84718672Y-84863335D01*
X84643840Y-86559893D01*
X84687193Y-88265842D01*
X84847567Y-89936408D01*
X85123799Y-91526820D01*
X85199718Y-91900322D01*
X85238832Y-92172764D01*
X85236384Y-92342389D01*
X85194794Y-92440332D01*
X85186065Y-92450636D01*
X85056060Y-92551691D01*
X84940059Y-92524871D01*
X84831114Y-92359952D01*
X84722275Y-92046707D01*
X84606592Y-91574913D01*
X84319276Y-89918625D01*
X84161237Y-88152553D01*
X84139614Y-86344239D01*
X84252688Y-84521002D01*
X84498741Y-82710158D01*
X84876054Y-80939027D01*
X85382908Y-79234924D01*
X85739866Y-78281307D01*
X86203467Y-77193816D01*
X86732095Y-76072648D01*
X87301851Y-74966154D01*
X87888839Y-73922686D01*
X88469161Y-72990597D01*
X89177935Y-71919027D01*
X88569089Y-72183994D01*
X88216163Y-72344798D01*
X87738455Y-72573440D01*
X87173041Y-72851497D01*
X86551052Y-73163129D01*
X85903618Y-73492497D01*
X85261867Y-73823763D01*
X84656931Y-74141088D01*
X84119938Y-74428632D01*
X83682019Y-74670557D01*
X83636906Y-74696040D01*
X83261007Y-74905534D01*
X82928504Y-75086144D01*
X82674006Y-75219329D01*
X82532126Y-75286546D01*
X82476766Y-75312476D01*
X82259841Y-75445169D01*
X81943417Y-75663537D01*
X81549248Y-75951227D01*
X81099087Y-76291887D01*
X80614685Y-76669164D01*
X80117795Y-77066704D01*
X79630170Y-77468155D01*
X78843127Y-78143722D01*
X77966861Y-78946425D01*
X77219608Y-79693597D01*
X76605580Y-80380465D01*
X76128987Y-81002254D01*
X75794039Y-81554193D01*
X75604946Y-82031507D01*
X75568944Y-82168923D01*
X75501193Y-82426906D01*
X75456237Y-82597269D01*
X75402316Y-82688401D01*
X75231708Y-82724269D01*
X75194857Y-82716168D01*
X75062996Y-82597517D01*
X75023456Y-82364648D01*
X75071601Y-82037820D01*
X75202796Y-81637290D01*
X75412404Y-81183315D01*
X75695791Y-80696153D01*
X75854830Y-80470252D01*
X76210400Y-80038179D01*
X76673960Y-79534602D01*
X77227147Y-78976470D01*
X77851596Y-78380733D01*
X78528945Y-77764340D01*
X79240829Y-77144241D01*
X79968885Y-76537385D01*
X80694748Y-75960721D01*
X81400056Y-75431199D01*
X82051739Y-74974464D01*
X83034555Y-74331682D01*
X84116662Y-73668389D01*
X85263290Y-73005131D01*
X86439669Y-72362456D01*
X87611028Y-71760910D01*
X88014158Y-71564842D01*
X88319211Y-71428672D01*
X88526427Y-71356236D01*
X88662065Y-71338457D01*
X88752382Y-71366253D01*
X88853114Y-71410465D01*
X89057321Y-71377213D01*
X89220950Y-71333250D01*
X89451992Y-71341155D01*
X89635198Y-71351702D01*
X89745908Y-71307726D01*
X89801416Y-71262801D01*
X89964243Y-71225833D01*
X90030870Y-71229877D01*
G37*
D11*
%TO.C,SW1*%
X142894099Y-73330796D02*
X142894099Y-71330796D01*
X143944099Y-70030796D02*
X144394099Y-69580796D01*
X143944099Y-74630796D02*
X144394099Y-75080796D01*
X144394099Y-69580796D02*
X146894099Y-69580796D01*
X144394099Y-75080796D02*
X146894099Y-75080796D01*
X147344099Y-70030796D02*
X146894099Y-69580796D01*
X147344099Y-74630796D02*
X146894099Y-75080796D01*
X148394099Y-73330796D02*
X148394099Y-71330796D01*
%TO.C,D101*%
X59022951Y-59303293D02*
X59226144Y-57857502D01*
X59022951Y-59303293D02*
X58102002Y-59173862D01*
X55893704Y-58863506D02*
X56194318Y-56724527D01*
X55893704Y-58863506D02*
X56814653Y-58992937D01*
%TO.C,D102*%
X95392951Y-64443293D02*
X95596144Y-62997502D01*
X95392951Y-64443293D02*
X94472002Y-64313862D01*
X92263704Y-64003506D02*
X92564318Y-61864527D01*
X92263704Y-64003506D02*
X93184653Y-64132937D01*
%TO.C,D103*%
X133112951Y-69753293D02*
X133316144Y-68307502D01*
X133112951Y-69753293D02*
X132192002Y-69623862D01*
X129983704Y-69313506D02*
X130284318Y-67174527D01*
X129983704Y-69313506D02*
X130904653Y-69442937D01*
%TO.C,D104*%
X189434494Y-65333506D02*
X189231301Y-63887715D01*
X189434494Y-65333506D02*
X188513545Y-65462937D01*
X186305247Y-65773293D02*
X186004633Y-63634314D01*
X186305247Y-65773293D02*
X187226196Y-65643862D01*
%TO.C,D105*%
X227164494Y-60033506D02*
X226961301Y-58587715D01*
X227164494Y-60033506D02*
X226243545Y-60162937D01*
X224035247Y-60473293D02*
X223734633Y-58334314D01*
X224035247Y-60473293D02*
X224956196Y-60343862D01*
%TO.C,D106*%
X55415247Y-61948299D02*
X55212054Y-63394090D01*
X55415247Y-61948299D02*
X56336196Y-62077730D01*
X58544494Y-62388086D02*
X58243880Y-64527065D01*
X58544494Y-62388086D02*
X57623545Y-62258655D01*
%TO.C,D107*%
X97765247Y-68998299D02*
X97562054Y-70444090D01*
X97765247Y-68998299D02*
X98686196Y-69127730D01*
X100894494Y-69438086D02*
X100593880Y-71577065D01*
X100894494Y-69438086D02*
X99973545Y-69308655D01*
%TO.C,D109*%
X191612877Y-69258354D02*
X191816070Y-70704145D01*
X191612877Y-69258354D02*
X192533826Y-69128923D01*
X194742124Y-68818567D02*
X195042738Y-70957546D01*
X194742124Y-68818567D02*
X193821175Y-68947998D01*
%TO.C,D110*%
X229323704Y-63968086D02*
X229526897Y-65413877D01*
X229323704Y-63968086D02*
X230244653Y-63838655D01*
X232452951Y-63528299D02*
X232753565Y-65667278D01*
X232452951Y-63528299D02*
X231532002Y-63657730D01*
%TO.C,D111*%
X140014099Y-107190796D02*
X140014099Y-105730796D01*
X140014099Y-107190796D02*
X139084099Y-107190796D01*
X136854099Y-107190796D02*
X136854099Y-105030796D01*
X136854099Y-107190796D02*
X137784099Y-107190796D01*
%TO.C,D112*%
X143614099Y-107200796D02*
X143614099Y-105740796D01*
X143614099Y-107200796D02*
X142684099Y-107200796D01*
X140454099Y-107200796D02*
X140454099Y-105040796D01*
X140454099Y-107200796D02*
X141384099Y-107200796D01*
%TO.C,D113*%
X150850000Y-107190000D02*
X150850000Y-105730000D01*
X150850000Y-107190000D02*
X149920000Y-107190000D01*
X147690000Y-107190000D02*
X147690000Y-105030000D01*
X147690000Y-107190000D02*
X148620000Y-107190000D01*
%TO.C,D114*%
X154480000Y-107200000D02*
X154480000Y-105740000D01*
X154480000Y-107200000D02*
X153550000Y-107200000D01*
X151320000Y-107200000D02*
X151320000Y-105040000D01*
X151320000Y-107200000D02*
X152250000Y-107200000D01*
%TO.C,D115*%
X142790000Y-108710000D02*
X141330000Y-108710000D01*
X142790000Y-108710000D02*
X142790000Y-109640000D01*
X142790000Y-111870000D02*
X140630000Y-111870000D01*
X142790000Y-111870000D02*
X142790000Y-110940000D01*
%TO.C,D116*%
X144050000Y-112630000D02*
X144050000Y-114090000D01*
X144050000Y-112630000D02*
X144980000Y-112630000D01*
X147210000Y-112630000D02*
X147210000Y-114790000D01*
X147210000Y-112630000D02*
X146280000Y-112630000D01*
%TO.C,D117*%
X148510000Y-111870000D02*
X149970000Y-111870000D01*
X148510000Y-111870000D02*
X148510000Y-110940000D01*
X148510000Y-108710000D02*
X150670000Y-108710000D01*
X148510000Y-108710000D02*
X148510000Y-109640000D01*
%TO.C,D118*%
X147224099Y-106190796D02*
X147224099Y-104730796D01*
X147224099Y-106190796D02*
X146294099Y-106190796D01*
X144064099Y-106190796D02*
X144064099Y-104030796D01*
X144064099Y-106190796D02*
X144994099Y-106190796D01*
%TO.C,C2*%
X150485000Y-77728748D02*
X150485000Y-78251252D01*
X149015000Y-77728748D02*
X149015000Y-78251252D01*
%TO.C,C4*%
X146385000Y-77728748D02*
X146385000Y-78251252D01*
X144915000Y-77728748D02*
X144915000Y-78251252D01*
%TO.C,C5*%
X148445000Y-77728748D02*
X148445000Y-78251252D01*
X146975000Y-77728748D02*
X146975000Y-78251252D01*
%TO.C,C6*%
X138755000Y-78221252D02*
X138755000Y-77698748D01*
X140225000Y-78221252D02*
X140225000Y-77698748D01*
%TO.C,C101*%
X152525000Y-77728748D02*
X152525000Y-78251252D01*
X151055000Y-77728748D02*
X151055000Y-78251252D01*
%TO.C,R2*%
X140775000Y-78177064D02*
X140775000Y-77722936D01*
X142245000Y-78177064D02*
X142245000Y-77722936D01*
%TO.C,R3*%
X142745000Y-78197064D02*
X142745000Y-77742936D01*
X144215000Y-78197064D02*
X144215000Y-77742936D01*
%TO.C,R4*%
X150239099Y-73887860D02*
X150239099Y-73433732D01*
X151709099Y-73887860D02*
X151709099Y-73433732D01*
%TO.C,R5*%
X153352936Y-92915000D02*
X153807064Y-92915000D01*
X153352936Y-94385000D02*
X153807064Y-94385000D01*
%TO.C,D108*%
X158749605Y-73477290D02*
X158952798Y-74923081D01*
X158749605Y-73477290D02*
X159670554Y-73347859D01*
X161878852Y-73037503D02*
X162179466Y-75176482D01*
X161878852Y-73037503D02*
X160957903Y-73166934D01*
%TO.C,F101*%
X151944099Y-62898732D02*
X151944099Y-64102860D01*
X150124099Y-62898732D02*
X150124099Y-64102860D01*
%TO.C,L101*%
X139964099Y-61023575D02*
X139964099Y-60698017D01*
X140984099Y-61023575D02*
X140984099Y-60698017D01*
%TO.C,R101*%
X141127035Y-62635796D02*
X141581163Y-62635796D01*
X141127035Y-64105796D02*
X141581163Y-64105796D01*
%TO.C,R102*%
X149549099Y-63233732D02*
X149549099Y-63687860D01*
X148079099Y-63233732D02*
X148079099Y-63687860D01*
D12*
%TO.C,U1*%
X149249099Y-89955796D02*
X149249099Y-89630796D01*
X149249099Y-89955796D02*
X148924099Y-89955796D01*
X149249099Y-82930796D02*
X150674099Y-82930796D01*
X149249099Y-82705796D02*
X149249099Y-82930796D01*
X149249099Y-82705796D02*
X148924099Y-82705796D01*
X141999099Y-89955796D02*
X142324099Y-89955796D01*
X141999099Y-89955796D02*
X141999099Y-89630796D01*
X141999099Y-82705796D02*
X142324099Y-82705796D01*
X141999099Y-82705796D02*
X141999099Y-83030796D01*
D11*
%TO.C,C7*%
X154381252Y-88985000D02*
X153858748Y-88985000D01*
X154381252Y-87515000D02*
X153858748Y-87515000D01*
%TO.C,Y1*%
X155764099Y-83000796D02*
X155764099Y-87000796D01*
X152464099Y-83000796D02*
X155764099Y-83000796D01*
%TO.C,U102*%
X145704099Y-65030796D02*
X146504099Y-65030796D01*
X145704099Y-65030796D02*
X144904099Y-65030796D01*
X145704099Y-61910796D02*
X147504099Y-61910796D01*
X145704099Y-61910796D02*
X144904099Y-61910796D01*
%TO.C,C8*%
X153848748Y-80745000D02*
X154371252Y-80745000D01*
X153848748Y-82215000D02*
X154371252Y-82215000D01*
%TD*%
M02*
