%TF.GenerationSoftware,KiCad,Pcbnew,(6.99.0-222-g367431f825)*%
%TF.CreationDate,2022-01-18T01:02:36+01:00*%
%TF.ProjectId,Adalyn,4164616c-796e-42e6-9b69-6361645f7063,rev?*%
%TF.SameCoordinates,Original*%
%TF.FileFunction,Soldermask,Top*%
%TF.FilePolarity,Negative*%
%FSLAX46Y46*%
G04 Gerber Fmt 4.6, Leading zero omitted, Abs format (unit mm)*
G04 Created by KiCad (PCBNEW (6.99.0-222-g367431f825)) date 2022-01-18 01:02:36*
%MOMM*%
%LPD*%
G01*
G04 APERTURE LIST*
%ADD10C,1.750000*%
%ADD11C,3.987800*%
%ADD12C,3.048000*%
%ADD13C,0.650000*%
%ADD14O,1.000000X1.600000*%
%ADD15O,1.000000X2.100000*%
G04 APERTURE END LIST*
D10*
%TO.C,MX1*%
X42144098Y-52505797D03*
D11*
X47224098Y-52505797D03*
D10*
X52304098Y-52505797D03*
%TD*%
%TO.C,MX2*%
X41858345Y-71555792D03*
D11*
X46938345Y-71555792D03*
D10*
X52018345Y-71555792D03*
%TD*%
%TO.C,MX3*%
X43763349Y-90605792D03*
D11*
X48843349Y-90605792D03*
D10*
X53923349Y-90605792D03*
%TD*%
%TO.C,MX4*%
X62225251Y-52277520D03*
D11*
X67255813Y-52984519D03*
D10*
X72286375Y-53691518D03*
%TD*%
%TO.C,MX5*%
X64290156Y-71804940D03*
D11*
X69320718Y-72511939D03*
D10*
X74351280Y-73218938D03*
%TD*%
%TO.C,MX6*%
X71071211Y-91995168D03*
D11*
X76101773Y-92702167D03*
D10*
X81132335Y-93409166D03*
%TD*%
%TO.C,MX7*%
X81089857Y-54928773D03*
D11*
X86120419Y-55635772D03*
D10*
X91150981Y-56342771D03*
%TD*%
%TO.C,MX8*%
X83154762Y-74456191D03*
D11*
X88185324Y-75163190D03*
D10*
X93215886Y-75870189D03*
%TD*%
%TO.C,MX9*%
X89935815Y-94646422D03*
D11*
X94966377Y-95353421D03*
D10*
X99996939Y-96060420D03*
%TD*%
%TO.C,MX10*%
X38334097Y-109655795D03*
D11*
X43414097Y-109655795D03*
D10*
X48494097Y-109655795D03*
%TD*%
%TO.C,MX11*%
X99954464Y-57580016D03*
D11*
X104985026Y-58287015D03*
D10*
X110015588Y-58994014D03*
%TD*%
%TO.C,MX12*%
X102019370Y-77107435D03*
D11*
X107049932Y-77814434D03*
D10*
X112080494Y-78521433D03*
%TD*%
%TO.C,MX13*%
X108800422Y-97297668D03*
D11*
X113830984Y-98004667D03*
D10*
X118861546Y-98711666D03*
%TD*%
%TO.C,MX15*%
X82568418Y-112848217D03*
D11*
X87598980Y-113555216D03*
D10*
X92629542Y-114262215D03*
%TD*%
%TO.C,MX16*%
X118819071Y-60231264D03*
D11*
X123849633Y-60938263D03*
D10*
X128880195Y-61645262D03*
%TD*%
%TO.C,MX18*%
X127665030Y-99948912D03*
D11*
X132695592Y-100655911D03*
D10*
X137726154Y-101362910D03*
%TD*%
%TO.C,MX19*%
X113223405Y-117156489D03*
D11*
X118253967Y-117863488D03*
D10*
X123284529Y-118570487D03*
%TD*%
%TO.C,MX20*%
X154168297Y-62789310D03*
D11*
X159198859Y-62082311D03*
D10*
X164229421Y-61375312D03*
%TD*%
%TO.C,MX21*%
X161535694Y-80991107D03*
D11*
X166566256Y-80284108D03*
D10*
X171596818Y-79577109D03*
%TD*%
%TO.C,MX22*%
X154754642Y-101181335D03*
D11*
X159785204Y-100474336D03*
D10*
X164815766Y-99767337D03*
%TD*%
%TO.C,MX23*%
X173032907Y-60138066D03*
D11*
X178063469Y-59431067D03*
D10*
X183094031Y-58724068D03*
%TD*%
%TO.C,MX24*%
X180400302Y-78339861D03*
D11*
X185430864Y-77632862D03*
D10*
X190461426Y-76925863D03*
%TD*%
%TO.C,MX25*%
X173619246Y-98530090D03*
D11*
X178649808Y-97823091D03*
D10*
X183680370Y-97116092D03*
%TD*%
%TO.C,MX26*%
X166838194Y-118720319D03*
D11*
X171868756Y-118013320D03*
D10*
X176899318Y-117306321D03*
%TD*%
%TO.C,MX27*%
X191897508Y-57486813D03*
D11*
X196928070Y-56779814D03*
D10*
X201958632Y-56072815D03*
%TD*%
%TO.C,MX28*%
X199264906Y-75688612D03*
D11*
X204295468Y-74981613D03*
D10*
X209326030Y-74274614D03*
%TD*%
%TO.C,MX29*%
X192483856Y-95878838D03*
D11*
X197514418Y-95171839D03*
D10*
X202544980Y-94464840D03*
%TD*%
%TO.C,MX30*%
X195135099Y-114743447D03*
D11*
X200165661Y-114036448D03*
D10*
X205196223Y-113329449D03*
%TD*%
%TO.C,MX32*%
X210762118Y-54835569D03*
D11*
X215792680Y-54128570D03*
D10*
X220823242Y-53421571D03*
%TD*%
%TO.C,MX33*%
X218129515Y-73037366D03*
D11*
X223160077Y-72330367D03*
D10*
X228190639Y-71623368D03*
%TD*%
%TO.C,MX34*%
X211348460Y-93227595D03*
D11*
X216379022Y-92520596D03*
D10*
X221409584Y-91813597D03*
%TD*%
%TO.C,MX35*%
X238930597Y-109655797D03*
D11*
X244010597Y-109655797D03*
D10*
X249090597Y-109655797D03*
%TD*%
%TO.C,MX36*%
X233120348Y-52505797D03*
D11*
X238200348Y-52505797D03*
D10*
X243280348Y-52505797D03*
%TD*%
%TO.C,MX37*%
X238168600Y-71555795D03*
D11*
X243248600Y-71555795D03*
D10*
X248328600Y-71555795D03*
%TD*%
%TO.C,MX38*%
X236073100Y-90605798D03*
D11*
X241153100Y-90605798D03*
D10*
X246233100Y-90605798D03*
%TD*%
%TO.C,MX17*%
X120883974Y-79758687D03*
D11*
X125914536Y-80465686D03*
D10*
X130945098Y-81172685D03*
%TD*%
D12*
%TO.C,REF\u002A\u002A*%
X129072222Y-126437540D03*
D11*
X131193220Y-111345855D03*
D12*
X105491464Y-123123481D03*
D11*
X107612462Y-108031795D03*
%TD*%
D12*
%TO.C,REF\u002A\u002A*%
X184631259Y-123273313D03*
D11*
X182510261Y-108181627D03*
D12*
X161050501Y-126587372D03*
D11*
X158929503Y-111495687D03*
%TD*%
D13*
%TO.C,USB101*%
X142714099Y-57220796D03*
X148494099Y-57220796D03*
D14*
X141284099Y-53570796D03*
D15*
X141284099Y-57750796D03*
D14*
X149924099Y-53570796D03*
D15*
X149924099Y-57750796D03*
%TD*%
M02*
