M48
; DRILL file {KiCad (6.99.0-222-g367431f825)} date Sun 16 Jan 2022 12:47:29 AM CET
; FORMAT={-:-/ absolute / metric / decimal}
; #@! TF.CreationDate,2022-01-16T00:47:29+01:00
; #@! TF.GenerationSoftware,Kicad,Pcbnew,(6.99.0-222-g367431f825)
; #@! TF.FileFunction,NonPlated,1,2,NPTH
FMAT,2
METRIC
; #@! TA.AperFunction,NonPlated,NPTH,ComponentDrill
T1C0.650
; #@! TA.AperFunction,NonPlated,NPTH,ComponentDrill
T2C1.750
; #@! TA.AperFunction,NonPlated,NPTH,ComponentDrill
T3C3.048
; #@! TA.AperFunction,NonPlated,NPTH,ComponentDrill
T4C3.988
%
G90
G05
T1
X142.714Y-57.221
X148.494Y-57.221
T2
X38.334Y-109.656
X41.858Y-71.556
X42.144Y-52.506
X43.763Y-90.606
X48.494Y-109.656
X52.018Y-71.556
X52.304Y-52.506
X53.923Y-90.606
X62.225Y-52.278
X64.29Y-71.805
X71.071Y-91.995
X72.286Y-53.692
X74.351Y-73.219
X81.09Y-54.929
X81.132Y-93.409
X82.568Y-112.848
X83.155Y-74.456
X89.936Y-94.646
X91.151Y-56.343
X92.63Y-114.262
X93.216Y-75.87
X99.954Y-57.58
X99.997Y-96.06
X102.019Y-77.107
X108.8Y-97.298
X110.016Y-58.994
X112.08Y-78.521
X113.223Y-117.156
X118.819Y-60.231
X118.862Y-98.712
X120.884Y-79.759
X123.285Y-118.57
X127.665Y-99.949
X128.88Y-61.645
X130.945Y-81.173
X137.726Y-101.363
X154.168Y-62.789
X154.755Y-101.181
X161.536Y-80.991
X164.229Y-61.375
X164.816Y-99.767
X166.838Y-118.72
X171.597Y-79.577
X173.033Y-60.138
X173.619Y-98.53
X176.899Y-117.306
X180.4Y-78.34
X183.094Y-58.724
X183.68Y-97.116
X190.461Y-76.926
X191.898Y-57.487
X192.484Y-95.879
X195.135Y-114.743
X199.265Y-75.689
X201.959Y-56.073
X202.545Y-94.465
X205.196Y-113.329
X209.326Y-74.275
X210.762Y-54.836
X211.348Y-93.228
X218.13Y-73.037
X220.823Y-53.422
X221.41Y-91.814
X228.191Y-71.623
X233.12Y-52.506
X236.073Y-90.606
X238.169Y-71.556
X238.931Y-109.656
X243.28Y-52.506
X246.233Y-90.606
X248.329Y-71.556
X249.091Y-109.656
T3
X105.491Y-123.123
X129.072Y-126.438
X161.051Y-126.587
X184.631Y-123.273
T4
X43.414Y-109.656
X46.938Y-71.556
X47.224Y-52.506
X48.843Y-90.606
X67.256Y-52.985
X69.321Y-72.512
X76.102Y-92.702
X86.12Y-55.636
X87.599Y-113.555
X88.185Y-75.163
X94.966Y-95.353
X104.985Y-58.287
X107.05Y-77.814
X107.612Y-108.032
X113.831Y-98.005
X118.254Y-117.863
X123.85Y-60.938
X125.915Y-80.466
X131.193Y-111.346
X132.696Y-100.656
X158.93Y-111.496
X159.199Y-62.082
X159.785Y-100.474
X166.566Y-80.284
X171.869Y-118.013
X178.063Y-59.431
X178.65Y-97.823
X182.51Y-108.182
X185.431Y-77.633
X196.928Y-56.78
X197.514Y-95.172
X200.166Y-114.036
X204.295Y-74.982
X215.793Y-54.129
X216.379Y-92.521
X223.16Y-72.33
X238.2Y-52.506
X241.153Y-90.606
X243.249Y-71.556
X244.011Y-109.656
T0
M30
