M48
; DRILL file {KiCad (6.99.0-222-g367431f825)} date Sun 16 Jan 2022 12:47:29 AM CET
; FORMAT={-:-/ absolute / metric / decimal}
; #@! TF.CreationDate,2022-01-16T00:47:29+01:00
; #@! TF.GenerationSoftware,Kicad,Pcbnew,(6.99.0-222-g367431f825)
; #@! TF.FileFunction,Plated,1,2,PTH
FMAT,2
METRIC
; #@! TA.AperFunction,Plated,PTH,ViaDrill
T1C0.400
; #@! TA.AperFunction,Plated,PTH,ComponentDrill
T2C0.600
; #@! TA.AperFunction,Plated,PTH,ComponentDrill
T3C1.524
%
G90
G05
T1
X91.97Y-58.42
X105.57Y-52.72
X120.75Y-115.69
X124.73Y-55.48
X137.745Y-90.915
X138.64Y-91.47
X139.51Y-91.97
X139.785Y-86.74
X140.28Y-92.75
X141.78Y-65.64
X142.004Y-67.891
X142.104Y-66.741
X143.144Y-83.541
X143.214Y-68.751
X143.604Y-60.196
X143.64Y-92.15
X144.385Y-65.485
X145.204Y-83.701
X145.63Y-108.0
X146.04Y-87.76
X146.83Y-89.14
X146.842Y-61.503
X147.654Y-75.181
X147.71Y-80.18
X147.724Y-66.731
X147.734Y-67.891
X148.474Y-85.131
X148.604Y-60.221
X148.836Y-72.843
X148.994Y-68.751
X150.94Y-92.75
X151.469Y-86.731
X151.7Y-92.01
X152.56Y-91.48
X153.41Y-90.95
X153.67Y-65.96
X163.8Y-55.88
X165.28Y-116.94
T3
X39.604Y-107.116
X43.128Y-69.016
X43.414Y-49.966
X45.033Y-88.066
X45.954Y-104.576
X49.478Y-66.476
X49.764Y-47.426
X51.383Y-85.526
X63.836Y-49.939
X65.901Y-69.466
X70.478Y-48.307
X72.543Y-67.835
X72.682Y-89.657
X79.324Y-88.025
X82.701Y-52.59
X84.18Y-110.51
X84.766Y-72.118
X89.343Y-50.959
X90.821Y-108.878
X91.408Y-70.486
X91.547Y-92.308
X98.189Y-90.676
X101.566Y-55.241
X103.631Y-74.769
X108.207Y-53.61
X110.272Y-73.137
X110.412Y-94.959
X114.835Y-114.818
X117.053Y-93.328
X120.43Y-57.893
X121.476Y-113.186
X122.495Y-77.42
X127.072Y-56.261
X129.137Y-75.789
X129.276Y-97.61
X135.918Y-95.979
X155.072Y-60.097
X155.659Y-98.489
X161.007Y-56.698
X161.593Y-95.09
X162.44Y-78.299
X167.742Y-116.028
X168.375Y-74.9
X173.677Y-112.629
X173.937Y-57.446
X174.523Y-95.838
X179.872Y-54.047
X180.458Y-92.439
X181.304Y-75.648
X187.239Y-72.249
X192.802Y-54.795
X193.388Y-93.187
X196.039Y-112.051
X198.736Y-51.396
X199.323Y-89.788
X200.169Y-72.997
X201.974Y-108.652
X206.104Y-69.598
X211.666Y-52.144
X212.253Y-90.536
X217.601Y-48.745
X218.187Y-87.137
X219.034Y-70.345
X224.968Y-66.946
X234.39Y-49.966
X237.343Y-88.066
X239.439Y-69.016
X240.201Y-107.116
X240.74Y-47.426
X243.693Y-85.526
X245.789Y-66.476
X246.551Y-104.576
T2
G00X141.284Y-53.271
M15
G01X141.284Y-53.871
M16
G05
G00X141.284Y-57.201
M15
G01X141.284Y-58.301
M16
G05
G00X149.924Y-53.271
M15
G01X149.924Y-53.871
M16
G05
G00X149.924Y-57.201
M15
G01X149.924Y-58.301
M16
G05
T0
M30
