%TF.GenerationSoftware,KiCad,Pcbnew,(6.99.0-222-g367431f825)*%
%TF.CreationDate,2022-01-17T23:29:45+01:00*%
%TF.ProjectId,Adalyn,4164616c-796e-42e6-9b69-6361645f7063,rev?*%
%TF.SameCoordinates,Original*%
%TF.FileFunction,Soldermask,Bot*%
%TF.FilePolarity,Negative*%
%FSLAX46Y46*%
G04 Gerber Fmt 4.6, Leading zero omitted, Abs format (unit mm)*
G04 Created by KiCad (PCBNEW (6.99.0-222-g367431f825)) date 2022-01-17 23:29:45*
%MOMM*%
%LPD*%
G01*
G04 APERTURE LIST*
G04 Aperture macros list*
%AMRoundRect*
0 Rectangle with rounded corners*
0 $1 Rounding radius*
0 $2 $3 $4 $5 $6 $7 $8 $9 X,Y pos of 4 corners*
0 Add a 4 corners polygon primitive as box body*
4,1,4,$2,$3,$4,$5,$6,$7,$8,$9,$2,$3,0*
0 Add four circle primitives for the rounded corners*
1,1,$1+$1,$2,$3*
1,1,$1+$1,$4,$5*
1,1,$1+$1,$6,$7*
1,1,$1+$1,$8,$9*
0 Add four rect primitives between the rounded corners*
20,1,$1+$1,$2,$3,$4,$5,0*
20,1,$1+$1,$4,$5,$6,$7,0*
20,1,$1+$1,$6,$7,$8,$9,0*
20,1,$1+$1,$8,$9,$2,$3,0*%
%AMRotRect*
0 Rectangle, with rotation*
0 The origin of the aperture is its center*
0 $1 length*
0 $2 width*
0 $3 Rotation angle, in degrees counterclockwise*
0 Add horizontal line*
21,1,$1,$2,0,0,$3*%
G04 Aperture macros list end*
%ADD10C,1.750000*%
%ADD11C,3.987800*%
%ADD12C,2.300000*%
%ADD13C,3.048000*%
%ADD14R,1.700000X1.000000*%
%ADD15RotRect,0.900000X0.800000X262.000000*%
%ADD16RotRect,0.900000X0.800000X278.000000*%
%ADD17RotRect,0.900000X0.800000X82.000000*%
%ADD18RotRect,0.900000X0.800000X98.000000*%
%ADD19R,0.800000X0.900000*%
%ADD20R,0.900000X0.800000*%
%ADD21RoundRect,0.250000X-0.475000X0.250000X-0.475000X-0.250000X0.475000X-0.250000X0.475000X0.250000X0*%
%ADD22RoundRect,0.250000X0.475000X-0.250000X0.475000X0.250000X-0.475000X0.250000X-0.475000X-0.250000X0*%
%ADD23RoundRect,0.250000X0.450000X-0.262500X0.450000X0.262500X-0.450000X0.262500X-0.450000X-0.262500X0*%
%ADD24RoundRect,0.250000X-0.262500X-0.450000X0.262500X-0.450000X0.262500X0.450000X-0.262500X0.450000X0*%
%ADD25RoundRect,0.250000X-0.625000X0.375000X-0.625000X-0.375000X0.625000X-0.375000X0.625000X0.375000X0*%
%ADD26RoundRect,0.218750X0.256250X-0.218750X0.256250X0.218750X-0.256250X0.218750X-0.256250X-0.218750X0*%
%ADD27RoundRect,0.250000X-0.450000X0.262500X-0.450000X-0.262500X0.450000X-0.262500X0.450000X0.262500X0*%
%ADD28C,0.650000*%
%ADD29R,0.600000X1.450000*%
%ADD30R,0.300000X1.450000*%
%ADD31O,1.000000X1.600000*%
%ADD32O,1.000000X2.100000*%
%ADD33R,1.600000X0.550000*%
%ADD34R,0.550000X1.600000*%
%ADD35RoundRect,0.250000X0.250000X0.475000X-0.250000X0.475000X-0.250000X-0.475000X0.250000X-0.475000X0*%
%ADD36R,1.200000X1.400000*%
%ADD37RoundRect,0.150000X0.512500X0.150000X-0.512500X0.150000X-0.512500X-0.150000X0.512500X-0.150000X0*%
%ADD38RoundRect,0.250000X-0.250000X-0.475000X0.250000X-0.475000X0.250000X0.475000X-0.250000X0.475000X0*%
G04 APERTURE END LIST*
D10*
%TO.C,MX1*%
X42144098Y-52505797D03*
D11*
X47224098Y-52505797D03*
D10*
X52304098Y-52505797D03*
D12*
X43414098Y-49965797D03*
X49764098Y-47425797D03*
%TD*%
D10*
%TO.C,MX2*%
X41858345Y-71555792D03*
D11*
X46938345Y-71555792D03*
D10*
X52018345Y-71555792D03*
D12*
X43128345Y-69015792D03*
X49478345Y-66475792D03*
%TD*%
D10*
%TO.C,MX3*%
X43763349Y-90605792D03*
D11*
X48843349Y-90605792D03*
D10*
X53923349Y-90605792D03*
D12*
X45033349Y-88065792D03*
X51383349Y-85525792D03*
%TD*%
D10*
%TO.C,MX4*%
X62225251Y-52277520D03*
D11*
X67255813Y-52984519D03*
D10*
X72286375Y-53691518D03*
D12*
X63836391Y-49938989D03*
X70478093Y-48307457D03*
%TD*%
D10*
%TO.C,MX5*%
X64290156Y-71804940D03*
D11*
X69320718Y-72511939D03*
D10*
X74351280Y-73218938D03*
D12*
X65901296Y-69466409D03*
X72542998Y-67834877D03*
%TD*%
D10*
%TO.C,MX6*%
X71071211Y-91995168D03*
D11*
X76101773Y-92702167D03*
D10*
X81132335Y-93409166D03*
D12*
X72682351Y-89656637D03*
X79324053Y-88025105D03*
%TD*%
D10*
%TO.C,MX7*%
X81089857Y-54928773D03*
D11*
X86120419Y-55635772D03*
D10*
X91150981Y-56342771D03*
D12*
X82700997Y-52590242D03*
X89342699Y-50958710D03*
%TD*%
D10*
%TO.C,MX8*%
X83154762Y-74456191D03*
D11*
X88185324Y-75163190D03*
D10*
X93215886Y-75870189D03*
D12*
X84765902Y-72117660D03*
X91407604Y-70486128D03*
%TD*%
D10*
%TO.C,MX9*%
X89935815Y-94646422D03*
D11*
X94966377Y-95353421D03*
D10*
X99996939Y-96060420D03*
D12*
X91546955Y-92307891D03*
X98188657Y-90676359D03*
%TD*%
D10*
%TO.C,MX10*%
X38334097Y-109655795D03*
D11*
X43414097Y-109655795D03*
D10*
X48494097Y-109655795D03*
D12*
X39604097Y-107115795D03*
X45954097Y-104575795D03*
%TD*%
D10*
%TO.C,MX11*%
X99954464Y-57580016D03*
D11*
X104985026Y-58287015D03*
D10*
X110015588Y-58994014D03*
D12*
X101565604Y-55241485D03*
X108207306Y-53609953D03*
%TD*%
D10*
%TO.C,MX12*%
X102019370Y-77107435D03*
D11*
X107049932Y-77814434D03*
D10*
X112080494Y-78521433D03*
D12*
X103630510Y-74768904D03*
X110272212Y-73137372D03*
%TD*%
D10*
%TO.C,MX13*%
X108800422Y-97297668D03*
D11*
X113830984Y-98004667D03*
D10*
X118861546Y-98711666D03*
D12*
X110411562Y-94959137D03*
X117053264Y-93327605D03*
%TD*%
D10*
%TO.C,MX15*%
X82568418Y-112848217D03*
D11*
X87598980Y-113555216D03*
D10*
X92629542Y-114262215D03*
D12*
X84179558Y-110509686D03*
X90821260Y-108878154D03*
%TD*%
D10*
%TO.C,MX16*%
X118819071Y-60231264D03*
D11*
X123849633Y-60938263D03*
D10*
X128880195Y-61645262D03*
D12*
X120430211Y-57892733D03*
X127071913Y-56261201D03*
%TD*%
D10*
%TO.C,MX18*%
X127665030Y-99948912D03*
D11*
X132695592Y-100655911D03*
D10*
X137726154Y-101362910D03*
D12*
X129276170Y-97610381D03*
X135917872Y-95978849D03*
%TD*%
D10*
%TO.C,MX19*%
X113223405Y-117156489D03*
D11*
X118253967Y-117863488D03*
D10*
X123284529Y-118570487D03*
D12*
X114834545Y-114817958D03*
X121476247Y-113186426D03*
%TD*%
D10*
%TO.C,MX20*%
X154168297Y-62789310D03*
D11*
X159198859Y-62082311D03*
D10*
X164229421Y-61375312D03*
D12*
X155072438Y-60097280D03*
X161007141Y-56698250D03*
%TD*%
D10*
%TO.C,MX21*%
X161535694Y-80991107D03*
D11*
X166566256Y-80284108D03*
D10*
X171596818Y-79577109D03*
D12*
X162439835Y-78299077D03*
X168374538Y-74900047D03*
%TD*%
D10*
%TO.C,MX22*%
X154754642Y-101181335D03*
D11*
X159785204Y-100474336D03*
D10*
X164815766Y-99767337D03*
D12*
X155658783Y-98489305D03*
X161593486Y-95090275D03*
%TD*%
D10*
%TO.C,MX23*%
X173032907Y-60138066D03*
D11*
X178063469Y-59431067D03*
D10*
X183094031Y-58724068D03*
D12*
X173937048Y-57446036D03*
X179871751Y-54047006D03*
%TD*%
D10*
%TO.C,MX24*%
X180400302Y-78339861D03*
D11*
X185430864Y-77632862D03*
D10*
X190461426Y-76925863D03*
D12*
X181304443Y-75647831D03*
X187239146Y-72248801D03*
%TD*%
D10*
%TO.C,MX25*%
X173619246Y-98530090D03*
D11*
X178649808Y-97823091D03*
D10*
X183680370Y-97116092D03*
D12*
X174523387Y-95838060D03*
X180458090Y-92439030D03*
%TD*%
D10*
%TO.C,MX26*%
X166838194Y-118720319D03*
D11*
X171868756Y-118013320D03*
D10*
X176899318Y-117306321D03*
D12*
X167742335Y-116028289D03*
X173677038Y-112629259D03*
%TD*%
D10*
%TO.C,MX27*%
X191897508Y-57486813D03*
D11*
X196928070Y-56779814D03*
D10*
X201958632Y-56072815D03*
D12*
X192801649Y-54794783D03*
X198736352Y-51395753D03*
%TD*%
D10*
%TO.C,MX28*%
X199264906Y-75688612D03*
D11*
X204295468Y-74981613D03*
D10*
X209326030Y-74274614D03*
D12*
X200169047Y-72996582D03*
X206103750Y-69597552D03*
%TD*%
D10*
%TO.C,MX29*%
X192483856Y-95878838D03*
D11*
X197514418Y-95171839D03*
D10*
X202544980Y-94464840D03*
D12*
X193387997Y-93186808D03*
X199322700Y-89787778D03*
%TD*%
D10*
%TO.C,MX30*%
X195135099Y-114743447D03*
D11*
X200165661Y-114036448D03*
D10*
X205196223Y-113329449D03*
D12*
X196039240Y-112051417D03*
X201973943Y-108652387D03*
%TD*%
D10*
%TO.C,MX32*%
X210762118Y-54835569D03*
D11*
X215792680Y-54128570D03*
D10*
X220823242Y-53421571D03*
D12*
X211666259Y-52143539D03*
X217600962Y-48744509D03*
%TD*%
D10*
%TO.C,MX33*%
X218129515Y-73037366D03*
D11*
X223160077Y-72330367D03*
D10*
X228190639Y-71623368D03*
D12*
X219033656Y-70345336D03*
X224968359Y-66946306D03*
%TD*%
D10*
%TO.C,MX34*%
X211348460Y-93227595D03*
D11*
X216379022Y-92520596D03*
D10*
X221409584Y-91813597D03*
D12*
X212252601Y-90535565D03*
X218187304Y-87136535D03*
%TD*%
D10*
%TO.C,MX35*%
X238930597Y-109655797D03*
D11*
X244010597Y-109655797D03*
D10*
X249090597Y-109655797D03*
D12*
X240200597Y-107115797D03*
X246550597Y-104575797D03*
%TD*%
D10*
%TO.C,MX36*%
X233120348Y-52505797D03*
D11*
X238200348Y-52505797D03*
D10*
X243280348Y-52505797D03*
D12*
X234390348Y-49965797D03*
X240740348Y-47425797D03*
%TD*%
D10*
%TO.C,MX37*%
X238168600Y-71555795D03*
D11*
X243248600Y-71555795D03*
D10*
X248328600Y-71555795D03*
D12*
X239438600Y-69015795D03*
X245788600Y-66475795D03*
%TD*%
D10*
%TO.C,MX38*%
X236073100Y-90605798D03*
D11*
X241153100Y-90605798D03*
D10*
X246233100Y-90605798D03*
D12*
X237343100Y-88065798D03*
X243693100Y-85525798D03*
%TD*%
D10*
%TO.C,MX17*%
X120883974Y-79758687D03*
D11*
X125914536Y-80465686D03*
D10*
X130945098Y-81172685D03*
D12*
X122495114Y-77420156D03*
X129136816Y-75788624D03*
%TD*%
D13*
%TO.C,REF\u002A\u002A*%
X129072222Y-126437540D03*
D11*
X131193220Y-111345855D03*
D13*
X105491464Y-123123481D03*
D11*
X107612462Y-108031795D03*
%TD*%
D13*
%TO.C,REF\u002A\u002A*%
X184631259Y-123273313D03*
D11*
X182510261Y-108181627D03*
D13*
X161050501Y-126587372D03*
D11*
X158929503Y-111495687D03*
%TD*%
D14*
%TO.C,SW1*%
X142494099Y-74230796D03*
X148794099Y-74230796D03*
X142494099Y-70430796D03*
X148794099Y-70430796D03*
%TD*%
D15*
%TO.C,D101*%
X58644027Y-57472742D03*
X56762517Y-57208313D03*
X57424926Y-59321064D03*
%TD*%
%TO.C,D102*%
X95014027Y-62612742D03*
X93132517Y-62348313D03*
X93794926Y-64461064D03*
%TD*%
%TO.C,D103*%
X132734027Y-67922742D03*
X130852517Y-67658313D03*
X131514926Y-69771064D03*
%TD*%
D16*
%TO.C,D104*%
X188565681Y-63678313D03*
X186684171Y-63942742D03*
X187903272Y-65791064D03*
%TD*%
%TO.C,D105*%
X226295681Y-58378313D03*
X224414171Y-58642742D03*
X225633272Y-60491064D03*
%TD*%
D17*
%TO.C,D106*%
X55794171Y-63778850D03*
X57675681Y-64043279D03*
X57013272Y-61930528D03*
%TD*%
%TO.C,D107*%
X98144171Y-70828850D03*
X100025681Y-71093279D03*
X99363272Y-68980528D03*
%TD*%
D18*
%TO.C,D109*%
X192481690Y-70913547D03*
X194363200Y-70649118D03*
X193144099Y-68800796D03*
%TD*%
%TO.C,D110*%
X230192517Y-65623279D03*
X232074027Y-65358850D03*
X230854926Y-63510528D03*
%TD*%
D19*
%TO.C,D111*%
X139384099Y-105430796D03*
X137484099Y-105430796D03*
X138434099Y-107430796D03*
%TD*%
%TO.C,D112*%
X142984099Y-105440796D03*
X141084099Y-105440796D03*
X142034099Y-107440796D03*
%TD*%
%TO.C,D113*%
X150220000Y-105430000D03*
X148320000Y-105430000D03*
X149270000Y-107430000D03*
%TD*%
%TO.C,D114*%
X153850000Y-105440000D03*
X151950000Y-105440000D03*
X152900000Y-107440000D03*
%TD*%
D20*
%TO.C,D115*%
X141030000Y-109340000D03*
X141030000Y-111240000D03*
X143030000Y-110290000D03*
%TD*%
D19*
%TO.C,D116*%
X144680000Y-114390000D03*
X146580000Y-114390000D03*
X145630000Y-112390000D03*
%TD*%
D20*
%TO.C,D117*%
X150270000Y-111240000D03*
X150270000Y-109340000D03*
X148270000Y-110290000D03*
%TD*%
D19*
%TO.C,D118*%
X146594099Y-104430796D03*
X144694099Y-104430796D03*
X145644099Y-106430796D03*
%TD*%
D21*
%TO.C,C2*%
X149750000Y-77040000D03*
X149750000Y-78940000D03*
%TD*%
%TO.C,C4*%
X145650000Y-77040000D03*
X145650000Y-78940000D03*
%TD*%
%TO.C,C5*%
X147710000Y-77040000D03*
X147710000Y-78940000D03*
%TD*%
D22*
%TO.C,C6*%
X139490000Y-78910000D03*
X139490000Y-77010000D03*
%TD*%
D21*
%TO.C,C101*%
X151790000Y-77040000D03*
X151790000Y-78940000D03*
%TD*%
D23*
%TO.C,R2*%
X141510000Y-78862500D03*
X141510000Y-77037500D03*
%TD*%
%TO.C,R3*%
X143480000Y-78882500D03*
X143480000Y-77057500D03*
%TD*%
%TO.C,R4*%
X150974099Y-74573296D03*
X150974099Y-72748296D03*
%TD*%
D24*
%TO.C,R5*%
X152667500Y-93650000D03*
X154492500Y-93650000D03*
%TD*%
D18*
%TO.C,D108*%
X159618418Y-75132483D03*
X161499928Y-74868054D03*
X160280827Y-73019732D03*
%TD*%
D25*
%TO.C,F101*%
X151034099Y-62100796D03*
X151034099Y-64900796D03*
%TD*%
D26*
%TO.C,L101*%
X140474099Y-61648296D03*
X140474099Y-60073296D03*
%TD*%
D24*
%TO.C,R101*%
X140441599Y-63370796D03*
X142266599Y-63370796D03*
%TD*%
D27*
%TO.C,R102*%
X148814099Y-62548296D03*
X148814099Y-64373296D03*
%TD*%
D28*
%TO.C,USB101*%
X142714099Y-57220796D03*
X148494099Y-57220796D03*
D29*
X142379099Y-58665796D03*
X143154099Y-58665796D03*
D30*
X143854099Y-58665796D03*
X144354099Y-58665796D03*
X144854099Y-58665796D03*
X145354099Y-58665796D03*
X145854099Y-58665796D03*
X146354099Y-58665796D03*
X146854099Y-58665796D03*
X147354099Y-58665796D03*
D29*
X148054099Y-58665796D03*
X148829099Y-58665796D03*
D31*
X141284099Y-53570796D03*
D32*
X141284099Y-57750796D03*
D31*
X149924099Y-53570796D03*
D32*
X149924099Y-57750796D03*
%TD*%
D33*
%TO.C,U1*%
X149874099Y-83530796D03*
X149874099Y-84330796D03*
X149874099Y-85130796D03*
X149874099Y-85930796D03*
X149874099Y-86730796D03*
X149874099Y-87530796D03*
X149874099Y-88330796D03*
X149874099Y-89130796D03*
D34*
X148424099Y-90580796D03*
X147624099Y-90580796D03*
X146824099Y-90580796D03*
X146024099Y-90580796D03*
X145224099Y-90580796D03*
X144424099Y-90580796D03*
X143624099Y-90580796D03*
X142824099Y-90580796D03*
D33*
X141374099Y-89130796D03*
X141374099Y-88330796D03*
X141374099Y-87530796D03*
X141374099Y-86730796D03*
X141374099Y-85930796D03*
X141374099Y-85130796D03*
X141374099Y-84330796D03*
X141374099Y-83530796D03*
D34*
X142824099Y-82080796D03*
X143624099Y-82080796D03*
X144424099Y-82080796D03*
X145224099Y-82080796D03*
X146024099Y-82080796D03*
X146824099Y-82080796D03*
X147624099Y-82080796D03*
X148424099Y-82080796D03*
%TD*%
D35*
%TO.C,C7*%
X155070000Y-88250000D03*
X153170000Y-88250000D03*
%TD*%
D36*
%TO.C,Y1*%
X154964099Y-83900796D03*
X154964099Y-86100796D03*
X153264099Y-86100796D03*
X153264099Y-83900796D03*
%TD*%
D37*
%TO.C,U102*%
X146841599Y-62520796D03*
X146841599Y-63470796D03*
X146841599Y-64420796D03*
X144566599Y-64420796D03*
X144566599Y-63470796D03*
X144566599Y-62520796D03*
%TD*%
D38*
%TO.C,C8*%
X153160000Y-81480000D03*
X155060000Y-81480000D03*
%TD*%
M02*
