%TF.GenerationSoftware,KiCad,Pcbnew,(5.1.6-0-10_14)*%
%TF.CreationDate,2021-08-16T20:21:43-05:00*%
%TF.ProjectId,Adalyn,4164616c-796e-42e6-9b69-6361645f7063,rev?*%
%TF.SameCoordinates,Original*%
%TF.FileFunction,Profile,NP*%
%FSLAX46Y46*%
G04 Gerber Fmt 4.6, Leading zero omitted, Abs format (unit mm)*
G04 Created by KiCad (PCBNEW (5.1.6-0-10_14)) date 2021-08-16 20:21:43*
%MOMM*%
%LPD*%
G01*
G04 APERTURE LIST*
%TA.AperFunction,Profile*%
%ADD10C,0.050000*%
%TD*%
G04 APERTURE END LIST*
D10*
X232164099Y-118455796D02*
X155655490Y-129274663D01*
X250651491Y-117971664D02*
X232164099Y-118455796D01*
X59194099Y-118665796D02*
X135716491Y-129274664D01*
X37660138Y-117772026D02*
X59194099Y-118665796D01*
X44454412Y-44122352D02*
X42849578Y-44017762D01*
X57738491Y-43930664D02*
X53581817Y-44219985D01*
X45155690Y-44429417D02*
G75*
G03*
X44454412Y-44122352I-721277J-692934D01*
G01*
X45155690Y-44429417D02*
G75*
G03*
X52899578Y-44507762I3935554J6248241D01*
G01*
X52899578Y-44507762D02*
G75*
G02*
X53581817Y-44219985I702238J-712223D01*
G01*
X243181645Y-44140154D02*
X247095489Y-43930665D01*
X224362491Y-44565663D02*
X234118032Y-44147888D01*
X242499578Y-44427762D02*
G75*
G02*
X234852961Y-44491777I-3875081J6152229D01*
G01*
X234852962Y-44491777D02*
G75*
G03*
X234118032Y-44147888I-754929J-656110D01*
G01*
X242499578Y-44427762D02*
G75*
G02*
X243181645Y-44140154I702066J-712392D01*
G01*
X140514099Y-55095797D02*
X134319491Y-55106664D01*
X150514099Y-55095797D02*
X155655491Y-55106663D01*
X150514099Y-52455796D02*
X150514099Y-55095797D01*
X140514099Y-52455796D02*
X150514099Y-52455796D01*
X140514099Y-55095797D02*
X140514099Y-52455796D01*
X247095490Y-43930664D02*
G75*
G02*
X250016491Y-46851663I1J-2921000D01*
G01*
X253108337Y-115050663D02*
G75*
G02*
X250651491Y-117971664I-2964846J0D01*
G01*
X37660138Y-117772026D02*
G75*
G02*
X35386492Y-114923664I647354J2848363D01*
G01*
X40168249Y-46851663D02*
G75*
G02*
X42849578Y-44017762I2838242J0D01*
G01*
X135716491Y-129274664D02*
X155655490Y-129274663D01*
X155655491Y-55106663D02*
X224362491Y-44565663D01*
X40168249Y-46851663D02*
X35386492Y-114923664D01*
X134319491Y-55106664D02*
X57738491Y-43930664D01*
X253108336Y-115050664D02*
X250016491Y-46851663D01*
M02*
