M48
; DRILL file {KiCad (5.1.6-0-10_14)} date Monday, August 16, 2021 at 08:21:47 PM
; FORMAT={-:-/ absolute / inch / decimal}
; #@! TF.CreationDate,2021-08-16T20:21:47-05:00
; #@! TF.GenerationSoftware,Kicad,Pcbnew,(5.1.6-0-10_14)
; #@! TF.FileFunction,Plated,1,2,PTH
FMAT,2
INCH
T1C0.0157
T2C0.0236
T3C0.0579
%
G90
G05
T1
X5.2724Y-2.4004
X5.2936Y-2.2598
X5.3232Y-4.4346
X5.3932Y-4.3496
X5.4082Y-2.9742
X5.412Y-3.1186
X5.4197Y-2.557
X5.4334Y-2.3806
X5.5006Y-3.2878
X5.5539Y-2.4153
X5.5609Y-2.3748
X5.5654Y-2.5073
X5.6249Y-3.6384
X5.6299Y-2.6582
X5.6482Y-4.3396
X5.6532Y-4.4346
X5.6559Y-2.3708
X5.7329Y-2.4182
X5.762Y-2.4474
X5.7803Y-2.1637
X5.8114Y-4.36
X5.8583Y-2.3826
X5.859Y-3.0437
X5.8657Y-2.8629
X5.8949Y-3.5034
X5.9603Y-3.6998
X5.9649Y-3.4384
X6.0346Y-2.9255
X6.077Y-2.9003
X6.1183Y-2.9003
X6.1558Y-3.3475
X6.1611Y-2.9569
X6.1975Y-2.9885
T3
X4.3469Y-3.7385
X4.6084Y-3.6743
X9.4567Y-4.2172
X9.7067Y-4.1172
X2.8615Y-3.5298
X3.123Y-3.4656
X4.8226Y-3.048
X5.0841Y-2.9838
X7.6137Y-3.6688
X7.8474Y-3.535
X6.3953Y-3.0826
X6.6289Y-2.9488
X1.5592Y-4.2172
X1.8092Y-4.1172
X1.773Y-3.4672
X2.023Y-3.3672
X6.871Y-3.7732
X7.1046Y-3.6393
X9.3442Y-3.4672
X9.5942Y-3.3672
X4.0799Y-2.9437
X4.3414Y-2.8794
X8.3564Y-3.5644
X8.5901Y-3.4306
X2.5945Y-2.7349
X2.856Y-2.6707
X4.7413Y-2.2792
X5.0028Y-2.215
X9.4267Y-2.7172
X9.6767Y-2.6172
X4.521Y-4.5204
X4.7825Y-4.4562
X7.8807Y-2.8739
X8.1143Y-2.7401
X6.1052Y-2.366
X6.3389Y-2.2322
X3.6042Y-3.6342
X3.8657Y-3.5699
X7.7181Y-4.4115
X7.9517Y-4.2777
X1.698Y-2.7172
X1.948Y-2.6172
X8.6234Y-2.7695
X8.857Y-2.6357
X7.138Y-2.9783
X7.3716Y-2.8444
X6.1283Y-3.8775
X6.3619Y-3.7437
X3.3142Y-4.3508
X3.5756Y-4.2865
X9.228Y-1.9672
X9.478Y-1.8672
X3.2559Y-2.0705
X3.5174Y-2.0062
X5.0896Y-3.8429
X5.3511Y-3.7787
X3.3372Y-2.8393
X3.5987Y-2.775
X1.7092Y-1.9672
X1.9592Y-1.8672
X8.3333Y-2.0529
X8.567Y-1.9191
X3.9986Y-2.1749
X4.2601Y-2.1106
X2.5132Y-1.9661
X2.7747Y-1.9019
X6.8479Y-2.2617
X7.0816Y-2.1278
X7.5906Y-2.1573
X7.8243Y-2.0235
X6.604Y-4.568
X6.8377Y-4.4342
T2
G00X5.5624Y-2.0973
M15
G01X5.5624Y-2.1209
M16
G05
G00X5.5624Y-2.252
M15
G01X5.5624Y-2.2953
M16
G05
G00X5.9025Y-2.0973
M15
G01X5.9025Y-2.1209
M16
G05
G00X5.9025Y-2.252
M15
G01X5.9025Y-2.2953
M16
G05
T0
M30
