%TF.GenerationSoftware,KiCad,Pcbnew,(5.1.6-0-10_14)*%
%TF.CreationDate,2021-08-16T20:21:43-05:00*%
%TF.ProjectId,Adalyn,4164616c-796e-42e6-9b69-6361645f7063,rev?*%
%TF.SameCoordinates,Original*%
%TF.FileFunction,Paste,Bot*%
%TF.FilePolarity,Positive*%
%FSLAX46Y46*%
G04 Gerber Fmt 4.6, Leading zero omitted, Abs format (unit mm)*
G04 Created by KiCad (PCBNEW (5.1.6-0-10_14)) date 2021-08-16 20:21:43*
%MOMM*%
%LPD*%
G01*
G04 APERTURE LIST*
%ADD10R,1.000000X1.400000*%
%ADD11R,1.200000X1.400000*%
%ADD12R,0.600000X1.450000*%
%ADD13R,0.300000X1.450000*%
%ADD14C,0.100000*%
%ADD15R,0.800000X0.900000*%
G04 APERTURE END LIST*
%TO.C,R101*%
G36*
G01*
X139024578Y-57512762D02*
X138474578Y-57512762D01*
G75*
G02*
X138274578Y-57312762I0J200000D01*
G01*
X138274578Y-56912762D01*
G75*
G02*
X138474578Y-56712762I200000J0D01*
G01*
X139024578Y-56712762D01*
G75*
G02*
X139224578Y-56912762I0J-200000D01*
G01*
X139224578Y-57312762D01*
G75*
G02*
X139024578Y-57512762I-200000J0D01*
G01*
G37*
G36*
G01*
X139024578Y-59162762D02*
X138474578Y-59162762D01*
G75*
G02*
X138274578Y-58962762I0J200000D01*
G01*
X138274578Y-58562762D01*
G75*
G02*
X138474578Y-58362762I200000J0D01*
G01*
X139024578Y-58362762D01*
G75*
G02*
X139224578Y-58562762I0J-200000D01*
G01*
X139224578Y-58962762D01*
G75*
G02*
X139024578Y-59162762I-200000J0D01*
G01*
G37*
%TD*%
D10*
%TO.C,U102*%
X142549578Y-63977762D03*
X144449578Y-63977762D03*
X144449578Y-61777762D03*
D11*
X142729578Y-61777762D03*
%TD*%
%TO.C,R102*%
G36*
G01*
X136714578Y-58372762D02*
X137264578Y-58372762D01*
G75*
G02*
X137464578Y-58572762I0J-200000D01*
G01*
X137464578Y-58972762D01*
G75*
G02*
X137264578Y-59172762I-200000J0D01*
G01*
X136714578Y-59172762D01*
G75*
G02*
X136514578Y-58972762I0J200000D01*
G01*
X136514578Y-58572762D01*
G75*
G02*
X136714578Y-58372762I200000J0D01*
G01*
G37*
G36*
G01*
X136714578Y-56722762D02*
X137264578Y-56722762D01*
G75*
G02*
X137464578Y-56922762I0J-200000D01*
G01*
X137464578Y-57322762D01*
G75*
G02*
X137264578Y-57522762I-200000J0D01*
G01*
X136714578Y-57522762D01*
G75*
G02*
X136514578Y-57322762I0J200000D01*
G01*
X136514578Y-56922762D01*
G75*
G02*
X136714578Y-56722762I200000J0D01*
G01*
G37*
%TD*%
%TO.C,L101*%
G36*
G01*
X151785828Y-56480262D02*
X151273328Y-56480262D01*
G75*
G02*
X151054578Y-56261512I0J218750D01*
G01*
X151054578Y-55824012D01*
G75*
G02*
X151273328Y-55605262I218750J0D01*
G01*
X151785828Y-55605262D01*
G75*
G02*
X152004578Y-55824012I0J-218750D01*
G01*
X152004578Y-56261512D01*
G75*
G02*
X151785828Y-56480262I-218750J0D01*
G01*
G37*
G36*
G01*
X151785828Y-58055262D02*
X151273328Y-58055262D01*
G75*
G02*
X151054578Y-57836512I0J218750D01*
G01*
X151054578Y-57399012D01*
G75*
G02*
X151273328Y-57180262I218750J0D01*
G01*
X151785828Y-57180262D01*
G75*
G02*
X152004578Y-57399012I0J-218750D01*
G01*
X152004578Y-57836512D01*
G75*
G02*
X151785828Y-58055262I-218750J0D01*
G01*
G37*
%TD*%
%TO.C,F101*%
G36*
G01*
X139313328Y-61457762D02*
X139825828Y-61457762D01*
G75*
G02*
X140044578Y-61676512I0J-218750D01*
G01*
X140044578Y-62114012D01*
G75*
G02*
X139825828Y-62332762I-218750J0D01*
G01*
X139313328Y-62332762D01*
G75*
G02*
X139094578Y-62114012I0J218750D01*
G01*
X139094578Y-61676512D01*
G75*
G02*
X139313328Y-61457762I218750J0D01*
G01*
G37*
G36*
G01*
X139313328Y-59882762D02*
X139825828Y-59882762D01*
G75*
G02*
X140044578Y-60101512I0J-218750D01*
G01*
X140044578Y-60539012D01*
G75*
G02*
X139825828Y-60757762I-218750J0D01*
G01*
X139313328Y-60757762D01*
G75*
G02*
X139094578Y-60539012I0J218750D01*
G01*
X139094578Y-60101512D01*
G75*
G02*
X139313328Y-59882762I218750J0D01*
G01*
G37*
%TD*%
D12*
%TO.C,USB101*%
X148829099Y-58665796D03*
X142379099Y-58665796D03*
X148054099Y-58665796D03*
X143154099Y-58665796D03*
D13*
X143854099Y-58665796D03*
X147354099Y-58665796D03*
X144354099Y-58665796D03*
X146854099Y-58665796D03*
X144854099Y-58665796D03*
X146354099Y-58665796D03*
X145854099Y-58665796D03*
X145354099Y-58665796D03*
%TD*%
D14*
%TO.C,SW1*%
G36*
X131375578Y-85798712D02*
G01*
X131236405Y-86788980D01*
X129552950Y-86552386D01*
X129692123Y-85562118D01*
X131375578Y-85798712D01*
G37*
G36*
X125136889Y-84921921D02*
G01*
X124997716Y-85912189D01*
X123314261Y-85675595D01*
X123453434Y-84685327D01*
X125136889Y-84921921D01*
G37*
G36*
X130846721Y-89561731D02*
G01*
X130707548Y-90551999D01*
X129024093Y-90315405D01*
X129163266Y-89325137D01*
X130846721Y-89561731D01*
G37*
G36*
X124608032Y-88684940D02*
G01*
X124468859Y-89675208D01*
X122785404Y-89438614D01*
X122924577Y-88448346D01*
X124608032Y-88684940D01*
G37*
%TD*%
%TO.C,U101*%
G36*
X153828249Y-85903061D02*
G01*
X153439341Y-85514153D01*
X154500001Y-84453493D01*
X154888909Y-84842401D01*
X153828249Y-85903061D01*
G37*
G36*
X153262563Y-85337376D02*
G01*
X152873655Y-84948468D01*
X153934315Y-83887808D01*
X154323223Y-84276716D01*
X153262563Y-85337376D01*
G37*
G36*
X152696878Y-84771691D02*
G01*
X152307970Y-84382783D01*
X153368630Y-83322123D01*
X153757538Y-83711031D01*
X152696878Y-84771691D01*
G37*
G36*
X152131193Y-84206005D02*
G01*
X151742285Y-83817097D01*
X152802945Y-82756437D01*
X153191853Y-83145345D01*
X152131193Y-84206005D01*
G37*
G36*
X151565507Y-83640320D02*
G01*
X151176599Y-83251412D01*
X152237259Y-82190752D01*
X152626167Y-82579660D01*
X151565507Y-83640320D01*
G37*
G36*
X150999822Y-83074634D02*
G01*
X150610914Y-82685726D01*
X151671574Y-81625066D01*
X152060482Y-82013974D01*
X150999822Y-83074634D01*
G37*
G36*
X150434136Y-82508949D02*
G01*
X150045228Y-82120041D01*
X151105888Y-81059381D01*
X151494796Y-81448289D01*
X150434136Y-82508949D01*
G37*
G36*
X149868451Y-81943263D02*
G01*
X149479543Y-81554355D01*
X150540203Y-80493695D01*
X150929111Y-80882603D01*
X149868451Y-81943263D01*
G37*
G36*
X149302765Y-81377578D02*
G01*
X148913857Y-80988670D01*
X149974517Y-79928010D01*
X150363425Y-80316918D01*
X149302765Y-81377578D01*
G37*
G36*
X148737080Y-80811893D02*
G01*
X148348172Y-80422985D01*
X149408832Y-79362325D01*
X149797740Y-79751233D01*
X148737080Y-80811893D01*
G37*
G36*
X148171395Y-80246207D02*
G01*
X147782487Y-79857299D01*
X148843147Y-78796639D01*
X149232055Y-79185547D01*
X148171395Y-80246207D01*
G37*
G36*
X146827891Y-79857299D02*
G01*
X146438983Y-80246207D01*
X145378323Y-79185547D01*
X145767231Y-78796639D01*
X146827891Y-79857299D01*
G37*
G36*
X146262206Y-80422985D02*
G01*
X145873298Y-80811893D01*
X144812638Y-79751233D01*
X145201546Y-79362325D01*
X146262206Y-80422985D01*
G37*
G36*
X145696521Y-80988670D02*
G01*
X145307613Y-81377578D01*
X144246953Y-80316918D01*
X144635861Y-79928010D01*
X145696521Y-80988670D01*
G37*
G36*
X145130835Y-81554355D02*
G01*
X144741927Y-81943263D01*
X143681267Y-80882603D01*
X144070175Y-80493695D01*
X145130835Y-81554355D01*
G37*
G36*
X144565150Y-82120041D02*
G01*
X144176242Y-82508949D01*
X143115582Y-81448289D01*
X143504490Y-81059381D01*
X144565150Y-82120041D01*
G37*
G36*
X143999464Y-82685726D02*
G01*
X143610556Y-83074634D01*
X142549896Y-82013974D01*
X142938804Y-81625066D01*
X143999464Y-82685726D01*
G37*
G36*
X143433779Y-83251412D02*
G01*
X143044871Y-83640320D01*
X141984211Y-82579660D01*
X142373119Y-82190752D01*
X143433779Y-83251412D01*
G37*
G36*
X142868093Y-83817097D02*
G01*
X142479185Y-84206005D01*
X141418525Y-83145345D01*
X141807433Y-82756437D01*
X142868093Y-83817097D01*
G37*
G36*
X142302408Y-84382783D02*
G01*
X141913500Y-84771691D01*
X140852840Y-83711031D01*
X141241748Y-83322123D01*
X142302408Y-84382783D01*
G37*
G36*
X141736723Y-84948468D02*
G01*
X141347815Y-85337376D01*
X140287155Y-84276716D01*
X140676063Y-83887808D01*
X141736723Y-84948468D01*
G37*
G36*
X141171037Y-85514153D02*
G01*
X140782129Y-85903061D01*
X139721469Y-84842401D01*
X140110377Y-84453493D01*
X141171037Y-85514153D01*
G37*
G36*
X140110377Y-88307225D02*
G01*
X139721469Y-87918317D01*
X140782129Y-86857657D01*
X141171037Y-87246565D01*
X140110377Y-88307225D01*
G37*
G36*
X140676063Y-88872910D02*
G01*
X140287155Y-88484002D01*
X141347815Y-87423342D01*
X141736723Y-87812250D01*
X140676063Y-88872910D01*
G37*
G36*
X141241748Y-89438595D02*
G01*
X140852840Y-89049687D01*
X141913500Y-87989027D01*
X142302408Y-88377935D01*
X141241748Y-89438595D01*
G37*
G36*
X141807433Y-90004281D02*
G01*
X141418525Y-89615373D01*
X142479185Y-88554713D01*
X142868093Y-88943621D01*
X141807433Y-90004281D01*
G37*
G36*
X142373119Y-90569966D02*
G01*
X141984211Y-90181058D01*
X143044871Y-89120398D01*
X143433779Y-89509306D01*
X142373119Y-90569966D01*
G37*
G36*
X142938804Y-91135652D02*
G01*
X142549896Y-90746744D01*
X143610556Y-89686084D01*
X143999464Y-90074992D01*
X142938804Y-91135652D01*
G37*
G36*
X143504490Y-91701337D02*
G01*
X143115582Y-91312429D01*
X144176242Y-90251769D01*
X144565150Y-90640677D01*
X143504490Y-91701337D01*
G37*
G36*
X144070175Y-92267023D02*
G01*
X143681267Y-91878115D01*
X144741927Y-90817455D01*
X145130835Y-91206363D01*
X144070175Y-92267023D01*
G37*
G36*
X144635861Y-92832708D02*
G01*
X144246953Y-92443800D01*
X145307613Y-91383140D01*
X145696521Y-91772048D01*
X144635861Y-92832708D01*
G37*
G36*
X145201546Y-93398393D02*
G01*
X144812638Y-93009485D01*
X145873298Y-91948825D01*
X146262206Y-92337733D01*
X145201546Y-93398393D01*
G37*
G36*
X145767231Y-93964079D02*
G01*
X145378323Y-93575171D01*
X146438983Y-92514511D01*
X146827891Y-92903419D01*
X145767231Y-93964079D01*
G37*
G36*
X149232055Y-93575171D02*
G01*
X148843147Y-93964079D01*
X147782487Y-92903419D01*
X148171395Y-92514511D01*
X149232055Y-93575171D01*
G37*
G36*
X149797740Y-93009485D02*
G01*
X149408832Y-93398393D01*
X148348172Y-92337733D01*
X148737080Y-91948825D01*
X149797740Y-93009485D01*
G37*
G36*
X150363425Y-92443800D02*
G01*
X149974517Y-92832708D01*
X148913857Y-91772048D01*
X149302765Y-91383140D01*
X150363425Y-92443800D01*
G37*
G36*
X150929111Y-91878115D02*
G01*
X150540203Y-92267023D01*
X149479543Y-91206363D01*
X149868451Y-90817455D01*
X150929111Y-91878115D01*
G37*
G36*
X151494796Y-91312429D02*
G01*
X151105888Y-91701337D01*
X150045228Y-90640677D01*
X150434136Y-90251769D01*
X151494796Y-91312429D01*
G37*
G36*
X152060482Y-90746744D02*
G01*
X151671574Y-91135652D01*
X150610914Y-90074992D01*
X150999822Y-89686084D01*
X152060482Y-90746744D01*
G37*
G36*
X152626167Y-90181058D02*
G01*
X152237259Y-90569966D01*
X151176599Y-89509306D01*
X151565507Y-89120398D01*
X152626167Y-90181058D01*
G37*
G36*
X153191853Y-89615373D02*
G01*
X152802945Y-90004281D01*
X151742285Y-88943621D01*
X152131193Y-88554713D01*
X153191853Y-89615373D01*
G37*
G36*
X153757538Y-89049687D02*
G01*
X153368630Y-89438595D01*
X152307970Y-88377935D01*
X152696878Y-87989027D01*
X153757538Y-89049687D01*
G37*
G36*
X154323223Y-88484002D02*
G01*
X153934315Y-88872910D01*
X152873655Y-87812250D01*
X153262563Y-87423342D01*
X154323223Y-88484002D01*
G37*
G36*
X154888909Y-87918317D02*
G01*
X154500001Y-88307225D01*
X153439341Y-87246565D01*
X153828249Y-86857657D01*
X154888909Y-87918317D01*
G37*
%TD*%
%TO.C,Y1*%
G36*
X134022228Y-92251142D02*
G01*
X136284969Y-89988401D01*
X136567812Y-90271244D01*
X134305071Y-92533985D01*
X134022228Y-92251142D01*
G37*
G36*
X133173700Y-91402614D02*
G01*
X135436441Y-89139873D01*
X135719284Y-89422716D01*
X133456543Y-91685457D01*
X133173700Y-91402614D01*
G37*
G36*
X132325172Y-90554086D02*
G01*
X134587913Y-88291345D01*
X134870756Y-88574188D01*
X132608015Y-90836929D01*
X132325172Y-90554086D01*
G37*
%TD*%
%TO.C,R5*%
G36*
G01*
X145917078Y-74755262D02*
X145442078Y-74755262D01*
G75*
G02*
X145204578Y-74517762I0J237500D01*
G01*
X145204578Y-74017762D01*
G75*
G02*
X145442078Y-73780262I237500J0D01*
G01*
X145917078Y-73780262D01*
G75*
G02*
X146154578Y-74017762I0J-237500D01*
G01*
X146154578Y-74517762D01*
G75*
G02*
X145917078Y-74755262I-237500J0D01*
G01*
G37*
G36*
G01*
X145917078Y-76580262D02*
X145442078Y-76580262D01*
G75*
G02*
X145204578Y-76342762I0J237500D01*
G01*
X145204578Y-75842762D01*
G75*
G02*
X145442078Y-75605262I237500J0D01*
G01*
X145917078Y-75605262D01*
G75*
G02*
X146154578Y-75842762I0J-237500D01*
G01*
X146154578Y-76342762D01*
G75*
G02*
X145917078Y-76580262I-237500J0D01*
G01*
G37*
%TD*%
%TO.C,R4*%
G36*
G01*
X140549302Y-93882001D02*
X140615409Y-93411623D01*
G75*
G02*
X140883652Y-93209488I235189J-33054D01*
G01*
X141378786Y-93279075D01*
G75*
G02*
X141580921Y-93547318I-33054J-235189D01*
G01*
X141514813Y-94017695D01*
G75*
G02*
X141246570Y-94219830I-235189J33054D01*
G01*
X140751436Y-94150243D01*
G75*
G02*
X140549301Y-93882000I33054J235189D01*
G01*
G37*
G36*
G01*
X138742062Y-93628011D02*
X138808169Y-93157633D01*
G75*
G02*
X139076412Y-92955498I235189J-33054D01*
G01*
X139571546Y-93025085D01*
G75*
G02*
X139773681Y-93293328I-33054J-235189D01*
G01*
X139707573Y-93763705D01*
G75*
G02*
X139439330Y-93965840I-235189J33054D01*
G01*
X138944196Y-93896253D01*
G75*
G02*
X138742061Y-93628010I33054J235189D01*
G01*
G37*
%TD*%
%TO.C,R3*%
G36*
G01*
X159681273Y-88589710D02*
X159681273Y-88114710D01*
G75*
G02*
X159918773Y-87877210I237500J0D01*
G01*
X160418773Y-87877210D01*
G75*
G02*
X160656273Y-88114710I0J-237500D01*
G01*
X160656273Y-88589710D01*
G75*
G02*
X160418773Y-88827210I-237500J0D01*
G01*
X159918773Y-88827210D01*
G75*
G02*
X159681273Y-88589710I0J237500D01*
G01*
G37*
G36*
G01*
X157856273Y-88589710D02*
X157856273Y-88114710D01*
G75*
G02*
X158093773Y-87877210I237500J0D01*
G01*
X158593773Y-87877210D01*
G75*
G02*
X158831273Y-88114710I0J-237500D01*
G01*
X158831273Y-88589710D01*
G75*
G02*
X158593773Y-88827210I-237500J0D01*
G01*
X158093773Y-88827210D01*
G75*
G02*
X157856273Y-88589710I0J237500D01*
G01*
G37*
%TD*%
%TO.C,R2*%
G36*
G01*
X159657772Y-90367709D02*
X159657772Y-89892709D01*
G75*
G02*
X159895272Y-89655209I237500J0D01*
G01*
X160395272Y-89655209D01*
G75*
G02*
X160632772Y-89892709I0J-237500D01*
G01*
X160632772Y-90367709D01*
G75*
G02*
X160395272Y-90605209I-237500J0D01*
G01*
X159895272Y-90605209D01*
G75*
G02*
X159657772Y-90367709I0J237500D01*
G01*
G37*
G36*
G01*
X157832772Y-90367709D02*
X157832772Y-89892709D01*
G75*
G02*
X158070272Y-89655209I237500J0D01*
G01*
X158570272Y-89655209D01*
G75*
G02*
X158807772Y-89892709I0J-237500D01*
G01*
X158807772Y-90367709D01*
G75*
G02*
X158570272Y-90605209I-237500J0D01*
G01*
X158070272Y-90605209D01*
G75*
G02*
X157832772Y-90367709I0J237500D01*
G01*
G37*
%TD*%
%TO.C,C101*%
G36*
G01*
X158819277Y-85414709D02*
X158819277Y-84939709D01*
G75*
G02*
X159056777Y-84702209I237500J0D01*
G01*
X159656777Y-84702209D01*
G75*
G02*
X159894277Y-84939709I0J-237500D01*
G01*
X159894277Y-85414709D01*
G75*
G02*
X159656777Y-85652209I-237500J0D01*
G01*
X159056777Y-85652209D01*
G75*
G02*
X158819277Y-85414709I0J237500D01*
G01*
G37*
G36*
G01*
X157094277Y-85414709D02*
X157094277Y-84939709D01*
G75*
G02*
X157331777Y-84702209I237500J0D01*
G01*
X157931777Y-84702209D01*
G75*
G02*
X158169277Y-84939709I0J-237500D01*
G01*
X158169277Y-85414709D01*
G75*
G02*
X157931777Y-85652209I-237500J0D01*
G01*
X157331777Y-85652209D01*
G75*
G02*
X157094277Y-85414709I0J237500D01*
G01*
G37*
%TD*%
%TO.C,C6*%
G36*
G01*
X154898616Y-92399403D02*
X154562740Y-92063527D01*
G75*
G02*
X154562740Y-91727651I167938J167938D01*
G01*
X154987004Y-91303387D01*
G75*
G02*
X155322880Y-91303387I167938J-167938D01*
G01*
X155658756Y-91639263D01*
G75*
G02*
X155658756Y-91975139I-167938J-167938D01*
G01*
X155234492Y-92399403D01*
G75*
G02*
X154898616Y-92399403I-167938J167938D01*
G01*
G37*
G36*
G01*
X153678856Y-93619163D02*
X153342980Y-93283287D01*
G75*
G02*
X153342980Y-92947411I167938J167938D01*
G01*
X153767244Y-92523147D01*
G75*
G02*
X154103120Y-92523147I167938J-167938D01*
G01*
X154438996Y-92859023D01*
G75*
G02*
X154438996Y-93194899I-167938J-167938D01*
G01*
X154014732Y-93619163D01*
G75*
G02*
X153678856Y-93619163I-167938J167938D01*
G01*
G37*
%TD*%
%TO.C,C5*%
G36*
G01*
X140334578Y-67570262D02*
X140334578Y-68045262D01*
G75*
G02*
X140097078Y-68282762I-237500J0D01*
G01*
X139497078Y-68282762D01*
G75*
G02*
X139259578Y-68045262I0J237500D01*
G01*
X139259578Y-67570262D01*
G75*
G02*
X139497078Y-67332762I237500J0D01*
G01*
X140097078Y-67332762D01*
G75*
G02*
X140334578Y-67570262I0J-237500D01*
G01*
G37*
G36*
G01*
X142059578Y-67570262D02*
X142059578Y-68045262D01*
G75*
G02*
X141822078Y-68282762I-237500J0D01*
G01*
X141222078Y-68282762D01*
G75*
G02*
X140984578Y-68045262I0J237500D01*
G01*
X140984578Y-67570262D01*
G75*
G02*
X141222078Y-67332762I237500J0D01*
G01*
X141822078Y-67332762D01*
G75*
G02*
X142059578Y-67570262I0J-237500D01*
G01*
G37*
%TD*%
%TO.C,C4*%
G36*
G01*
X148317775Y-74845710D02*
X147842775Y-74845710D01*
G75*
G02*
X147605275Y-74608210I0J237500D01*
G01*
X147605275Y-74008210D01*
G75*
G02*
X147842775Y-73770710I237500J0D01*
G01*
X148317775Y-73770710D01*
G75*
G02*
X148555275Y-74008210I0J-237500D01*
G01*
X148555275Y-74608210D01*
G75*
G02*
X148317775Y-74845710I-237500J0D01*
G01*
G37*
G36*
G01*
X148317775Y-76570710D02*
X147842775Y-76570710D01*
G75*
G02*
X147605275Y-76333210I0J237500D01*
G01*
X147605275Y-75733210D01*
G75*
G02*
X147842775Y-75495710I237500J0D01*
G01*
X148317775Y-75495710D01*
G75*
G02*
X148555275Y-75733210I0J-237500D01*
G01*
X148555275Y-76333210D01*
G75*
G02*
X148317775Y-76570710I-237500J0D01*
G01*
G37*
%TD*%
%TO.C,C2*%
G36*
G01*
X137263907Y-82924942D02*
X137197800Y-83395320D01*
G75*
G02*
X136929557Y-83597455I-235189J33054D01*
G01*
X136335396Y-83513951D01*
G75*
G02*
X136133261Y-83245708I33054J235189D01*
G01*
X136199368Y-82775330D01*
G75*
G02*
X136467611Y-82573195I235189J-33054D01*
G01*
X137061772Y-82656699D01*
G75*
G02*
X137263907Y-82924942I-33054J-235189D01*
G01*
G37*
G36*
G01*
X138972119Y-83165016D02*
X138906012Y-83635394D01*
G75*
G02*
X138637769Y-83837529I-235189J33054D01*
G01*
X138043608Y-83754025D01*
G75*
G02*
X137841473Y-83485782I33054J235189D01*
G01*
X137907580Y-83015404D01*
G75*
G02*
X138175823Y-82813269I235189J-33054D01*
G01*
X138769984Y-82896773D01*
G75*
G02*
X138972119Y-83165016I-33054J-235189D01*
G01*
G37*
%TD*%
%TO.C,C1*%
G36*
G01*
X140009599Y-91754790D02*
X139943492Y-92225168D01*
G75*
G02*
X139675249Y-92427303I-235189J33054D01*
G01*
X139081088Y-92343799D01*
G75*
G02*
X138878953Y-92075556I33054J235189D01*
G01*
X138945060Y-91605178D01*
G75*
G02*
X139213303Y-91403043I235189J-33054D01*
G01*
X139807464Y-91486547D01*
G75*
G02*
X140009599Y-91754790I-33054J-235189D01*
G01*
G37*
G36*
G01*
X141717811Y-91994864D02*
X141651704Y-92465242D01*
G75*
G02*
X141383461Y-92667377I-235189J33054D01*
G01*
X140789300Y-92583873D01*
G75*
G02*
X140587165Y-92315630I33054J235189D01*
G01*
X140653272Y-91845252D01*
G75*
G02*
X140921515Y-91643117I235189J-33054D01*
G01*
X141515676Y-91726621D01*
G75*
G02*
X141717811Y-91994864I-33054J-235189D01*
G01*
G37*
%TD*%
%TO.C,D118*%
G36*
X142256054Y-96539454D02*
G01*
X141463840Y-96428115D01*
X141589096Y-95536874D01*
X142381310Y-95648213D01*
X142256054Y-96539454D01*
G37*
G36*
X141036953Y-98387776D02*
G01*
X140244739Y-98276437D01*
X140369995Y-97385196D01*
X141162209Y-97496535D01*
X141036953Y-98387776D01*
G37*
G36*
X142918463Y-98652205D02*
G01*
X142126249Y-98540866D01*
X142251505Y-97649625D01*
X143043719Y-97760964D01*
X142918463Y-98652205D01*
G37*
%TD*%
D15*
%TO.C,D117*%
X236216181Y-103349227D03*
X235266181Y-105349227D03*
X237166181Y-105349227D03*
%TD*%
D14*
%TO.C,D116*%
G36*
X139611381Y-115357292D02*
G01*
X138819167Y-115245953D01*
X138944423Y-114354712D01*
X139736637Y-114466051D01*
X139611381Y-115357292D01*
G37*
G36*
X138392280Y-117205614D02*
G01*
X137600066Y-117094275D01*
X137725322Y-116203034D01*
X138517536Y-116314373D01*
X138392280Y-117205614D01*
G37*
G36*
X140273790Y-117470043D02*
G01*
X139481576Y-117358704D01*
X139606832Y-116467463D01*
X140399046Y-116578802D01*
X140273790Y-117470043D01*
G37*
%TD*%
D15*
%TO.C,D115*%
X54916811Y-103009652D03*
X53966811Y-105009652D03*
X55866811Y-105009652D03*
%TD*%
%TO.C,D114*%
X233834929Y-84299226D03*
X232884929Y-86299226D03*
X234784929Y-86299226D03*
%TD*%
D14*
%TO.C,D113*%
G36*
X188361190Y-90550275D02*
G01*
X187568976Y-90661614D01*
X187443720Y-89770373D01*
X188235934Y-89659034D01*
X188361190Y-90550275D01*
G37*
G36*
X187698781Y-92663026D02*
G01*
X186906567Y-92774365D01*
X186781311Y-91883124D01*
X187573525Y-91771785D01*
X187698781Y-92663026D01*
G37*
G36*
X189580291Y-92398597D02*
G01*
X188788077Y-92509936D01*
X188662821Y-91618695D01*
X189455035Y-91507356D01*
X189580291Y-92398597D01*
G37*
%TD*%
%TO.C,D112*%
G36*
X106884917Y-91568364D02*
G01*
X106092703Y-91457025D01*
X106217959Y-90565784D01*
X107010173Y-90677123D01*
X106884917Y-91568364D01*
G37*
G36*
X105665816Y-93416686D02*
G01*
X104873602Y-93305347D01*
X104998858Y-92414106D01*
X105791072Y-92525445D01*
X105665816Y-93416686D01*
G37*
G36*
X107547326Y-93681115D02*
G01*
X106755112Y-93569776D01*
X106880368Y-92678535D01*
X107672582Y-92789874D01*
X107547326Y-93681115D01*
G37*
%TD*%
D15*
%TO.C,D111*%
X58297818Y-84251999D03*
X57347818Y-86251999D03*
X59247818Y-86251999D03*
%TD*%
%TO.C,D110*%
X233834927Y-65249229D03*
X232884927Y-67249229D03*
X234784927Y-67249229D03*
%TD*%
D14*
%TO.C,D109*%
G36*
X195142240Y-70360048D02*
G01*
X194350026Y-70471387D01*
X194224770Y-69580146D01*
X195016984Y-69468807D01*
X195142240Y-70360048D01*
G37*
G36*
X194479831Y-72472799D02*
G01*
X193687617Y-72584138D01*
X193562361Y-71692897D01*
X194354575Y-71581558D01*
X194479831Y-72472799D01*
G37*
G36*
X196361341Y-72208370D02*
G01*
X195569127Y-72319709D01*
X195443871Y-71428468D01*
X196236085Y-71317129D01*
X196361341Y-72208370D01*
G37*
%TD*%
%TO.C,D108*%
G36*
X135474999Y-76349226D02*
G01*
X134682785Y-76237887D01*
X134808041Y-75346646D01*
X135600255Y-75457985D01*
X135474999Y-76349226D01*
G37*
G36*
X134255898Y-78197548D02*
G01*
X133463684Y-78086209D01*
X133588940Y-77194968D01*
X134381154Y-77306307D01*
X134255898Y-78197548D01*
G37*
G36*
X136137408Y-78461977D02*
G01*
X135345194Y-78350638D01*
X135470450Y-77459397D01*
X136262664Y-77570736D01*
X136137408Y-78461977D01*
G37*
%TD*%
%TO.C,D107*%
G36*
X100103861Y-71378138D02*
G01*
X99311647Y-71266799D01*
X99436903Y-70375558D01*
X100229117Y-70486897D01*
X100103861Y-71378138D01*
G37*
G36*
X98884760Y-73226460D02*
G01*
X98092546Y-73115121D01*
X98217802Y-72223880D01*
X99010016Y-72335219D01*
X98884760Y-73226460D01*
G37*
G36*
X100766270Y-73490889D02*
G01*
X99974056Y-73379550D01*
X100099312Y-72488309D01*
X100891526Y-72599648D01*
X100766270Y-73490889D01*
G37*
%TD*%
D15*
%TO.C,D106*%
X55916566Y-65202001D03*
X54966566Y-67202001D03*
X56866566Y-67202001D03*
%TD*%
%TO.C,D105*%
X229072429Y-46199230D03*
X228122429Y-48199230D03*
X230022429Y-48199230D03*
%TD*%
D14*
%TO.C,D104*%
G36*
X187774847Y-52158254D02*
G01*
X186982633Y-52269593D01*
X186857377Y-51378352D01*
X187649591Y-51267013D01*
X187774847Y-52158254D01*
G37*
G36*
X187112438Y-54271005D02*
G01*
X186320224Y-54382344D01*
X186194968Y-53491103D01*
X186987182Y-53379764D01*
X187112438Y-54271005D01*
G37*
G36*
X188993948Y-54006576D02*
G01*
X188201734Y-54117915D01*
X188076478Y-53226674D01*
X188868692Y-53115335D01*
X188993948Y-54006576D01*
G37*
%TD*%
%TO.C,D103*%
G36*
X133410095Y-56821804D02*
G01*
X132617881Y-56710465D01*
X132743137Y-55819224D01*
X133535351Y-55930563D01*
X133410095Y-56821804D01*
G37*
G36*
X132190994Y-58670126D02*
G01*
X131398780Y-58558787D01*
X131524036Y-57667546D01*
X132316250Y-57778885D01*
X132190994Y-58670126D01*
G37*
G36*
X134072504Y-58934555D02*
G01*
X133280290Y-58823216D01*
X133405546Y-57931975D01*
X134197760Y-58043314D01*
X134072504Y-58934555D01*
G37*
%TD*%
%TO.C,D102*%
G36*
X98038958Y-51850714D02*
G01*
X97246744Y-51739375D01*
X97372000Y-50848134D01*
X98164214Y-50959473D01*
X98038958Y-51850714D01*
G37*
G36*
X96819857Y-53699036D02*
G01*
X96027643Y-53587697D01*
X96152899Y-52696456D01*
X96945113Y-52807795D01*
X96819857Y-53699036D01*
G37*
G36*
X98701367Y-53963465D02*
G01*
X97909153Y-53852126D01*
X98034409Y-52960885D01*
X98826623Y-53072224D01*
X98701367Y-53963465D01*
G37*
%TD*%
D15*
%TO.C,D101*%
X55916566Y-46152002D03*
X54966566Y-48152002D03*
X56866566Y-48152002D03*
%TD*%
M02*
