M48
; DRILL file {KiCad (5.1.6-0-10_14)} date Monday, August 16, 2021 at 08:21:47 PM
; FORMAT={-:-/ absolute / inch / decimal}
; #@! TF.CreationDate,2021-08-16T20:21:47-05:00
; #@! TF.GenerationSoftware,Kicad,Pcbnew,(5.1.6-0-10_14)
; #@! TF.FileFunction,NonPlated,1,2,NPTH
FMAT,2
INCH
T1C0.0256
T2C0.0689
T3C0.1200
T4C0.1570
%
G90
G05
T1
X5.6187Y-2.2528
X5.8462Y-2.2528
T2
X4.0165Y-3.0357
X4.4126Y-3.0914
X8.3208Y-3.6704
X8.7169Y-3.6147
X2.5311Y-2.827
X2.9272Y-2.8826
X4.6779Y-2.3713
X5.074Y-2.427
X9.3767Y-2.8172
X9.7767Y-2.8172
X4.4576Y-4.6125
X4.8537Y-4.6681
X7.8451Y-2.9799
X8.2412Y-2.9242
X6.0696Y-2.472
X6.4657Y-2.4164
X3.5408Y-3.7262
X3.9369Y-3.7819
X7.6825Y-4.5175
X8.0786Y-4.4618
X1.648Y-2.8172
X2.048Y-2.8172
X8.5878Y-2.8755
X8.9839Y-2.8198
X7.1024Y-3.0842
X7.4985Y-3.0286
X6.0927Y-3.9835
X6.4888Y-3.9278
X3.2507Y-4.4428
X3.6468Y-4.4985
X9.178Y-2.0672
X9.578Y-2.0672
X3.1925Y-2.1626
X3.5886Y-2.2182
X5.0262Y-3.935
X5.4223Y-3.9907
X3.2738Y-2.9313
X3.6699Y-2.987
X1.6592Y-2.0672
X2.0592Y-2.0672
X8.2977Y-2.1589
X8.6938Y-2.1032
X3.9352Y-2.2669
X4.3313Y-2.3226
X2.4498Y-2.0582
X2.8459Y-2.1138
X6.8123Y-2.3676
X7.2084Y-2.312
X7.555Y-2.2633
X7.9511Y-2.2076
X6.5684Y-4.674
X6.9645Y-4.6184
X4.2835Y-3.8306
X4.6796Y-3.8863
X9.4067Y-4.3172
X9.8067Y-4.3172
X2.7981Y-3.6219
X3.1942Y-3.6775
X4.7592Y-3.1401
X5.1553Y-3.1958
X7.5781Y-3.7748
X7.9742Y-3.7191
X6.3597Y-3.1886
X6.7558Y-3.133
X1.5092Y-4.3172
X1.9092Y-4.3172
X1.723Y-3.5672
X2.123Y-3.5672
X6.8354Y-3.8791
X7.2315Y-3.8235
X9.2942Y-3.5672
X9.6942Y-3.5672
T3
X6.3406Y-4.9838
X7.2689Y-4.8533
X4.1532Y-4.8474
X5.0816Y-4.9779
T4
X6.2571Y-4.3896
X6.7665Y-4.6462
X7.1854Y-4.2591
X4.4815Y-3.8585
X9.6067Y-4.3172
X2.9961Y-3.6497
X4.9573Y-3.1679
X7.7762Y-3.7469
X6.5577Y-3.1608
X1.7092Y-4.3172
X1.923Y-3.5672
X7.0335Y-3.8513
X9.4942Y-3.5672
X4.2146Y-3.0636
X8.5189Y-3.6425
X2.7292Y-2.8548
X4.876Y-2.3991
X9.5767Y-2.8172
X4.2367Y-4.2532
X4.6557Y-4.6403
X5.1651Y-4.3837
X8.0431Y-2.952
X6.2677Y-2.4442
X3.7388Y-3.7541
X7.8805Y-4.4896
X1.848Y-2.8172
X8.7858Y-2.8477
X7.3004Y-3.0564
X6.2908Y-3.9557
X3.4488Y-4.4707
X9.378Y-2.0672
X3.3906Y-2.1904
X5.2242Y-3.9628
X3.4719Y-2.9592
X1.8592Y-2.0672
X8.4958Y-2.131
X4.1333Y-2.2948
X2.6479Y-2.086
X7.0104Y-2.3398
X7.7531Y-2.2354
T0
M30
