%TF.GenerationSoftware,KiCad,Pcbnew,(5.1.6-0-10_14)*%
%TF.CreationDate,2021-08-16T20:21:43-05:00*%
%TF.ProjectId,Adalyn,4164616c-796e-42e6-9b69-6361645f7063,rev?*%
%TF.SameCoordinates,Original*%
%TF.FileFunction,Copper,L1,Top*%
%TF.FilePolarity,Positive*%
%FSLAX46Y46*%
G04 Gerber Fmt 4.6, Leading zero omitted, Abs format (unit mm)*
G04 Created by KiCad (PCBNEW (5.1.6-0-10_14)) date 2021-08-16 20:21:43*
%MOMM*%
%LPD*%
G01*
G04 APERTURE LIST*
%TA.AperFunction,ComponentPad*%
%ADD10C,2.250000*%
%TD*%
%TA.AperFunction,ComponentPad*%
%ADD11O,1.000000X2.100000*%
%TD*%
%TA.AperFunction,ComponentPad*%
%ADD12O,1.000000X1.600000*%
%TD*%
%TA.AperFunction,ViaPad*%
%ADD13C,0.800000*%
%TD*%
%TA.AperFunction,Conductor*%
%ADD14C,0.250000*%
%TD*%
%TA.AperFunction,Conductor*%
%ADD15C,0.200000*%
%TD*%
G04 APERTURE END LIST*
D10*
%TO.P,MX19,2*%
%TO.N,Net-(D116-Pad1)*%
X121476247Y-113186426D03*
%TO.P,MX19,1*%
%TO.N,Col3*%
X114834545Y-114817958D03*
%TD*%
%TO.P,MX26,2*%
%TO.N,Net-(D116-Pad2)*%
X173677038Y-112629259D03*
%TO.P,MX26,1*%
%TO.N,Col6*%
X167742335Y-116028289D03*
%TD*%
D11*
%TO.P,USB101,13*%
%TO.N,Earth*%
X141284099Y-57750796D03*
X149924099Y-57750796D03*
D12*
X141284099Y-53570796D03*
X149924099Y-53570796D03*
%TD*%
D10*
%TO.P,MX30,2*%
%TO.N,Net-(D117-Pad1)*%
X201973943Y-108652387D03*
%TO.P,MX30,1*%
%TO.N,Col7*%
X196039240Y-112051417D03*
%TD*%
%TO.P,MX38,2*%
%TO.N,Net-(D114-Pad2)*%
X243693100Y-85525798D03*
%TO.P,MX38,1*%
%TO.N,Col9*%
X237343100Y-88065798D03*
%TD*%
%TO.P,MX37,2*%
%TO.N,Net-(D110-Pad2)*%
X245788600Y-66475795D03*
%TO.P,MX37,1*%
%TO.N,Col9*%
X239438600Y-69015795D03*
%TD*%
%TO.P,MX36,2*%
%TO.N,Net-(D105-Pad2)*%
X240740348Y-47425797D03*
%TO.P,MX36,1*%
%TO.N,Col9*%
X234390348Y-49965797D03*
%TD*%
%TO.P,MX35,2*%
%TO.N,Net-(D117-Pad2)*%
X246550597Y-104575797D03*
%TO.P,MX35,1*%
%TO.N,Col9*%
X240200597Y-107115797D03*
%TD*%
%TO.P,MX34,2*%
%TO.N,Net-(D114-Pad1)*%
X218187304Y-87136535D03*
%TO.P,MX34,1*%
%TO.N,Col8*%
X212252601Y-90535565D03*
%TD*%
%TO.P,MX33,2*%
%TO.N,Net-(D110-Pad1)*%
X224968359Y-66946306D03*
%TO.P,MX33,1*%
%TO.N,Col8*%
X219033656Y-70345336D03*
%TD*%
%TO.P,MX32,2*%
%TO.N,Net-(D105-Pad1)*%
X217600962Y-48744509D03*
%TO.P,MX32,1*%
%TO.N,Col8*%
X211666259Y-52143539D03*
%TD*%
%TO.P,MX29,2*%
%TO.N,Net-(D113-Pad2)*%
X199322700Y-89787778D03*
%TO.P,MX29,1*%
%TO.N,Col7*%
X193387997Y-93186808D03*
%TD*%
%TO.P,MX28,2*%
%TO.N,Net-(D109-Pad2)*%
X206103750Y-69597552D03*
%TO.P,MX28,1*%
%TO.N,Col7*%
X200169047Y-72996582D03*
%TD*%
%TO.P,MX27,2*%
%TO.N,Net-(D104-Pad2)*%
X198736352Y-51395753D03*
%TO.P,MX27,1*%
%TO.N,Col7*%
X192801649Y-54794783D03*
%TD*%
%TO.P,MX25,2*%
%TO.N,Net-(D113-Pad1)*%
X180458090Y-92439030D03*
%TO.P,MX25,1*%
%TO.N,Col6*%
X174523387Y-95838060D03*
%TD*%
%TO.P,MX24,2*%
%TO.N,Net-(D109-Pad1)*%
X187239146Y-72248801D03*
%TO.P,MX24,1*%
%TO.N,Col6*%
X181304443Y-75647831D03*
%TD*%
%TO.P,MX23,2*%
%TO.N,Net-(D104-Pad1)*%
X179871751Y-54047006D03*
%TO.P,MX23,1*%
%TO.N,Col6*%
X173937048Y-57446036D03*
%TD*%
%TO.P,MX22,2*%
%TO.N,Net-(D118-Pad2)*%
X161593486Y-95090275D03*
%TO.P,MX22,1*%
%TO.N,Col5*%
X155658783Y-98489305D03*
%TD*%
%TO.P,MX21,2*%
%TO.N,Net-(D108-Pad2)*%
X168374538Y-74900047D03*
%TO.P,MX21,1*%
%TO.N,Col5*%
X162439835Y-78299077D03*
%TD*%
%TO.P,MX20,2*%
%TO.N,Net-(D103-Pad2)*%
X161007141Y-56698250D03*
%TO.P,MX20,1*%
%TO.N,Col5*%
X155072438Y-60097280D03*
%TD*%
%TO.P,MX18,2*%
%TO.N,Net-(D118-Pad1)*%
X135917872Y-95978849D03*
%TO.P,MX18,1*%
%TO.N,Col4*%
X129276170Y-97610381D03*
%TD*%
%TO.P,MX17,2*%
%TO.N,Net-(D108-Pad1)*%
X129136816Y-75788624D03*
%TO.P,MX17,1*%
%TO.N,Col4*%
X122495114Y-77420156D03*
%TD*%
%TO.P,MX16,2*%
%TO.N,Net-(D103-Pad1)*%
X127071913Y-56261201D03*
%TO.P,MX16,1*%
%TO.N,Col4*%
X120430211Y-57892733D03*
%TD*%
%TO.P,MX15,2*%
%TO.N,Net-(D115-Pad2)*%
X90821260Y-108878154D03*
%TO.P,MX15,1*%
%TO.N,Col1*%
X84179558Y-110509686D03*
%TD*%
%TO.P,MX13,2*%
%TO.N,Net-(D112-Pad2)*%
X117053264Y-93327605D03*
%TO.P,MX13,1*%
%TO.N,Col3*%
X110411562Y-94959137D03*
%TD*%
%TO.P,MX12,2*%
%TO.N,Net-(D107-Pad2)*%
X110272212Y-73137372D03*
%TO.P,MX12,1*%
%TO.N,Col3*%
X103630510Y-74768904D03*
%TD*%
%TO.P,MX11,2*%
%TO.N,Net-(D102-Pad2)*%
X108207306Y-53609953D03*
%TO.P,MX11,1*%
%TO.N,Col3*%
X101565604Y-55241485D03*
%TD*%
%TO.P,MX10,2*%
%TO.N,Net-(D115-Pad1)*%
X45954097Y-104575795D03*
%TO.P,MX10,1*%
%TO.N,Col0*%
X39604097Y-107115795D03*
%TD*%
%TO.P,MX9,2*%
%TO.N,Net-(D112-Pad1)*%
X98188657Y-90676359D03*
%TO.P,MX9,1*%
%TO.N,Col2*%
X91546955Y-92307891D03*
%TD*%
%TO.P,MX8,2*%
%TO.N,Net-(D107-Pad1)*%
X91407604Y-70486128D03*
%TO.P,MX8,1*%
%TO.N,Col2*%
X84765902Y-72117660D03*
%TD*%
%TO.P,MX7,2*%
%TO.N,Net-(D102-Pad1)*%
X89342699Y-50958710D03*
%TO.P,MX7,1*%
%TO.N,Col2*%
X82700997Y-52590242D03*
%TD*%
%TO.P,MX6,2*%
%TO.N,Net-(D111-Pad2)*%
X79324053Y-88025105D03*
%TO.P,MX6,1*%
%TO.N,Col1*%
X72682351Y-89656637D03*
%TD*%
%TO.P,MX5,2*%
%TO.N,Net-(D106-Pad2)*%
X72542998Y-67834877D03*
%TO.P,MX5,1*%
%TO.N,Col1*%
X65901296Y-69466409D03*
%TD*%
%TO.P,MX4,2*%
%TO.N,Net-(D101-Pad2)*%
X70478093Y-48307457D03*
%TO.P,MX4,1*%
%TO.N,Col1*%
X63836391Y-49938989D03*
%TD*%
%TO.P,MX3,2*%
%TO.N,Net-(D111-Pad1)*%
X51383349Y-85525792D03*
%TO.P,MX3,1*%
%TO.N,Col0*%
X45033349Y-88065792D03*
%TD*%
%TO.P,MX2,2*%
%TO.N,Net-(D106-Pad1)*%
X49478345Y-66475792D03*
%TO.P,MX2,1*%
%TO.N,Col0*%
X43128345Y-69015792D03*
%TD*%
%TO.P,MX1,2*%
%TO.N,Net-(D101-Pad1)*%
X49764098Y-47425797D03*
%TO.P,MX1,1*%
%TO.N,Col0*%
X43414098Y-49965797D03*
%TD*%
D13*
%TO.N,ROW0*%
X133918407Y-60969271D03*
X134456947Y-57398883D03*
%TO.N,ROW1*%
X137368195Y-75545004D03*
X156492530Y-75105706D03*
%TO.N,Net-(D108-Pad2)*%
X137464393Y-79211940D03*
X157416878Y-75906883D03*
%TO.N,ROW3*%
X151391557Y-93975261D03*
X147610737Y-110744746D03*
%TO.N,+5V*%
X148818096Y-77309779D03*
X139715202Y-83509284D03*
X156358084Y-85027401D03*
X142873276Y-92416210D03*
X149731276Y-88987210D03*
X151509276Y-87336207D03*
X141360828Y-63686512D03*
X142999578Y-67517762D03*
%TO.N,GND*%
X136986490Y-110478663D03*
X135208491Y-112637664D03*
X143463491Y-110224663D03*
X143590491Y-112637664D03*
X148799578Y-60517762D03*
X143659578Y-60217762D03*
X141069578Y-61347762D03*
X138009578Y-60467762D03*
X137659578Y-64947762D03*
X148989578Y-72717762D03*
X153279578Y-74307762D03*
%TO.N,D+*%
X155404578Y-73667762D03*
X146354099Y-62163241D03*
%TO.N,D-*%
X154354578Y-73667762D03*
X145614578Y-61422762D03*
%TO.N,VBUS*%
X146819578Y-54957762D03*
X141247078Y-60320262D03*
%TD*%
D14*
%TO.N,ROW0*%
X133918407Y-60969271D02*
X133918407Y-57937423D01*
X133918407Y-57937423D02*
X134456947Y-57398883D01*
%TO.N,ROW1*%
X137514989Y-75398208D02*
X156200026Y-75398210D01*
X156200026Y-75398210D02*
X156492530Y-75105706D01*
X137368195Y-75545004D02*
X137514989Y-75398208D01*
%TO.N,Net-(D108-Pad2)*%
X157246110Y-75778199D02*
X157416878Y-75906883D01*
X137244305Y-77645927D02*
X138555276Y-75906210D01*
X137464393Y-79211940D02*
X137244305Y-77645927D01*
X138555276Y-75906210D02*
X156335276Y-75906210D01*
X156335276Y-75906210D02*
X157246110Y-75778199D01*
%TO.N,ROW3*%
X146992112Y-106343004D02*
X147610737Y-110744746D01*
X152164972Y-99478388D02*
X146992112Y-106343004D01*
X151391557Y-93975261D02*
X152164972Y-99478388D01*
%TO.N,+5V*%
X139715202Y-83509284D02*
X145540273Y-77684208D01*
X148443668Y-77684209D02*
X148818096Y-77309779D01*
X145540273Y-77684208D02*
X148443668Y-77684209D01*
X156358085Y-84849770D02*
X156358084Y-85027401D01*
X148818096Y-77309779D02*
X156358085Y-84849770D01*
X138682276Y-88225210D02*
X142873276Y-92416210D01*
X138682274Y-84542212D02*
X138682276Y-88225210D01*
X139715202Y-83509284D02*
X138682274Y-84542212D01*
X145286274Y-94829208D02*
X142873276Y-92416210D01*
X149223276Y-94829209D02*
X145286274Y-94829208D01*
X156358085Y-87694399D02*
X149223276Y-94829209D01*
X156358084Y-85027401D02*
X156358085Y-87694399D01*
X149858276Y-88987210D02*
X151509276Y-87336207D01*
X149731276Y-88987210D02*
X149858276Y-88987210D01*
X141360828Y-63686512D02*
X141360828Y-65679012D01*
X142999578Y-67317762D02*
X142999578Y-67517762D01*
X141360828Y-65679012D02*
X142999578Y-67317762D01*
%TO.N,Col0*%
X45208302Y-54216130D02*
X43128346Y-69015793D01*
X43192673Y-51541303D02*
X45208302Y-54216130D01*
X43414100Y-49965793D02*
X43192673Y-51541303D01*
X44085828Y-70286415D02*
X43450854Y-74804485D01*
X43128346Y-69015793D02*
X44085828Y-70286415D01*
X46355397Y-78658938D02*
X45033348Y-88065794D01*
X43450854Y-74804485D02*
X46355397Y-78658938D01*
X43952635Y-103838941D02*
X39604099Y-107115794D01*
X45990832Y-89336413D02*
X43952635Y-103838941D01*
X45033348Y-88065794D02*
X45990832Y-89336413D01*
%TO.N,Col1*%
X67588845Y-57458890D02*
X65901296Y-69466413D01*
X63535502Y-52079925D02*
X67588845Y-57458890D01*
X63836391Y-49938991D02*
X63535502Y-52079925D01*
X73707086Y-82365269D02*
X72682350Y-89656640D01*
X65600408Y-71607345D02*
X73707086Y-82365269D01*
X65901296Y-69466413D02*
X65600408Y-71607345D01*
X84541482Y-107934464D02*
X84179559Y-110509680D01*
X72381463Y-91797573D02*
X84541482Y-107934464D01*
X72682350Y-89656640D02*
X72381463Y-91797573D01*
%TO.N,Col2*%
X80712560Y-66738688D02*
X84765899Y-72117658D01*
X92571692Y-85016516D02*
X91546957Y-92307887D01*
X84465012Y-74258592D02*
X92571692Y-85016516D01*
X84765899Y-72117658D02*
X84465012Y-74258592D01*
X82700996Y-52590239D02*
X82176690Y-56320878D01*
X82176690Y-56320878D02*
X80712560Y-66738688D01*
%TO.N,Col3*%
X99577169Y-69389940D02*
X103630507Y-74768905D01*
X102304884Y-84201207D02*
X110411560Y-94959136D01*
X103630507Y-74768905D02*
X102304884Y-84201207D01*
X111574497Y-96502403D02*
X109917472Y-108292783D01*
X109917472Y-108292783D02*
X114834545Y-114817961D01*
X110411560Y-94959136D02*
X111574497Y-96502403D01*
X101565604Y-55241486D02*
X101041297Y-58972128D01*
X101041297Y-58972128D02*
X99577169Y-69389940D01*
%TO.N,Col4*%
X120430210Y-57892736D02*
X119905905Y-61623377D01*
X122495115Y-77420153D02*
X121169491Y-86852455D01*
X119905905Y-61623377D02*
X119729155Y-62881015D01*
X119729155Y-62881015D02*
X118441775Y-72041192D01*
X118441775Y-72041192D02*
X122495115Y-77420153D01*
X121169491Y-86852455D02*
X129276172Y-97610383D01*
%TO.N,Col5*%
X157060875Y-74245740D02*
X162439834Y-78299076D01*
X155072439Y-60097278D02*
X157060875Y-74245740D01*
X163765458Y-87731383D02*
X155658782Y-98489305D01*
X162439834Y-78299076D02*
X163765458Y-87731383D01*
%TO.N,Col6*%
X175925485Y-71594495D02*
X181304442Y-75647834D01*
X173937048Y-57446037D02*
X175925485Y-71594495D01*
X166195283Y-105020483D02*
X167742333Y-116028288D01*
X172947879Y-96059484D02*
X166195283Y-105020483D01*
X174523388Y-95838059D02*
X172947879Y-96059484D01*
X182629568Y-85076586D02*
X174522887Y-95834513D01*
X174522887Y-95834513D02*
X174523388Y-95838059D01*
X181304442Y-75647834D02*
X182629568Y-85076586D01*
%TO.N,Col7*%
X194790087Y-68943243D02*
X200169049Y-72996583D01*
X192801651Y-54794783D02*
X194790087Y-68943243D01*
X201494673Y-82428884D02*
X193387995Y-93186808D01*
X200169049Y-72996583D02*
X201494673Y-82428884D01*
X196039243Y-112051417D02*
X196039242Y-112051418D01*
X193387995Y-93186808D02*
X196039243Y-112051417D01*
%TO.N,Col8*%
X213654696Y-66291996D02*
X219033653Y-70345336D01*
X211666257Y-52143537D02*
X213654696Y-66291996D01*
X220359281Y-79777639D02*
X212252601Y-90535562D01*
X219033653Y-70345336D02*
X220359281Y-79777639D01*
%TO.N,Col9*%
X236786813Y-67017535D02*
X239438597Y-69015795D01*
X234390348Y-49965799D02*
X236786813Y-67017535D01*
X236761867Y-83930099D02*
X237343102Y-88065796D01*
X240784441Y-78591960D02*
X236761867Y-83930099D01*
X239438597Y-69015795D02*
X240784441Y-78591960D01*
X239999058Y-106963928D02*
X240200595Y-107115797D01*
X237343102Y-88065796D02*
X239999058Y-106963928D01*
%TO.N,GND*%
X135208491Y-112256664D02*
X135208491Y-112637664D01*
X136986490Y-110478663D02*
X135208491Y-112256664D01*
X143463491Y-110224663D02*
X143463491Y-112510664D01*
X143463491Y-112510664D02*
X143590491Y-112637664D01*
X143959578Y-60517762D02*
X143659578Y-60217762D01*
X148799578Y-60517762D02*
X143959578Y-60517762D01*
X140189578Y-60467762D02*
X138009578Y-60467762D01*
X141069578Y-61347762D02*
X140189578Y-60467762D01*
X138009578Y-60467762D02*
X138009578Y-64367762D01*
X137659578Y-64717762D02*
X137659578Y-64947762D01*
X138009578Y-64367762D02*
X137659578Y-64717762D01*
X150579578Y-74307762D02*
X153279578Y-74307762D01*
X148989578Y-72717762D02*
X150579578Y-74307762D01*
D15*
%TO.N,D+*%
X155104578Y-73367762D02*
X155104578Y-72044562D01*
X155104578Y-72044562D02*
X146114578Y-63054562D01*
X155404578Y-73667762D02*
X155104578Y-73367762D01*
D14*
X146114578Y-62402762D02*
X146354099Y-62163241D01*
X146114578Y-63054562D02*
X146114578Y-62402762D01*
D15*
%TO.N,D-*%
X154654578Y-73367762D02*
X154654578Y-72230962D01*
X154354578Y-73667762D02*
X154654578Y-73367762D01*
X154654578Y-72230962D02*
X145664578Y-63240962D01*
D14*
X145614578Y-63190962D02*
X145614578Y-61422762D01*
X145664578Y-63240962D02*
X145614578Y-63190962D01*
%TO.N,VBUS*%
X146819578Y-54957762D02*
X141457078Y-60320262D01*
X141457078Y-60320262D02*
X141247078Y-60320262D01*
%TO.N,Earth*%
X141284099Y-57750796D02*
X141284099Y-53570796D01*
%TD*%
M02*
