%TF.GenerationSoftware,KiCad,Pcbnew,(5.1.6-0-10_14)*%
%TF.CreationDate,2021-08-16T20:21:43-05:00*%
%TF.ProjectId,Adalyn,4164616c-796e-42e6-9b69-6361645f7063,rev?*%
%TF.SameCoordinates,Original*%
%TF.FileFunction,Legend,Bot*%
%TF.FilePolarity,Positive*%
%FSLAX46Y46*%
G04 Gerber Fmt 4.6, Leading zero omitted, Abs format (unit mm)*
G04 Created by KiCad (PCBNEW (5.1.6-0-10_14)) date 2021-08-16 20:21:43*
%MOMM*%
%LPD*%
G01*
G04 APERTURE LIST*
%ADD10C,0.120000*%
%ADD11C,0.010000*%
%ADD12C,0.150000*%
G04 APERTURE END LIST*
D10*
%TO.C,R101*%
X138227078Y-58175020D02*
X138227078Y-57700504D01*
X139272078Y-58175020D02*
X139272078Y-57700504D01*
%TO.C,U102*%
X141949578Y-64077762D02*
X141949578Y-61127762D01*
X145049578Y-61677762D02*
X145049578Y-64077762D01*
%TO.C,R102*%
X137512078Y-57710504D02*
X137512078Y-58185020D01*
X136467078Y-57710504D02*
X136467078Y-58185020D01*
%TO.C,L101*%
X151019578Y-56993041D02*
X151019578Y-56667483D01*
X152039578Y-56993041D02*
X152039578Y-56667483D01*
%TO.C,F101*%
X140079578Y-60944983D02*
X140079578Y-61270541D01*
X139059578Y-60944983D02*
X139059578Y-61270541D01*
%TO.C,SW1*%
X128701052Y-85069392D02*
X126225382Y-84721459D01*
X129942901Y-87011121D02*
X129664555Y-88991657D01*
X127935600Y-90515867D02*
X125459930Y-90167934D01*
X124496427Y-86245669D02*
X124218081Y-88226205D01*
X129084045Y-85577641D02*
X128701052Y-85069392D01*
X125717133Y-85104452D02*
X126225382Y-84721459D01*
X125076937Y-89659685D02*
X125459930Y-90167934D01*
X128443849Y-90132874D02*
X127935600Y-90515867D01*
D11*
%TO.C,G\u002A\u002A\u002A*%
G36*
X56368789Y-115058310D02*
G01*
X56245201Y-115231703D01*
X56204291Y-115312642D01*
X56052123Y-115643804D01*
X56006741Y-115306933D01*
X55946442Y-115077979D01*
X55853412Y-114938107D01*
X55828785Y-114924670D01*
X55758871Y-114917822D01*
X55736111Y-114983985D01*
X55758516Y-115156518D01*
X55802323Y-115369140D01*
X55893153Y-115671799D01*
X56000195Y-115847659D01*
X56110018Y-115882219D01*
X56194152Y-115792283D01*
X56376246Y-115444052D01*
X56486603Y-115217512D01*
X56534735Y-115085787D01*
X56530152Y-115021999D01*
X56482363Y-114999271D01*
X56475138Y-114998160D01*
X56368789Y-115058310D01*
G37*
X56368789Y-115058310D02*
X56245201Y-115231703D01*
X56204291Y-115312642D01*
X56052123Y-115643804D01*
X56006741Y-115306933D01*
X55946442Y-115077979D01*
X55853412Y-114938107D01*
X55828785Y-114924670D01*
X55758871Y-114917822D01*
X55736111Y-114983985D01*
X55758516Y-115156518D01*
X55802323Y-115369140D01*
X55893153Y-115671799D01*
X56000195Y-115847659D01*
X56110018Y-115882219D01*
X56194152Y-115792283D01*
X56376246Y-115444052D01*
X56486603Y-115217512D01*
X56534735Y-115085787D01*
X56530152Y-115021999D01*
X56482363Y-114999271D01*
X56475138Y-114998160D01*
X56368789Y-115058310D01*
G36*
X56955352Y-115081863D02*
G01*
X56732826Y-115089728D01*
X56620544Y-115163635D01*
X56582727Y-115253108D01*
X56581184Y-115493735D01*
X56702594Y-115673267D01*
X56852625Y-115735202D01*
X56975057Y-115808796D01*
X56992370Y-115883090D01*
X57021962Y-116001028D01*
X57058537Y-116020638D01*
X57114898Y-115951209D01*
X57172876Y-115759631D01*
X57207900Y-115566225D01*
X57217148Y-115500420D01*
X57017851Y-115472411D01*
X56911629Y-115562197D01*
X56860979Y-115565379D01*
X56806738Y-115486101D01*
X56805651Y-115386605D01*
X56869943Y-115250155D01*
X56969961Y-115252767D01*
X57027040Y-115332221D01*
X57017851Y-115472411D01*
X57217148Y-115500420D01*
X57273419Y-115100030D01*
X56955352Y-115081863D01*
G37*
X56955352Y-115081863D02*
X56732826Y-115089728D01*
X56620544Y-115163635D01*
X56582727Y-115253108D01*
X56581184Y-115493735D01*
X56702594Y-115673267D01*
X56852625Y-115735202D01*
X56975057Y-115808796D01*
X56992370Y-115883090D01*
X57021962Y-116001028D01*
X57058537Y-116020638D01*
X57114898Y-115951209D01*
X57172876Y-115759631D01*
X57207900Y-115566225D01*
X57217148Y-115500420D01*
X57017851Y-115472411D01*
X56911629Y-115562197D01*
X56860979Y-115565379D01*
X56806738Y-115486101D01*
X56805651Y-115386605D01*
X56869943Y-115250155D01*
X56969961Y-115252767D01*
X57027040Y-115332221D01*
X57017851Y-115472411D01*
X57217148Y-115500420D01*
X57273419Y-115100030D01*
X56955352Y-115081863D01*
G36*
X57525937Y-115171772D02*
G01*
X57431467Y-115217891D01*
X57470015Y-115288571D01*
X57596069Y-115342122D01*
X57755922Y-115428822D01*
X57790691Y-115525914D01*
X57700116Y-115584798D01*
X57597360Y-115583372D01*
X57418813Y-115592164D01*
X57376435Y-115658756D01*
X57482788Y-115741249D01*
X57543713Y-115762299D01*
X57684991Y-115860610D01*
X57696328Y-115960692D01*
X57722950Y-116090344D01*
X57780517Y-116122105D01*
X57859873Y-116080151D01*
X57920699Y-115912230D01*
X57961773Y-115677336D01*
X58026581Y-115216202D01*
X57733132Y-115174960D01*
X57525937Y-115171772D01*
G37*
X57525937Y-115171772D02*
X57431467Y-115217891D01*
X57470015Y-115288571D01*
X57596069Y-115342122D01*
X57755922Y-115428822D01*
X57790691Y-115525914D01*
X57700116Y-115584798D01*
X57597360Y-115583372D01*
X57418813Y-115592164D01*
X57376435Y-115658756D01*
X57482788Y-115741249D01*
X57543713Y-115762299D01*
X57684991Y-115860610D01*
X57696328Y-115960692D01*
X57722950Y-116090344D01*
X57780517Y-116122105D01*
X57859873Y-116080151D01*
X57920699Y-115912230D01*
X57961773Y-115677336D01*
X58026581Y-115216202D01*
X57733132Y-115174960D01*
X57525937Y-115171772D01*
G36*
X58138266Y-115513801D02*
G01*
X58128770Y-115614540D01*
X58173910Y-115838397D01*
X58174035Y-115838921D01*
X58270184Y-116093296D01*
X58392189Y-116183154D01*
X58531410Y-116106760D01*
X58644945Y-115933485D01*
X58748763Y-115769910D01*
X58851319Y-115738889D01*
X58951747Y-115781475D01*
X59090707Y-115936297D01*
X59100600Y-116091129D01*
X59106643Y-116253970D01*
X59154605Y-116315221D01*
X59217562Y-116248219D01*
X59272878Y-116066509D01*
X59285582Y-115991633D01*
X59332715Y-115656263D01*
X58962409Y-115604220D01*
X58723194Y-115583286D01*
X58588588Y-115622075D01*
X58498353Y-115741588D01*
X58483150Y-115771329D01*
X58374194Y-115990481D01*
X58348801Y-115752448D01*
X58293665Y-115574755D01*
X58205986Y-115497910D01*
X58138266Y-115513801D01*
G37*
X58138266Y-115513801D02*
X58128770Y-115614540D01*
X58173910Y-115838397D01*
X58174035Y-115838921D01*
X58270184Y-116093296D01*
X58392189Y-116183154D01*
X58531410Y-116106760D01*
X58644945Y-115933485D01*
X58748763Y-115769910D01*
X58851319Y-115738889D01*
X58951747Y-115781475D01*
X59090707Y-115936297D01*
X59100600Y-116091129D01*
X59106643Y-116253970D01*
X59154605Y-116315221D01*
X59217562Y-116248219D01*
X59272878Y-116066509D01*
X59285582Y-115991633D01*
X59332715Y-115656263D01*
X58962409Y-115604220D01*
X58723194Y-115583286D01*
X58588588Y-115622075D01*
X58498353Y-115741588D01*
X58483150Y-115771329D01*
X58374194Y-115990481D01*
X58348801Y-115752448D01*
X58293665Y-115574755D01*
X58205986Y-115497910D01*
X58138266Y-115513801D01*
G36*
X59686842Y-115721731D02*
G01*
X59525433Y-115740913D01*
X59436623Y-115840736D01*
X59382377Y-116026612D01*
X59345640Y-116230914D01*
X59385043Y-116326330D01*
X59537032Y-116368585D01*
X59613310Y-116379688D01*
X59836299Y-116381488D01*
X59967366Y-116324924D01*
X59972807Y-116316707D01*
X59990994Y-116204771D01*
X59744979Y-116170196D01*
X59726464Y-116218422D01*
X59681228Y-116218236D01*
X59616528Y-116177859D01*
X59633189Y-116154484D01*
X59734100Y-116158434D01*
X59744979Y-116170196D01*
X59990994Y-116204771D01*
X59997888Y-116162341D01*
X59976130Y-115969504D01*
X59965815Y-115944736D01*
X59780329Y-115918667D01*
X59761814Y-115966894D01*
X59716578Y-115966708D01*
X59651878Y-115926331D01*
X59668539Y-115902956D01*
X59769450Y-115906906D01*
X59780329Y-115918667D01*
X59965815Y-115944736D01*
X59901075Y-115789284D01*
X59751795Y-115725750D01*
X59686842Y-115721731D01*
G37*
X59686842Y-115721731D02*
X59525433Y-115740913D01*
X59436623Y-115840736D01*
X59382377Y-116026612D01*
X59345640Y-116230914D01*
X59385043Y-116326330D01*
X59537032Y-116368585D01*
X59613310Y-116379688D01*
X59836299Y-116381488D01*
X59967366Y-116324924D01*
X59972807Y-116316707D01*
X59990994Y-116204771D01*
X59744979Y-116170196D01*
X59726464Y-116218422D01*
X59681228Y-116218236D01*
X59616528Y-116177859D01*
X59633189Y-116154484D01*
X59734100Y-116158434D01*
X59744979Y-116170196D01*
X59990994Y-116204771D01*
X59997888Y-116162341D01*
X59976130Y-115969504D01*
X59965815Y-115944736D01*
X59780329Y-115918667D01*
X59761814Y-115966894D01*
X59716578Y-115966708D01*
X59651878Y-115926331D01*
X59668539Y-115902956D01*
X59769450Y-115906906D01*
X59780329Y-115918667D01*
X59965815Y-115944736D01*
X59901075Y-115789284D01*
X59751795Y-115725750D01*
X59686842Y-115721731D01*
G36*
X60982846Y-115647369D02*
G01*
X60850658Y-115724320D01*
X60724793Y-115904070D01*
X60713242Y-115928747D01*
X60591280Y-116202644D01*
X60535242Y-115903144D01*
X60463110Y-115691409D01*
X60359596Y-115564271D01*
X60343712Y-115556958D01*
X60261598Y-115556254D01*
X60205760Y-115645552D01*
X60160325Y-115858040D01*
X60142547Y-115977554D01*
X60124858Y-116229542D01*
X60143353Y-116401691D01*
X60185516Y-116471163D01*
X60238827Y-116415116D01*
X60285884Y-116239090D01*
X60327208Y-116009776D01*
X60385912Y-116253148D01*
X60456061Y-116430987D01*
X60538010Y-116509646D01*
X60642040Y-116453251D01*
X60754917Y-116305009D01*
X60878429Y-116087245D01*
X60854944Y-116319067D01*
X60853691Y-116514474D01*
X60892772Y-116569541D01*
X60953860Y-116502771D01*
X61018624Y-116332669D01*
X61064817Y-116107171D01*
X61095017Y-115838021D01*
X61084009Y-115697669D01*
X61025202Y-115649159D01*
X60982846Y-115647369D01*
G37*
X60982846Y-115647369D02*
X60850658Y-115724320D01*
X60724793Y-115904070D01*
X60713242Y-115928747D01*
X60591280Y-116202644D01*
X60535242Y-115903144D01*
X60463110Y-115691409D01*
X60359596Y-115564271D01*
X60343712Y-115556958D01*
X60261598Y-115556254D01*
X60205760Y-115645552D01*
X60160325Y-115858040D01*
X60142547Y-115977554D01*
X60124858Y-116229542D01*
X60143353Y-116401691D01*
X60185516Y-116471163D01*
X60238827Y-116415116D01*
X60285884Y-116239090D01*
X60327208Y-116009776D01*
X60385912Y-116253148D01*
X60456061Y-116430987D01*
X60538010Y-116509646D01*
X60642040Y-116453251D01*
X60754917Y-116305009D01*
X60878429Y-116087245D01*
X60854944Y-116319067D01*
X60853691Y-116514474D01*
X60892772Y-116569541D01*
X60953860Y-116502771D01*
X61018624Y-116332669D01*
X61064817Y-116107171D01*
X61095017Y-115838021D01*
X61084009Y-115697669D01*
X61025202Y-115649159D01*
X60982846Y-115647369D01*
G36*
X62810791Y-115957016D02*
G01*
X62787940Y-116013615D01*
X62703937Y-116106347D01*
X62605530Y-116116227D01*
X62415230Y-116161214D01*
X62288519Y-116317117D01*
X62264850Y-116527243D01*
X62280352Y-116583519D01*
X62405153Y-116734411D01*
X62637027Y-116804643D01*
X62927526Y-116845470D01*
X62974660Y-116510099D01*
X62723132Y-116474749D01*
X62665810Y-116602300D01*
X62597708Y-116606745D01*
X62514818Y-116490084D01*
X62513525Y-116445291D01*
X62597335Y-116328692D01*
X62638949Y-116313296D01*
X62717629Y-116364035D01*
X62723132Y-116474749D01*
X62974660Y-116510099D01*
X62992335Y-116384335D01*
X63020127Y-116104656D01*
X63000630Y-115955915D01*
X62931379Y-115905526D01*
X62810791Y-115957016D01*
G37*
X62810791Y-115957016D02*
X62787940Y-116013615D01*
X62703937Y-116106347D01*
X62605530Y-116116227D01*
X62415230Y-116161214D01*
X62288519Y-116317117D01*
X62264850Y-116527243D01*
X62280352Y-116583519D01*
X62405153Y-116734411D01*
X62637027Y-116804643D01*
X62927526Y-116845470D01*
X62974660Y-116510099D01*
X62723132Y-116474749D01*
X62665810Y-116602300D01*
X62597708Y-116606745D01*
X62514818Y-116490084D01*
X62513525Y-116445291D01*
X62597335Y-116328692D01*
X62638949Y-116313296D01*
X62717629Y-116364035D01*
X62723132Y-116474749D01*
X62974660Y-116510099D01*
X62992335Y-116384335D01*
X63020127Y-116104656D01*
X63000630Y-115955915D01*
X62931379Y-115905526D01*
X62810791Y-115957016D01*
G36*
X63662723Y-116299451D02*
G01*
X63527478Y-116348396D01*
X63425975Y-116489130D01*
X63379020Y-116676073D01*
X63392992Y-116842652D01*
X63472504Y-116922062D01*
X63581366Y-116863050D01*
X63634600Y-116681221D01*
X63694856Y-116504244D01*
X63778616Y-116473613D01*
X63847416Y-116578087D01*
X63865901Y-116748822D01*
X63886298Y-116937969D01*
X63942664Y-116979623D01*
X64010340Y-116884400D01*
X64064615Y-116663282D01*
X64084417Y-116446489D01*
X64044181Y-116343217D01*
X63917163Y-116300953D01*
X63876989Y-116294919D01*
X63662723Y-116299451D01*
G37*
X63662723Y-116299451D02*
X63527478Y-116348396D01*
X63425975Y-116489130D01*
X63379020Y-116676073D01*
X63392992Y-116842652D01*
X63472504Y-116922062D01*
X63581366Y-116863050D01*
X63634600Y-116681221D01*
X63694856Y-116504244D01*
X63778616Y-116473613D01*
X63847416Y-116578087D01*
X63865901Y-116748822D01*
X63886298Y-116937969D01*
X63942664Y-116979623D01*
X64010340Y-116884400D01*
X64064615Y-116663282D01*
X64084417Y-116446489D01*
X64044181Y-116343217D01*
X63917163Y-116300953D01*
X63876989Y-116294919D01*
X63662723Y-116299451D01*
G36*
X65096641Y-116287137D02*
G01*
X65038704Y-116478408D01*
X65004560Y-116667135D01*
X64982852Y-116921605D01*
X64994866Y-117094098D01*
X65023594Y-117140053D01*
X65080163Y-117070699D01*
X65138100Y-116879428D01*
X65172245Y-116690701D01*
X65193953Y-116436231D01*
X65181939Y-116263739D01*
X65153211Y-116217784D01*
X65096641Y-116287137D01*
G37*
X65096641Y-116287137D02*
X65038704Y-116478408D01*
X65004560Y-116667135D01*
X64982852Y-116921605D01*
X64994866Y-117094098D01*
X65023594Y-117140053D01*
X65080163Y-117070699D01*
X65138100Y-116879428D01*
X65172245Y-116690701D01*
X65193953Y-116436231D01*
X65181939Y-116263739D01*
X65153211Y-116217784D01*
X65096641Y-116287137D01*
G36*
X66106712Y-116407438D02*
G01*
X66044895Y-116583867D01*
X66027651Y-116687719D01*
X65979147Y-116901808D01*
X65918285Y-116971098D01*
X65901232Y-116962750D01*
X65854676Y-116835842D01*
X65858478Y-116809453D01*
X65719706Y-116789950D01*
X65635406Y-116791794D01*
X65528827Y-116761096D01*
X65531551Y-116732293D01*
X65646578Y-116728048D01*
X65693179Y-116748259D01*
X65719706Y-116789950D01*
X65858478Y-116809453D01*
X65865558Y-116760319D01*
X65852457Y-116653268D01*
X65706296Y-116595729D01*
X65656946Y-116587825D01*
X65487749Y-116581180D01*
X65398460Y-116653520D01*
X65338675Y-116847987D01*
X65335210Y-116863228D01*
X65298640Y-117067546D01*
X65337489Y-117162905D01*
X65486650Y-117204762D01*
X65556524Y-117214952D01*
X65766990Y-117216721D01*
X65897644Y-117167030D01*
X65905065Y-117157063D01*
X65951630Y-117100602D01*
X65953974Y-117163937D01*
X66019941Y-117246979D01*
X66188611Y-117301184D01*
X66394439Y-117316919D01*
X66571888Y-117284546D01*
X66613977Y-117260969D01*
X66735184Y-117084423D01*
X66733114Y-117038315D01*
X66496053Y-117004999D01*
X66438732Y-117132549D01*
X66370629Y-117136995D01*
X66342510Y-117097418D01*
X65697810Y-117006811D01*
X65679296Y-117055038D01*
X65634059Y-117054851D01*
X65569359Y-117014475D01*
X65586020Y-116991100D01*
X65686932Y-116995050D01*
X65697810Y-117006811D01*
X66342510Y-117097418D01*
X66287740Y-117020333D01*
X66286446Y-116975540D01*
X66370256Y-116858942D01*
X66411871Y-116843546D01*
X66490550Y-116894284D01*
X66496053Y-117004999D01*
X66733114Y-117038315D01*
X66726188Y-116884050D01*
X66603951Y-116719777D01*
X66442575Y-116655489D01*
X66324154Y-116580341D01*
X66309333Y-116508515D01*
X66257842Y-116387926D01*
X66201244Y-116365076D01*
X66106712Y-116407438D01*
G37*
X66106712Y-116407438D02*
X66044895Y-116583867D01*
X66027651Y-116687719D01*
X65979147Y-116901808D01*
X65918285Y-116971098D01*
X65901232Y-116962750D01*
X65854676Y-116835842D01*
X65858478Y-116809453D01*
X65719706Y-116789950D01*
X65635406Y-116791794D01*
X65528827Y-116761096D01*
X65531551Y-116732293D01*
X65646578Y-116728048D01*
X65693179Y-116748259D01*
X65719706Y-116789950D01*
X65858478Y-116809453D01*
X65865558Y-116760319D01*
X65852457Y-116653268D01*
X65706296Y-116595729D01*
X65656946Y-116587825D01*
X65487749Y-116581180D01*
X65398460Y-116653520D01*
X65338675Y-116847987D01*
X65335210Y-116863228D01*
X65298640Y-117067546D01*
X65337489Y-117162905D01*
X65486650Y-117204762D01*
X65556524Y-117214952D01*
X65766990Y-117216721D01*
X65897644Y-117167030D01*
X65905065Y-117157063D01*
X65951630Y-117100602D01*
X65953974Y-117163937D01*
X66019941Y-117246979D01*
X66188611Y-117301184D01*
X66394439Y-117316919D01*
X66571888Y-117284546D01*
X66613977Y-117260969D01*
X66735184Y-117084423D01*
X66733114Y-117038315D01*
X66496053Y-117004999D01*
X66438732Y-117132549D01*
X66370629Y-117136995D01*
X66342510Y-117097418D01*
X65697810Y-117006811D01*
X65679296Y-117055038D01*
X65634059Y-117054851D01*
X65569359Y-117014475D01*
X65586020Y-116991100D01*
X65686932Y-116995050D01*
X65697810Y-117006811D01*
X66342510Y-117097418D01*
X66287740Y-117020333D01*
X66286446Y-116975540D01*
X66370256Y-116858942D01*
X66411871Y-116843546D01*
X66490550Y-116894284D01*
X66496053Y-117004999D01*
X66733114Y-117038315D01*
X66726188Y-116884050D01*
X66603951Y-116719777D01*
X66442575Y-116655489D01*
X66324154Y-116580341D01*
X66309333Y-116508515D01*
X66257842Y-116387926D01*
X66201244Y-116365076D01*
X66106712Y-116407438D01*
G36*
X67159149Y-116603452D02*
G01*
X67019121Y-116780935D01*
X66922142Y-116958008D01*
X66804571Y-117220144D01*
X66787734Y-117356589D01*
X66876514Y-117381251D01*
X67049297Y-117320015D01*
X67211030Y-117280769D01*
X67316457Y-117357562D01*
X67449296Y-117468569D01*
X67508616Y-117489300D01*
X67562462Y-117450654D01*
X67564871Y-117296047D01*
X67539119Y-117133437D01*
X67285202Y-117097752D01*
X67248006Y-117110679D01*
X67185493Y-117032602D01*
X67184469Y-116973501D01*
X67223897Y-116860211D01*
X67275494Y-116911246D01*
X67298632Y-116989546D01*
X67285202Y-117097752D01*
X67539119Y-117133437D01*
X67524748Y-117042699D01*
X67447773Y-116743600D01*
X67353876Y-116590919D01*
X67285308Y-116560180D01*
X67159149Y-116603452D01*
G37*
X67159149Y-116603452D02*
X67019121Y-116780935D01*
X66922142Y-116958008D01*
X66804571Y-117220144D01*
X66787734Y-117356589D01*
X66876514Y-117381251D01*
X67049297Y-117320015D01*
X67211030Y-117280769D01*
X67316457Y-117357562D01*
X67449296Y-117468569D01*
X67508616Y-117489300D01*
X67562462Y-117450654D01*
X67564871Y-117296047D01*
X67539119Y-117133437D01*
X67285202Y-117097752D01*
X67248006Y-117110679D01*
X67185493Y-117032602D01*
X67184469Y-116973501D01*
X67223897Y-116860211D01*
X67275494Y-116911246D01*
X67298632Y-116989546D01*
X67285202Y-117097752D01*
X67539119Y-117133437D01*
X67524748Y-117042699D01*
X67447773Y-116743600D01*
X67353876Y-116590919D01*
X67285308Y-116560180D01*
X67159149Y-116603452D01*
G36*
X69345260Y-116876188D02*
G01*
X69327670Y-116932714D01*
X69243838Y-117027007D01*
X69152576Y-117036354D01*
X68960700Y-117071478D01*
X68867966Y-117130005D01*
X68761637Y-117204663D01*
X68734281Y-117177063D01*
X68499969Y-117144133D01*
X68481455Y-117192360D01*
X68436218Y-117192173D01*
X68371518Y-117151797D01*
X68388179Y-117128422D01*
X68489091Y-117132372D01*
X68499969Y-117144133D01*
X68734281Y-117177063D01*
X68702530Y-117145030D01*
X68685848Y-117104410D01*
X68564762Y-116959797D01*
X68398637Y-116937881D01*
X68235924Y-117020169D01*
X68125073Y-117188171D01*
X68103634Y-117326603D01*
X68174995Y-117506972D01*
X68344718Y-117600625D01*
X68552579Y-117580203D01*
X68603845Y-117553821D01*
X68711920Y-117513654D01*
X68725899Y-117564410D01*
X68781915Y-117657357D01*
X68838437Y-117676194D01*
X68947299Y-117617183D01*
X68980234Y-117504684D01*
X68451165Y-117430328D01*
X68366865Y-117432172D01*
X68260286Y-117401474D01*
X68263010Y-117372671D01*
X68378037Y-117368426D01*
X68424638Y-117388636D01*
X68451165Y-117430328D01*
X68980234Y-117504684D01*
X69000533Y-117435354D01*
X69060789Y-117258377D01*
X69144548Y-117227746D01*
X69213349Y-117332220D01*
X69231832Y-117502955D01*
X69247224Y-117695159D01*
X69294354Y-117740859D01*
X69356962Y-117655936D01*
X69418783Y-117456271D01*
X69448222Y-117291651D01*
X69469931Y-117037181D01*
X69457916Y-116864689D01*
X69429188Y-116818733D01*
X69345260Y-116876188D01*
G37*
X69345260Y-116876188D02*
X69327670Y-116932714D01*
X69243838Y-117027007D01*
X69152576Y-117036354D01*
X68960700Y-117071478D01*
X68867966Y-117130005D01*
X68761637Y-117204663D01*
X68734281Y-117177063D01*
X68499969Y-117144133D01*
X68481455Y-117192360D01*
X68436218Y-117192173D01*
X68371518Y-117151797D01*
X68388179Y-117128422D01*
X68489091Y-117132372D01*
X68499969Y-117144133D01*
X68734281Y-117177063D01*
X68702530Y-117145030D01*
X68685848Y-117104410D01*
X68564762Y-116959797D01*
X68398637Y-116937881D01*
X68235924Y-117020169D01*
X68125073Y-117188171D01*
X68103634Y-117326603D01*
X68174995Y-117506972D01*
X68344718Y-117600625D01*
X68552579Y-117580203D01*
X68603845Y-117553821D01*
X68711920Y-117513654D01*
X68725899Y-117564410D01*
X68781915Y-117657357D01*
X68838437Y-117676194D01*
X68947299Y-117617183D01*
X68980234Y-117504684D01*
X68451165Y-117430328D01*
X68366865Y-117432172D01*
X68260286Y-117401474D01*
X68263010Y-117372671D01*
X68378037Y-117368426D01*
X68424638Y-117388636D01*
X68451165Y-117430328D01*
X68980234Y-117504684D01*
X69000533Y-117435354D01*
X69060789Y-117258377D01*
X69144548Y-117227746D01*
X69213349Y-117332220D01*
X69231832Y-117502955D01*
X69247224Y-117695159D01*
X69294354Y-117740859D01*
X69356962Y-117655936D01*
X69418783Y-117456271D01*
X69448222Y-117291651D01*
X69469931Y-117037181D01*
X69457916Y-116864689D01*
X69429188Y-116818733D01*
X69345260Y-116876188D01*
G36*
X69883861Y-116979380D02*
G01*
X69743559Y-117030366D01*
X69664980Y-117080122D01*
X69563517Y-117186173D01*
X69604498Y-117249744D01*
X69671186Y-117349110D01*
X69674511Y-117492227D01*
X69621316Y-117596747D01*
X69574666Y-117608668D01*
X69484293Y-117661029D01*
X69479040Y-117680726D01*
X69539689Y-117758716D01*
X69634942Y-117788136D01*
X69764781Y-117764668D01*
X69828339Y-117619934D01*
X69836996Y-117567161D01*
X69896352Y-117380126D01*
X69983041Y-117288441D01*
X70052197Y-117241992D01*
X69996291Y-117190377D01*
X69940615Y-117093077D01*
X69956031Y-117056470D01*
X69971919Y-116986681D01*
X69883861Y-116979380D01*
G37*
X69883861Y-116979380D02*
X69743559Y-117030366D01*
X69664980Y-117080122D01*
X69563517Y-117186173D01*
X69604498Y-117249744D01*
X69671186Y-117349110D01*
X69674511Y-117492227D01*
X69621316Y-117596747D01*
X69574666Y-117608668D01*
X69484293Y-117661029D01*
X69479040Y-117680726D01*
X69539689Y-117758716D01*
X69634942Y-117788136D01*
X69764781Y-117764668D01*
X69828339Y-117619934D01*
X69836996Y-117567161D01*
X69896352Y-117380126D01*
X69983041Y-117288441D01*
X70052197Y-117241992D01*
X69996291Y-117190377D01*
X69940615Y-117093077D01*
X69956031Y-117056470D01*
X69971919Y-116986681D01*
X69883861Y-116979380D01*
G36*
X70540699Y-117260485D02*
G01*
X70475539Y-117318640D01*
X70556667Y-117405899D01*
X70624498Y-117438990D01*
X70747971Y-117567507D01*
X70755459Y-117723863D01*
X70760546Y-117889047D01*
X70808740Y-117953103D01*
X70896621Y-117898364D01*
X70906722Y-117864275D01*
X70939668Y-117809421D01*
X71007334Y-117878415D01*
X71184982Y-117997764D01*
X71402162Y-118006024D01*
X71579257Y-117901402D01*
X71586891Y-117891467D01*
X71630409Y-117763125D01*
X71413386Y-117732624D01*
X71389067Y-117778166D01*
X71289366Y-117814966D01*
X71242324Y-117772442D01*
X71220630Y-117632456D01*
X71244949Y-117586914D01*
X71344651Y-117550113D01*
X71391693Y-117592638D01*
X71413386Y-117732624D01*
X71630409Y-117763125D01*
X71656069Y-117687452D01*
X71596863Y-117501814D01*
X71449143Y-117372020D01*
X71252777Y-117335530D01*
X71073320Y-117408895D01*
X70982045Y-117455551D01*
X70972709Y-117394755D01*
X70909682Y-117313362D01*
X70736363Y-117258941D01*
X70735321Y-117258795D01*
X70540699Y-117260485D01*
G37*
X70540699Y-117260485D02*
X70475539Y-117318640D01*
X70556667Y-117405899D01*
X70624498Y-117438990D01*
X70747971Y-117567507D01*
X70755459Y-117723863D01*
X70760546Y-117889047D01*
X70808740Y-117953103D01*
X70896621Y-117898364D01*
X70906722Y-117864275D01*
X70939668Y-117809421D01*
X71007334Y-117878415D01*
X71184982Y-117997764D01*
X71402162Y-118006024D01*
X71579257Y-117901402D01*
X71586891Y-117891467D01*
X71630409Y-117763125D01*
X71413386Y-117732624D01*
X71389067Y-117778166D01*
X71289366Y-117814966D01*
X71242324Y-117772442D01*
X71220630Y-117632456D01*
X71244949Y-117586914D01*
X71344651Y-117550113D01*
X71391693Y-117592638D01*
X71413386Y-117732624D01*
X71630409Y-117763125D01*
X71656069Y-117687452D01*
X71596863Y-117501814D01*
X71449143Y-117372020D01*
X71252777Y-117335530D01*
X71073320Y-117408895D01*
X70982045Y-117455551D01*
X70972709Y-117394755D01*
X70909682Y-117313362D01*
X70736363Y-117258941D01*
X70735321Y-117258795D01*
X70540699Y-117260485D01*
G36*
X71794574Y-117190933D02*
G01*
X71765000Y-117232508D01*
X71824186Y-117313971D01*
X71899761Y-117338256D01*
X71995400Y-117366243D01*
X71930672Y-117419561D01*
X71908042Y-117431428D01*
X71820367Y-117504429D01*
X71868604Y-117559949D01*
X71929180Y-117676421D01*
X71933063Y-117861744D01*
X71933594Y-118038810D01*
X71982538Y-118118069D01*
X72052261Y-118053739D01*
X72100749Y-117885311D01*
X72156459Y-117704120D01*
X72236835Y-117622037D01*
X72278440Y-117556143D01*
X72227482Y-117428544D01*
X72118473Y-117289450D01*
X71985928Y-117189068D01*
X71925835Y-117169614D01*
X71794574Y-117190933D01*
G37*
X71794574Y-117190933D02*
X71765000Y-117232508D01*
X71824186Y-117313971D01*
X71899761Y-117338256D01*
X71995400Y-117366243D01*
X71930672Y-117419561D01*
X71908042Y-117431428D01*
X71820367Y-117504429D01*
X71868604Y-117559949D01*
X71929180Y-117676421D01*
X71933063Y-117861744D01*
X71933594Y-118038810D01*
X71982538Y-118118069D01*
X72052261Y-118053739D01*
X72100749Y-117885311D01*
X72156459Y-117704120D01*
X72236835Y-117622037D01*
X72278440Y-117556143D01*
X72227482Y-117428544D01*
X72118473Y-117289450D01*
X71985928Y-117189068D01*
X71925835Y-117169614D01*
X71794574Y-117190933D01*
G36*
X73136993Y-117356044D02*
G01*
X72923098Y-117359729D01*
X72822195Y-117423272D01*
X72784814Y-117548976D01*
X72727557Y-117750915D01*
X72670010Y-117857207D01*
X72634481Y-118003071D01*
X72734443Y-118143938D01*
X72938648Y-118245291D01*
X73040837Y-118266803D01*
X73324021Y-118306602D01*
X73359371Y-118055074D01*
X73149764Y-118025616D01*
X73017612Y-118085713D01*
X72965347Y-118085197D01*
X72863574Y-118023089D01*
X72856315Y-117984374D01*
X72936230Y-117926811D01*
X73040732Y-117924793D01*
X73152126Y-117973362D01*
X73149764Y-118025616D01*
X73359371Y-118055074D01*
X73412396Y-117677782D01*
X73244710Y-117654215D01*
X73161976Y-117755939D01*
X73101271Y-117762304D01*
X72999548Y-117679569D01*
X72993182Y-117618865D01*
X73075917Y-117517141D01*
X73136621Y-117510776D01*
X73238345Y-117593512D01*
X73244710Y-117654215D01*
X73412396Y-117677782D01*
X73455060Y-117374211D01*
X73136993Y-117356044D01*
G37*
X73136993Y-117356044D02*
X72923098Y-117359729D01*
X72822195Y-117423272D01*
X72784814Y-117548976D01*
X72727557Y-117750915D01*
X72670010Y-117857207D01*
X72634481Y-118003071D01*
X72734443Y-118143938D01*
X72938648Y-118245291D01*
X73040837Y-118266803D01*
X73324021Y-118306602D01*
X73359371Y-118055074D01*
X73149764Y-118025616D01*
X73017612Y-118085713D01*
X72965347Y-118085197D01*
X72863574Y-118023089D01*
X72856315Y-117984374D01*
X72936230Y-117926811D01*
X73040732Y-117924793D01*
X73152126Y-117973362D01*
X73149764Y-118025616D01*
X73359371Y-118055074D01*
X73412396Y-117677782D01*
X73244710Y-117654215D01*
X73161976Y-117755939D01*
X73101271Y-117762304D01*
X72999548Y-117679569D01*
X72993182Y-117618865D01*
X73075917Y-117517141D01*
X73136621Y-117510776D01*
X73238345Y-117593512D01*
X73244710Y-117654215D01*
X73412396Y-117677782D01*
X73455060Y-117374211D01*
X73136993Y-117356044D01*
G36*
X73771345Y-117472775D02*
G01*
X73619469Y-117561428D01*
X73590604Y-117626476D01*
X73621507Y-117739938D01*
X73743101Y-117727249D01*
X73814758Y-117681930D01*
X73953558Y-117646389D01*
X74045416Y-117745969D01*
X74059571Y-117939734D01*
X73989491Y-118126172D01*
X73872904Y-118192516D01*
X73753181Y-118120070D01*
X73626909Y-118012641D01*
X73539913Y-118050992D01*
X73522425Y-118111592D01*
X73570835Y-118259560D01*
X73726049Y-118349534D01*
X73930735Y-118365140D01*
X74127559Y-118290011D01*
X74133055Y-118285949D01*
X74269129Y-118100033D01*
X74302487Y-117867716D01*
X74242426Y-117646425D01*
X74098247Y-117493583D01*
X73999483Y-117461047D01*
X73771345Y-117472775D01*
G37*
X73771345Y-117472775D02*
X73619469Y-117561428D01*
X73590604Y-117626476D01*
X73621507Y-117739938D01*
X73743101Y-117727249D01*
X73814758Y-117681930D01*
X73953558Y-117646389D01*
X74045416Y-117745969D01*
X74059571Y-117939734D01*
X73989491Y-118126172D01*
X73872904Y-118192516D01*
X73753181Y-118120070D01*
X73626909Y-118012641D01*
X73539913Y-118050992D01*
X73522425Y-118111592D01*
X73570835Y-118259560D01*
X73726049Y-118349534D01*
X73930735Y-118365140D01*
X74127559Y-118290011D01*
X74133055Y-118285949D01*
X74269129Y-118100033D01*
X74302487Y-117867716D01*
X74242426Y-117646425D01*
X74098247Y-117493583D01*
X73999483Y-117461047D01*
X73771345Y-117472775D01*
G36*
X74813847Y-117591711D02*
G01*
X74591321Y-117599576D01*
X74479038Y-117673483D01*
X74441222Y-117762956D01*
X74439679Y-118003583D01*
X74561088Y-118183115D01*
X74711120Y-118245050D01*
X74833551Y-118318643D01*
X74850865Y-118392938D01*
X74880456Y-118510876D01*
X74917032Y-118530485D01*
X74973392Y-118461056D01*
X75031371Y-118269479D01*
X75066394Y-118076072D01*
X75078427Y-117990454D01*
X74887464Y-117963616D01*
X74861968Y-118009754D01*
X74744203Y-118077336D01*
X74668420Y-118003513D01*
X74664145Y-117896453D01*
X74716357Y-117764825D01*
X74766606Y-117739856D01*
X74874154Y-117822587D01*
X74887464Y-117963616D01*
X75078427Y-117990454D01*
X75131914Y-117609878D01*
X74813847Y-117591711D01*
G37*
X74813847Y-117591711D02*
X74591321Y-117599576D01*
X74479038Y-117673483D01*
X74441222Y-117762956D01*
X74439679Y-118003583D01*
X74561088Y-118183115D01*
X74711120Y-118245050D01*
X74833551Y-118318643D01*
X74850865Y-118392938D01*
X74880456Y-118510876D01*
X74917032Y-118530485D01*
X74973392Y-118461056D01*
X75031371Y-118269479D01*
X75066394Y-118076072D01*
X75078427Y-117990454D01*
X74887464Y-117963616D01*
X74861968Y-118009754D01*
X74744203Y-118077336D01*
X74668420Y-118003513D01*
X74664145Y-117896453D01*
X74716357Y-117764825D01*
X74766606Y-117739856D01*
X74874154Y-117822587D01*
X74887464Y-117963616D01*
X75078427Y-117990454D01*
X75131914Y-117609878D01*
X74813847Y-117591711D01*
G36*
X75962632Y-117840701D02*
G01*
X75822604Y-118018184D01*
X75725625Y-118195257D01*
X75608054Y-118457393D01*
X75591217Y-118593838D01*
X75679998Y-118618500D01*
X75852781Y-118557264D01*
X76014514Y-118518018D01*
X76119940Y-118594811D01*
X76252780Y-118705818D01*
X76312100Y-118726549D01*
X76365945Y-118687903D01*
X76368354Y-118533296D01*
X76342602Y-118370686D01*
X76088685Y-118335001D01*
X76051489Y-118347928D01*
X75988976Y-118269851D01*
X75987952Y-118210750D01*
X76027380Y-118097460D01*
X76078978Y-118148494D01*
X76102115Y-118226795D01*
X76088685Y-118335001D01*
X76342602Y-118370686D01*
X76328231Y-118279948D01*
X76251256Y-117980848D01*
X76157359Y-117828168D01*
X76088791Y-117797429D01*
X75962632Y-117840701D01*
G37*
X75962632Y-117840701D02*
X75822604Y-118018184D01*
X75725625Y-118195257D01*
X75608054Y-118457393D01*
X75591217Y-118593838D01*
X75679998Y-118618500D01*
X75852781Y-118557264D01*
X76014514Y-118518018D01*
X76119940Y-118594811D01*
X76252780Y-118705818D01*
X76312100Y-118726549D01*
X76365945Y-118687903D01*
X76368354Y-118533296D01*
X76342602Y-118370686D01*
X76088685Y-118335001D01*
X76051489Y-118347928D01*
X75988976Y-118269851D01*
X75987952Y-118210750D01*
X76027380Y-118097460D01*
X76078978Y-118148494D01*
X76102115Y-118226795D01*
X76088685Y-118335001D01*
X76342602Y-118370686D01*
X76328231Y-118279948D01*
X76251256Y-117980848D01*
X76157359Y-117828168D01*
X76088791Y-117797429D01*
X75962632Y-117840701D01*
G36*
X62027113Y-116104646D02*
G01*
X61930525Y-116213732D01*
X61819744Y-116390536D01*
X61786299Y-116193464D01*
X61718061Y-116034352D01*
X61639484Y-115980458D01*
X61575435Y-116000942D01*
X61567564Y-116112519D01*
X61610394Y-116339739D01*
X61675660Y-116594471D01*
X61739462Y-116788520D01*
X61758714Y-116830827D01*
X61866367Y-116933608D01*
X61992829Y-116964125D01*
X62064115Y-116905089D01*
X62064551Y-116902309D01*
X62011901Y-116798714D01*
X61980728Y-116778410D01*
X61944232Y-116701564D01*
X62003422Y-116534468D01*
X62075978Y-116399927D01*
X62185509Y-116189747D01*
X62205246Y-116084749D01*
X62153579Y-116052708D01*
X62027113Y-116104646D01*
G37*
X62027113Y-116104646D02*
X61930525Y-116213732D01*
X61819744Y-116390536D01*
X61786299Y-116193464D01*
X61718061Y-116034352D01*
X61639484Y-115980458D01*
X61575435Y-116000942D01*
X61567564Y-116112519D01*
X61610394Y-116339739D01*
X61675660Y-116594471D01*
X61739462Y-116788520D01*
X61758714Y-116830827D01*
X61866367Y-116933608D01*
X61992829Y-116964125D01*
X62064115Y-116905089D01*
X62064551Y-116902309D01*
X62011901Y-116798714D01*
X61980728Y-116778410D01*
X61944232Y-116701564D01*
X62003422Y-116534468D01*
X62075978Y-116399927D01*
X62185509Y-116189747D01*
X62205246Y-116084749D01*
X62153579Y-116052708D01*
X62027113Y-116104646D01*
G36*
X64710078Y-116481712D02*
G01*
X64613492Y-116590799D01*
X64502711Y-116767603D01*
X64469265Y-116570530D01*
X64401027Y-116411419D01*
X64322450Y-116357524D01*
X64258402Y-116378008D01*
X64250529Y-116489585D01*
X64293360Y-116716805D01*
X64358627Y-116971538D01*
X64422428Y-117165587D01*
X64441681Y-117207894D01*
X64549333Y-117310674D01*
X64675795Y-117341192D01*
X64747081Y-117282155D01*
X64747518Y-117279376D01*
X64694867Y-117175780D01*
X64663694Y-117155476D01*
X64627198Y-117078630D01*
X64686388Y-116911534D01*
X64758944Y-116776993D01*
X64868475Y-116566813D01*
X64888212Y-116461815D01*
X64836545Y-116429775D01*
X64710078Y-116481712D01*
G37*
X64710078Y-116481712D02*
X64613492Y-116590799D01*
X64502711Y-116767603D01*
X64469265Y-116570530D01*
X64401027Y-116411419D01*
X64322450Y-116357524D01*
X64258402Y-116378008D01*
X64250529Y-116489585D01*
X64293360Y-116716805D01*
X64358627Y-116971538D01*
X64422428Y-117165587D01*
X64441681Y-117207894D01*
X64549333Y-117310674D01*
X64675795Y-117341192D01*
X64747081Y-117282155D01*
X64747518Y-117279376D01*
X64694867Y-117175780D01*
X64663694Y-117155476D01*
X64627198Y-117078630D01*
X64686388Y-116911534D01*
X64758944Y-116776993D01*
X64868475Y-116566813D01*
X64888212Y-116461815D01*
X64836545Y-116429775D01*
X64710078Y-116481712D01*
G36*
X71300887Y-118379816D02*
G01*
X71234210Y-118444726D01*
X71189022Y-118612820D01*
X71157933Y-118814416D01*
X71132568Y-119118466D01*
X71164426Y-119269959D01*
X71197929Y-119290280D01*
X71283091Y-119222661D01*
X71344155Y-119007787D01*
X71349170Y-118974587D01*
X71400035Y-118754075D01*
X71468553Y-118617780D01*
X71486733Y-118604130D01*
X71584485Y-118511742D01*
X71534030Y-118420206D01*
X71411387Y-118379794D01*
X71300887Y-118379816D01*
G37*
X71300887Y-118379816D02*
X71234210Y-118444726D01*
X71189022Y-118612820D01*
X71157933Y-118814416D01*
X71132568Y-119118466D01*
X71164426Y-119269959D01*
X71197929Y-119290280D01*
X71283091Y-119222661D01*
X71344155Y-119007787D01*
X71349170Y-118974587D01*
X71400035Y-118754075D01*
X71468553Y-118617780D01*
X71486733Y-118604130D01*
X71584485Y-118511742D01*
X71534030Y-118420206D01*
X71411387Y-118379794D01*
X71300887Y-118379816D01*
G36*
X71947960Y-118499828D02*
G01*
X71788709Y-118566641D01*
X71735850Y-118656634D01*
X71768105Y-118821386D01*
X71871242Y-119016029D01*
X72026270Y-119235699D01*
X71843970Y-119210079D01*
X71695404Y-119222412D01*
X71649886Y-119268300D01*
X71716888Y-119331256D01*
X71898597Y-119386573D01*
X71973473Y-119399276D01*
X72186203Y-119409351D01*
X72309841Y-119377210D01*
X72321163Y-119358756D01*
X72282540Y-119237700D01*
X72171784Y-119057069D01*
X72153333Y-119032037D01*
X72018209Y-118815033D01*
X71993546Y-118679342D01*
X72079523Y-118644692D01*
X72151963Y-118719935D01*
X72151582Y-118740318D01*
X72209038Y-118824245D01*
X72265563Y-118841835D01*
X72384973Y-118813503D01*
X72378508Y-118699294D01*
X72301876Y-118591364D01*
X72142782Y-118505329D01*
X71947960Y-118499828D01*
G37*
X71947960Y-118499828D02*
X71788709Y-118566641D01*
X71735850Y-118656634D01*
X71768105Y-118821386D01*
X71871242Y-119016029D01*
X72026270Y-119235699D01*
X71843970Y-119210079D01*
X71695404Y-119222412D01*
X71649886Y-119268300D01*
X71716888Y-119331256D01*
X71898597Y-119386573D01*
X71973473Y-119399276D01*
X72186203Y-119409351D01*
X72309841Y-119377210D01*
X72321163Y-119358756D01*
X72282540Y-119237700D01*
X72171784Y-119057069D01*
X72153333Y-119032037D01*
X72018209Y-118815033D01*
X71993546Y-118679342D01*
X72079523Y-118644692D01*
X72151963Y-118719935D01*
X72151582Y-118740318D01*
X72209038Y-118824245D01*
X72265563Y-118841835D01*
X72384973Y-118813503D01*
X72378508Y-118699294D01*
X72301876Y-118591364D01*
X72142782Y-118505329D01*
X71947960Y-118499828D01*
G36*
X72711128Y-118686229D02*
G01*
X72577411Y-118811687D01*
X72476103Y-118975829D01*
X72479864Y-119121471D01*
X72535227Y-119254626D01*
X72664380Y-119431763D01*
X72811900Y-119517109D01*
X72980475Y-119474043D01*
X73150206Y-119341056D01*
X73266962Y-119180140D01*
X73272056Y-119098642D01*
X73041548Y-119066246D01*
X72984284Y-119254195D01*
X72885366Y-119342067D01*
X72795326Y-119294767D01*
X72747865Y-119144620D01*
X72751926Y-119031313D01*
X72817313Y-118842672D01*
X72910911Y-118804285D01*
X73015689Y-118890604D01*
X73041548Y-119066246D01*
X73272056Y-119098642D01*
X73275965Y-119036075D01*
X73231748Y-118903648D01*
X73081483Y-118695444D01*
X72935625Y-118636761D01*
X72711128Y-118686229D01*
G37*
X72711128Y-118686229D02*
X72577411Y-118811687D01*
X72476103Y-118975829D01*
X72479864Y-119121471D01*
X72535227Y-119254626D01*
X72664380Y-119431763D01*
X72811900Y-119517109D01*
X72980475Y-119474043D01*
X73150206Y-119341056D01*
X73266962Y-119180140D01*
X73272056Y-119098642D01*
X73041548Y-119066246D01*
X72984284Y-119254195D01*
X72885366Y-119342067D01*
X72795326Y-119294767D01*
X72747865Y-119144620D01*
X72751926Y-119031313D01*
X72817313Y-118842672D01*
X72910911Y-118804285D01*
X73015689Y-118890604D01*
X73041548Y-119066246D01*
X73272056Y-119098642D01*
X73275965Y-119036075D01*
X73231748Y-118903648D01*
X73081483Y-118695444D01*
X72935625Y-118636761D01*
X72711128Y-118686229D01*
G36*
X73500356Y-118744347D02*
G01*
X73423957Y-118793982D01*
X73359067Y-118890888D01*
X73389763Y-119016758D01*
X73502115Y-119189711D01*
X73705267Y-119471667D01*
X73479974Y-119440004D01*
X73311277Y-119443696D01*
X73242897Y-119492183D01*
X73310808Y-119552716D01*
X73496192Y-119609357D01*
X73608406Y-119629051D01*
X73834594Y-119652933D01*
X73972302Y-119652283D01*
X73991179Y-119643072D01*
X73952044Y-119555642D01*
X73846454Y-119377766D01*
X73776023Y-119267967D01*
X73658494Y-119056348D01*
X73616446Y-118913077D01*
X73648951Y-118864539D01*
X73755078Y-118937120D01*
X73786515Y-118970093D01*
X73918706Y-119055639D01*
X73990438Y-118994837D01*
X73984356Y-118873337D01*
X73882801Y-118754410D01*
X73697028Y-118707953D01*
X73500356Y-118744347D01*
G37*
X73500356Y-118744347D02*
X73423957Y-118793982D01*
X73359067Y-118890888D01*
X73389763Y-119016758D01*
X73502115Y-119189711D01*
X73705267Y-119471667D01*
X73479974Y-119440004D01*
X73311277Y-119443696D01*
X73242897Y-119492183D01*
X73310808Y-119552716D01*
X73496192Y-119609357D01*
X73608406Y-119629051D01*
X73834594Y-119652933D01*
X73972302Y-119652283D01*
X73991179Y-119643072D01*
X73952044Y-119555642D01*
X73846454Y-119377766D01*
X73776023Y-119267967D01*
X73658494Y-119056348D01*
X73616446Y-118913077D01*
X73648951Y-118864539D01*
X73755078Y-118937120D01*
X73786515Y-118970093D01*
X73918706Y-119055639D01*
X73990438Y-118994837D01*
X73984356Y-118873337D01*
X73882801Y-118754410D01*
X73697028Y-118707953D01*
X73500356Y-118744347D01*
G36*
X75187607Y-118954299D02*
G01*
X75035729Y-119042951D01*
X75006865Y-119108000D01*
X75037769Y-119221461D01*
X75159362Y-119208772D01*
X75231018Y-119163454D01*
X75369819Y-119127912D01*
X75461677Y-119227492D01*
X75475832Y-119421257D01*
X75405751Y-119607695D01*
X75289164Y-119674039D01*
X75169442Y-119601594D01*
X75043171Y-119494165D01*
X74956175Y-119532516D01*
X74938687Y-119593116D01*
X74987096Y-119741084D01*
X75142311Y-119831057D01*
X75346997Y-119846664D01*
X75543821Y-119771534D01*
X75549316Y-119767473D01*
X75685390Y-119581556D01*
X75718747Y-119349240D01*
X75658688Y-119127948D01*
X75514508Y-118975107D01*
X75415745Y-118942570D01*
X75187607Y-118954299D01*
G37*
X75187607Y-118954299D02*
X75035729Y-119042951D01*
X75006865Y-119108000D01*
X75037769Y-119221461D01*
X75159362Y-119208772D01*
X75231018Y-119163454D01*
X75369819Y-119127912D01*
X75461677Y-119227492D01*
X75475832Y-119421257D01*
X75405751Y-119607695D01*
X75289164Y-119674039D01*
X75169442Y-119601594D01*
X75043171Y-119494165D01*
X74956175Y-119532516D01*
X74938687Y-119593116D01*
X74987096Y-119741084D01*
X75142311Y-119831057D01*
X75346997Y-119846664D01*
X75543821Y-119771534D01*
X75549316Y-119767473D01*
X75685390Y-119581556D01*
X75718747Y-119349240D01*
X75658688Y-119127948D01*
X75514508Y-118975107D01*
X75415745Y-118942570D01*
X75187607Y-118954299D01*
G36*
X74768756Y-118916297D02*
G01*
X74661336Y-119044052D01*
X74572344Y-119247533D01*
X74538914Y-119395868D01*
X74541534Y-119600526D01*
X74590595Y-119789436D01*
X74665793Y-119909256D01*
X74736777Y-119915706D01*
X74761471Y-119810861D01*
X74738936Y-119620188D01*
X74738434Y-119617941D01*
X74728223Y-119348193D01*
X74808093Y-119165495D01*
X74881383Y-118996406D01*
X74864962Y-118908570D01*
X74768756Y-118916297D01*
G37*
X74768756Y-118916297D02*
X74661336Y-119044052D01*
X74572344Y-119247533D01*
X74538914Y-119395868D01*
X74541534Y-119600526D01*
X74590595Y-119789436D01*
X74665793Y-119909256D01*
X74736777Y-119915706D01*
X74761471Y-119810861D01*
X74738936Y-119620188D01*
X74738434Y-119617941D01*
X74728223Y-119348193D01*
X74808093Y-119165495D01*
X74881383Y-118996406D01*
X74864962Y-118908570D01*
X74768756Y-118916297D01*
G36*
X75952872Y-119061440D02*
G01*
X75906296Y-119165388D01*
X75922704Y-119330470D01*
X75912733Y-119656191D01*
X75860376Y-119787037D01*
X75799034Y-119972419D01*
X75823724Y-120073117D01*
X75912172Y-120057952D01*
X75992611Y-119972144D01*
X76084339Y-119777653D01*
X76129172Y-119542183D01*
X76129136Y-119312097D01*
X76086251Y-119133757D01*
X76002544Y-119053527D01*
X75952872Y-119061440D01*
G37*
X75952872Y-119061440D02*
X75906296Y-119165388D01*
X75922704Y-119330470D01*
X75912733Y-119656191D01*
X75860376Y-119787037D01*
X75799034Y-119972419D01*
X75823724Y-120073117D01*
X75912172Y-120057952D01*
X75992611Y-119972144D01*
X76084339Y-119777653D01*
X76129172Y-119542183D01*
X76129136Y-119312097D01*
X76086251Y-119133757D01*
X76002544Y-119053527D01*
X75952872Y-119061440D01*
G36*
X226327643Y-106495304D02*
G01*
X226346841Y-106584654D01*
X226409824Y-106682768D01*
X226466027Y-106732704D01*
X226553596Y-106784001D01*
X226591400Y-106767156D01*
X226605709Y-106719431D01*
X226583163Y-106623636D01*
X226504533Y-106521916D01*
X226407808Y-106456679D01*
X226365180Y-106450901D01*
X226327643Y-106495304D01*
G37*
X226327643Y-106495304D02*
X226346841Y-106584654D01*
X226409824Y-106682768D01*
X226466027Y-106732704D01*
X226553596Y-106784001D01*
X226591400Y-106767156D01*
X226605709Y-106719431D01*
X226583163Y-106623636D01*
X226504533Y-106521916D01*
X226407808Y-106456679D01*
X226365180Y-106450901D01*
X226327643Y-106495304D01*
G36*
X226026214Y-106698112D02*
G01*
X226015236Y-106751313D01*
X226060532Y-106828425D01*
X226173248Y-106944206D01*
X226293503Y-107052041D01*
X226485125Y-107212302D01*
X226611199Y-107299136D01*
X226680256Y-107316258D01*
X226700825Y-107267381D01*
X226697006Y-107227753D01*
X226650901Y-107149406D01*
X226543235Y-107029538D01*
X226396424Y-106892856D01*
X226382004Y-106880529D01*
X226217806Y-106748464D01*
X226112128Y-106684238D01*
X226048523Y-106679421D01*
X226026214Y-106698112D01*
G37*
X226026214Y-106698112D02*
X226015236Y-106751313D01*
X226060532Y-106828425D01*
X226173248Y-106944206D01*
X226293503Y-107052041D01*
X226485125Y-107212302D01*
X226611199Y-107299136D01*
X226680256Y-107316258D01*
X226700825Y-107267381D01*
X226697006Y-107227753D01*
X226650901Y-107149406D01*
X226543235Y-107029538D01*
X226396424Y-106892856D01*
X226382004Y-106880529D01*
X226217806Y-106748464D01*
X226112128Y-106684238D01*
X226048523Y-106679421D01*
X226026214Y-106698112D01*
G36*
X225686486Y-106900215D02*
G01*
X225686646Y-106942475D01*
X225727051Y-106997992D01*
X225828116Y-107103404D01*
X225969952Y-107240573D01*
X226132675Y-107391365D01*
X226296397Y-107537645D01*
X226441231Y-107661277D01*
X226547289Y-107744126D01*
X226592863Y-107768882D01*
X226623051Y-107722388D01*
X226634851Y-107682742D01*
X226603610Y-107607085D01*
X226494440Y-107478024D01*
X226315859Y-107305125D01*
X226232086Y-107230372D01*
X225997894Y-107033850D01*
X225831480Y-106914681D01*
X225728969Y-106870818D01*
X225686486Y-106900215D01*
G37*
X225686486Y-106900215D02*
X225686646Y-106942475D01*
X225727051Y-106997992D01*
X225828116Y-107103404D01*
X225969952Y-107240573D01*
X226132675Y-107391365D01*
X226296397Y-107537645D01*
X226441231Y-107661277D01*
X226547289Y-107744126D01*
X226592863Y-107768882D01*
X226623051Y-107722388D01*
X226634851Y-107682742D01*
X226603610Y-107607085D01*
X226494440Y-107478024D01*
X226315859Y-107305125D01*
X226232086Y-107230372D01*
X225997894Y-107033850D01*
X225831480Y-106914681D01*
X225728969Y-106870818D01*
X225686486Y-106900215D01*
G36*
X225398463Y-107089911D02*
G01*
X225392131Y-107151528D01*
X225393216Y-107159953D01*
X225434874Y-107222431D01*
X225537254Y-107333826D01*
X225679814Y-107475139D01*
X225842016Y-107627367D01*
X226003321Y-107771511D01*
X226143192Y-107888566D01*
X226241086Y-107959533D01*
X226271065Y-107972088D01*
X226311488Y-107927693D01*
X226324996Y-107887477D01*
X226293148Y-107810789D01*
X226180236Y-107680539D01*
X225993034Y-107504168D01*
X225910935Y-107432677D01*
X225690719Y-107248578D01*
X225538244Y-107133424D01*
X225443996Y-107082207D01*
X225398463Y-107089911D01*
G37*
X225398463Y-107089911D02*
X225392131Y-107151528D01*
X225393216Y-107159953D01*
X225434874Y-107222431D01*
X225537254Y-107333826D01*
X225679814Y-107475139D01*
X225842016Y-107627367D01*
X226003321Y-107771511D01*
X226143192Y-107888566D01*
X226241086Y-107959533D01*
X226271065Y-107972088D01*
X226311488Y-107927693D01*
X226324996Y-107887477D01*
X226293148Y-107810789D01*
X226180236Y-107680539D01*
X225993034Y-107504168D01*
X225910935Y-107432677D01*
X225690719Y-107248578D01*
X225538244Y-107133424D01*
X225443996Y-107082207D01*
X225398463Y-107089911D01*
G36*
X225083189Y-107319985D02*
G01*
X225075765Y-107376302D01*
X225130756Y-107461127D01*
X225258504Y-107588331D01*
X225332716Y-107654556D01*
X225508314Y-107808426D01*
X225676535Y-107955973D01*
X225799267Y-108063766D01*
X225905255Y-108149385D01*
X225959651Y-108164746D01*
X225985816Y-108115881D01*
X225986732Y-108112152D01*
X225990626Y-108058415D01*
X225967574Y-107999524D01*
X225905590Y-107922126D01*
X225792689Y-107812866D01*
X225616884Y-107658390D01*
X225457691Y-107522741D01*
X225284157Y-107383213D01*
X225170993Y-107312714D01*
X225104038Y-107303577D01*
X225083189Y-107319985D01*
G37*
X225083189Y-107319985D02*
X225075765Y-107376302D01*
X225130756Y-107461127D01*
X225258504Y-107588331D01*
X225332716Y-107654556D01*
X225508314Y-107808426D01*
X225676535Y-107955973D01*
X225799267Y-108063766D01*
X225905255Y-108149385D01*
X225959651Y-108164746D01*
X225985816Y-108115881D01*
X225986732Y-108112152D01*
X225990626Y-108058415D01*
X225967574Y-107999524D01*
X225905590Y-107922126D01*
X225792689Y-107812866D01*
X225616884Y-107658390D01*
X225457691Y-107522741D01*
X225284157Y-107383213D01*
X225170993Y-107312714D01*
X225104038Y-107303577D01*
X225083189Y-107319985D01*
G36*
X224783411Y-107529315D02*
G01*
X224764881Y-107568522D01*
X224775516Y-107616218D01*
X224826194Y-107684908D01*
X224927795Y-107787096D01*
X225091197Y-107935284D01*
X225282791Y-108103255D01*
X225487552Y-108279798D01*
X225627280Y-108393351D01*
X225716465Y-108452438D01*
X225769591Y-108465585D01*
X225801148Y-108441314D01*
X225814192Y-108415943D01*
X225822114Y-108382395D01*
X225808102Y-108342223D01*
X225760598Y-108283463D01*
X225668043Y-108194147D01*
X225518880Y-108062307D01*
X225301549Y-107875978D01*
X225251381Y-107833245D01*
X225040540Y-107662473D01*
X224887431Y-107557379D01*
X224799080Y-107522523D01*
X224783411Y-107529315D01*
G37*
X224783411Y-107529315D02*
X224764881Y-107568522D01*
X224775516Y-107616218D01*
X224826194Y-107684908D01*
X224927795Y-107787096D01*
X225091197Y-107935284D01*
X225282791Y-108103255D01*
X225487552Y-108279798D01*
X225627280Y-108393351D01*
X225716465Y-108452438D01*
X225769591Y-108465585D01*
X225801148Y-108441314D01*
X225814192Y-108415943D01*
X225822114Y-108382395D01*
X225808102Y-108342223D01*
X225760598Y-108283463D01*
X225668043Y-108194147D01*
X225518880Y-108062307D01*
X225301549Y-107875978D01*
X225251381Y-107833245D01*
X225040540Y-107662473D01*
X224887431Y-107557379D01*
X224799080Y-107522523D01*
X224783411Y-107529315D01*
G36*
X223874117Y-108233009D02*
G01*
X223877077Y-108275246D01*
X223920266Y-108338407D01*
X224023995Y-108441573D01*
X224167297Y-108567923D01*
X224329205Y-108700636D01*
X224488755Y-108822892D01*
X224624977Y-108917871D01*
X224716906Y-108968753D01*
X224743117Y-108970027D01*
X224765753Y-108924926D01*
X224756077Y-108874017D01*
X224702316Y-108802603D01*
X224592695Y-108695986D01*
X224415444Y-108539465D01*
X224359491Y-108491081D01*
X224142899Y-108313183D01*
X223993116Y-108212353D01*
X223905176Y-108186368D01*
X223874117Y-108233009D01*
G37*
X223874117Y-108233009D02*
X223877077Y-108275246D01*
X223920266Y-108338407D01*
X224023995Y-108441573D01*
X224167297Y-108567923D01*
X224329205Y-108700636D01*
X224488755Y-108822892D01*
X224624977Y-108917871D01*
X224716906Y-108968753D01*
X224743117Y-108970027D01*
X224765753Y-108924926D01*
X224756077Y-108874017D01*
X224702316Y-108802603D01*
X224592695Y-108695986D01*
X224415444Y-108539465D01*
X224359491Y-108491081D01*
X224142899Y-108313183D01*
X223993116Y-108212353D01*
X223905176Y-108186368D01*
X223874117Y-108233009D01*
G36*
X223980348Y-108764432D02*
G01*
X224000638Y-108857510D01*
X224102794Y-108989735D01*
X224145073Y-109031840D01*
X224288338Y-109157292D01*
X224380555Y-109205643D01*
X224437974Y-109182916D01*
X224458215Y-109147913D01*
X224436512Y-109083962D01*
X224358672Y-108981266D01*
X224251962Y-108868023D01*
X224143653Y-108772428D01*
X224061013Y-108722678D01*
X224045266Y-108720914D01*
X223980348Y-108764432D01*
G37*
X223980348Y-108764432D02*
X224000638Y-108857510D01*
X224102794Y-108989735D01*
X224145073Y-109031840D01*
X224288338Y-109157292D01*
X224380555Y-109205643D01*
X224437974Y-109182916D01*
X224458215Y-109147913D01*
X224436512Y-109083962D01*
X224358672Y-108981266D01*
X224251962Y-108868023D01*
X224143653Y-108772428D01*
X224061013Y-108722678D01*
X224045266Y-108720914D01*
X223980348Y-108764432D01*
G36*
X224442979Y-107724301D02*
G01*
X224480885Y-107814233D01*
X224601943Y-107958661D01*
X224807808Y-108159543D01*
X225100133Y-108418835D01*
X225118970Y-108435017D01*
X225342019Y-108624593D01*
X225537835Y-108787727D01*
X225691637Y-108912362D01*
X225788641Y-108986445D01*
X225813803Y-109001705D01*
X225874098Y-108971084D01*
X225886688Y-108949858D01*
X225893546Y-108924176D01*
X225884679Y-108892805D01*
X225850262Y-108846089D01*
X225780471Y-108774378D01*
X225665480Y-108668020D01*
X225495464Y-108517362D01*
X225260598Y-108312751D01*
X225070258Y-108147767D01*
X224868047Y-107975795D01*
X224693505Y-107833307D01*
X224562889Y-107733138D01*
X224492456Y-107688123D01*
X224486570Y-107686907D01*
X224442979Y-107724301D01*
G37*
X224442979Y-107724301D02*
X224480885Y-107814233D01*
X224601943Y-107958661D01*
X224807808Y-108159543D01*
X225100133Y-108418835D01*
X225118970Y-108435017D01*
X225342019Y-108624593D01*
X225537835Y-108787727D01*
X225691637Y-108912362D01*
X225788641Y-108986445D01*
X225813803Y-109001705D01*
X225874098Y-108971084D01*
X225886688Y-108949858D01*
X225893546Y-108924176D01*
X225884679Y-108892805D01*
X225850262Y-108846089D01*
X225780471Y-108774378D01*
X225665480Y-108668020D01*
X225495464Y-108517362D01*
X225260598Y-108312751D01*
X225070258Y-108147767D01*
X224868047Y-107975795D01*
X224693505Y-107833307D01*
X224562889Y-107733138D01*
X224492456Y-107688123D01*
X224486570Y-107686907D01*
X224442979Y-107724301D01*
G36*
X224071876Y-109299391D02*
G01*
X224060073Y-109339824D01*
X224068555Y-109408165D01*
X224092047Y-109416329D01*
X224131529Y-109367017D01*
X224132175Y-109329691D01*
X224110916Y-109260633D01*
X224100201Y-109253185D01*
X224071876Y-109299391D01*
G37*
X224071876Y-109299391D02*
X224060073Y-109339824D01*
X224068555Y-109408165D01*
X224092047Y-109416329D01*
X224131529Y-109367017D01*
X224132175Y-109329691D01*
X224110916Y-109260633D01*
X224100201Y-109253185D01*
X224071876Y-109299391D01*
G36*
X223104013Y-108942542D02*
G01*
X223139455Y-109036008D01*
X223247978Y-109170927D01*
X223422642Y-109336897D01*
X223461399Y-109369963D01*
X223628271Y-109505434D01*
X223732513Y-109575450D01*
X223789408Y-109587816D01*
X223814238Y-109550340D01*
X223814266Y-109550215D01*
X223795384Y-109467374D01*
X223702055Y-109348021D01*
X223526401Y-109182185D01*
X223516542Y-109173563D01*
X223360644Y-109043267D01*
X223233284Y-108947267D01*
X223157002Y-108902264D01*
X223148588Y-108900933D01*
X223104013Y-108942542D01*
G37*
X223104013Y-108942542D02*
X223139455Y-109036008D01*
X223247978Y-109170927D01*
X223422642Y-109336897D01*
X223461399Y-109369963D01*
X223628271Y-109505434D01*
X223732513Y-109575450D01*
X223789408Y-109587816D01*
X223814238Y-109550340D01*
X223814266Y-109550215D01*
X223795384Y-109467374D01*
X223702055Y-109348021D01*
X223526401Y-109182185D01*
X223516542Y-109173563D01*
X223360644Y-109043267D01*
X223233284Y-108947267D01*
X223157002Y-108902264D01*
X223148588Y-108900933D01*
X223104013Y-108942542D01*
G36*
X224154331Y-107934200D02*
G01*
X224140099Y-107973092D01*
X224173719Y-108040550D01*
X224288418Y-108169006D01*
X224480271Y-108354554D01*
X224745355Y-108593292D01*
X224891261Y-108720293D01*
X225210017Y-108995123D01*
X225457143Y-109207051D01*
X225642051Y-109362957D01*
X225774152Y-109469723D01*
X225862858Y-109534233D01*
X225917581Y-109563368D01*
X225947733Y-109564010D01*
X225962726Y-109543041D01*
X225971336Y-109510078D01*
X225943795Y-109396299D01*
X225842719Y-109288563D01*
X225753187Y-109213417D01*
X225599299Y-109082515D01*
X225397625Y-108910023D01*
X225164734Y-108710107D01*
X224964501Y-108537725D01*
X224728927Y-108335897D01*
X224520773Y-108159917D01*
X224353693Y-108021143D01*
X224241348Y-107930930D01*
X224198292Y-107900638D01*
X224154331Y-107934200D01*
G37*
X224154331Y-107934200D02*
X224140099Y-107973092D01*
X224173719Y-108040550D01*
X224288418Y-108169006D01*
X224480271Y-108354554D01*
X224745355Y-108593292D01*
X224891261Y-108720293D01*
X225210017Y-108995123D01*
X225457143Y-109207051D01*
X225642051Y-109362957D01*
X225774152Y-109469723D01*
X225862858Y-109534233D01*
X225917581Y-109563368D01*
X225947733Y-109564010D01*
X225962726Y-109543041D01*
X225971336Y-109510078D01*
X225943795Y-109396299D01*
X225842719Y-109288563D01*
X225753187Y-109213417D01*
X225599299Y-109082515D01*
X225397625Y-108910023D01*
X225164734Y-108710107D01*
X224964501Y-108537725D01*
X224728927Y-108335897D01*
X224520773Y-108159917D01*
X224353693Y-108021143D01*
X224241348Y-107930930D01*
X224198292Y-107900638D01*
X224154331Y-107934200D01*
G36*
X211184402Y-110125173D02*
G01*
X211197870Y-110183626D01*
X211256712Y-110304127D01*
X211364576Y-110501861D01*
X211369756Y-110511219D01*
X211499131Y-110744911D01*
X211383222Y-110951168D01*
X211267314Y-111157427D01*
X211593922Y-111327109D01*
X211648506Y-111204428D01*
X211684886Y-111136189D01*
X211719695Y-111134960D01*
X211772457Y-111211486D01*
X211820921Y-111299323D01*
X211921474Y-111446778D01*
X212032897Y-111556656D01*
X212068966Y-111578914D01*
X212161893Y-111613924D01*
X212194720Y-111609201D01*
X212168647Y-111549817D01*
X212104226Y-111423375D01*
X212014975Y-111256344D01*
X212007780Y-111243142D01*
X211825297Y-110908810D01*
X211932625Y-110717822D01*
X212039952Y-110526833D01*
X211887158Y-110454824D01*
X211777854Y-110410586D01*
X211720940Y-110422115D01*
X211682448Y-110479740D01*
X211643662Y-110528940D01*
X211600213Y-110508183D01*
X211532607Y-110405497D01*
X211516663Y-110377900D01*
X211416125Y-110241407D01*
X211306446Y-110147033D01*
X211278985Y-110133691D01*
X211212657Y-110113588D01*
X211184402Y-110125173D01*
G37*
X211184402Y-110125173D02*
X211197870Y-110183626D01*
X211256712Y-110304127D01*
X211364576Y-110501861D01*
X211369756Y-110511219D01*
X211499131Y-110744911D01*
X211383222Y-110951168D01*
X211267314Y-111157427D01*
X211593922Y-111327109D01*
X211648506Y-111204428D01*
X211684886Y-111136189D01*
X211719695Y-111134960D01*
X211772457Y-111211486D01*
X211820921Y-111299323D01*
X211921474Y-111446778D01*
X212032897Y-111556656D01*
X212068966Y-111578914D01*
X212161893Y-111613924D01*
X212194720Y-111609201D01*
X212168647Y-111549817D01*
X212104226Y-111423375D01*
X212014975Y-111256344D01*
X212007780Y-111243142D01*
X211825297Y-110908810D01*
X211932625Y-110717822D01*
X212039952Y-110526833D01*
X211887158Y-110454824D01*
X211777854Y-110410586D01*
X211720940Y-110422115D01*
X211682448Y-110479740D01*
X211643662Y-110528940D01*
X211600213Y-110508183D01*
X211532607Y-110405497D01*
X211516663Y-110377900D01*
X211416125Y-110241407D01*
X211306446Y-110147033D01*
X211278985Y-110133691D01*
X211212657Y-110113588D01*
X211184402Y-110125173D01*
G36*
X221863694Y-109770349D02*
G01*
X221845447Y-109810294D01*
X221858496Y-109859132D01*
X221914290Y-109930113D01*
X222024278Y-110036489D01*
X222199908Y-110191510D01*
X222308066Y-110284668D01*
X222454542Y-110402913D01*
X222541148Y-110451269D01*
X222582368Y-110436717D01*
X222588368Y-110419786D01*
X222589466Y-110357725D01*
X222555011Y-110287252D01*
X222472006Y-110192857D01*
X222327454Y-110059037D01*
X222176317Y-109928153D01*
X222018410Y-109803902D01*
X221918440Y-109753465D01*
X221863694Y-109770349D01*
G37*
X221863694Y-109770349D02*
X221845447Y-109810294D01*
X221858496Y-109859132D01*
X221914290Y-109930113D01*
X222024278Y-110036489D01*
X222199908Y-110191510D01*
X222308066Y-110284668D01*
X222454542Y-110402913D01*
X222541148Y-110451269D01*
X222582368Y-110436717D01*
X222588368Y-110419786D01*
X222589466Y-110357725D01*
X222555011Y-110287252D01*
X222472006Y-110192857D01*
X222327454Y-110059037D01*
X222176317Y-109928153D01*
X222018410Y-109803902D01*
X221918440Y-109753465D01*
X221863694Y-109770349D01*
G36*
X222043469Y-109468919D02*
G01*
X222085664Y-109565484D01*
X222214946Y-109715329D01*
X222429752Y-109916368D01*
X222506683Y-109982979D01*
X222690258Y-110139984D01*
X222844101Y-110272073D01*
X222949696Y-110363316D01*
X222986830Y-110396045D01*
X223047707Y-110399709D01*
X223056417Y-110390765D01*
X223079877Y-110303892D01*
X223078646Y-110286372D01*
X223036496Y-110227498D01*
X222931424Y-110120276D01*
X222783294Y-109981959D01*
X222611968Y-109829794D01*
X222437307Y-109681031D01*
X222279174Y-109552919D01*
X222157432Y-109462709D01*
X222091943Y-109427649D01*
X222089921Y-109427714D01*
X222043469Y-109468919D01*
G37*
X222043469Y-109468919D02*
X222085664Y-109565484D01*
X222214946Y-109715329D01*
X222429752Y-109916368D01*
X222506683Y-109982979D01*
X222690258Y-110139984D01*
X222844101Y-110272073D01*
X222949696Y-110363316D01*
X222986830Y-110396045D01*
X223047707Y-110399709D01*
X223056417Y-110390765D01*
X223079877Y-110303892D01*
X223078646Y-110286372D01*
X223036496Y-110227498D01*
X222931424Y-110120276D01*
X222783294Y-109981959D01*
X222611968Y-109829794D01*
X222437307Y-109681031D01*
X222279174Y-109552919D01*
X222157432Y-109462709D01*
X222091943Y-109427649D01*
X222089921Y-109427714D01*
X222043469Y-109468919D01*
G36*
X222616518Y-108997193D02*
G01*
X222620049Y-109040424D01*
X222661082Y-109107602D01*
X222746354Y-109205147D01*
X222882601Y-109339475D01*
X223076561Y-109517007D01*
X223334966Y-109744161D01*
X223664556Y-110027356D01*
X223968513Y-110285464D01*
X224043003Y-110315779D01*
X224069647Y-110302750D01*
X224089635Y-110256659D01*
X224077419Y-110199295D01*
X224023866Y-110120455D01*
X223919851Y-110009937D01*
X223756241Y-109857538D01*
X223523909Y-109653052D01*
X223367922Y-109518466D01*
X223104539Y-109294453D01*
X222909944Y-109135332D01*
X222773864Y-109033976D01*
X222686021Y-108983254D01*
X222636143Y-108976042D01*
X222616518Y-108997193D01*
G37*
X222616518Y-108997193D02*
X222620049Y-109040424D01*
X222661082Y-109107602D01*
X222746354Y-109205147D01*
X222882601Y-109339475D01*
X223076561Y-109517007D01*
X223334966Y-109744161D01*
X223664556Y-110027356D01*
X223968513Y-110285464D01*
X224043003Y-110315779D01*
X224069647Y-110302750D01*
X224089635Y-110256659D01*
X224077419Y-110199295D01*
X224023866Y-110120455D01*
X223919851Y-110009937D01*
X223756241Y-109857538D01*
X223523909Y-109653052D01*
X223367922Y-109518466D01*
X223104539Y-109294453D01*
X222909944Y-109135332D01*
X222773864Y-109033976D01*
X222686021Y-108983254D01*
X222636143Y-108976042D01*
X222616518Y-108997193D01*
G36*
X225116390Y-109301991D02*
G01*
X225128338Y-109351606D01*
X225182313Y-109423721D01*
X225289495Y-109531823D01*
X225461067Y-109689401D01*
X225573908Y-109790435D01*
X225794467Y-109976793D01*
X225948728Y-110082660D01*
X226039318Y-110109318D01*
X226068862Y-110058057D01*
X226066799Y-110031632D01*
X226023411Y-109959722D01*
X225919547Y-109848172D01*
X225774994Y-109713343D01*
X225609540Y-109571596D01*
X225442972Y-109439294D01*
X225295079Y-109332798D01*
X225185648Y-109268471D01*
X225135285Y-109261388D01*
X225116390Y-109301991D01*
G37*
X225116390Y-109301991D02*
X225128338Y-109351606D01*
X225182313Y-109423721D01*
X225289495Y-109531823D01*
X225461067Y-109689401D01*
X225573908Y-109790435D01*
X225794467Y-109976793D01*
X225948728Y-110082660D01*
X226039318Y-110109318D01*
X226068862Y-110058057D01*
X226066799Y-110031632D01*
X226023411Y-109959722D01*
X225919547Y-109848172D01*
X225774994Y-109713343D01*
X225609540Y-109571596D01*
X225442972Y-109439294D01*
X225295079Y-109332798D01*
X225185648Y-109268471D01*
X225135285Y-109261388D01*
X225116390Y-109301991D01*
G36*
X212253058Y-110804278D02*
G01*
X212194141Y-110933247D01*
X212177666Y-111093511D01*
X212181146Y-111128389D01*
X212279190Y-111466392D01*
X212465521Y-111757643D01*
X212617102Y-111902812D01*
X212816572Y-112028397D01*
X212974942Y-112055678D01*
X213092960Y-111984769D01*
X213099517Y-111976414D01*
X213133466Y-111856921D01*
X213121901Y-111676968D01*
X213076735Y-111489438D01*
X212830739Y-111524011D01*
X212843603Y-111680035D01*
X212819211Y-111747993D01*
X212749511Y-111742702D01*
X212719182Y-111729344D01*
X212624612Y-111647713D01*
X212544357Y-111517496D01*
X212487413Y-111367959D01*
X212462775Y-111228370D01*
X212479437Y-111127993D01*
X212524532Y-111096037D01*
X212633254Y-111130084D01*
X212733719Y-111245512D01*
X212807952Y-111417198D01*
X212830739Y-111524011D01*
X213076735Y-111489438D01*
X213071868Y-111469232D01*
X212990415Y-111266393D01*
X212920947Y-111148322D01*
X212798110Y-111009185D01*
X212642913Y-110880803D01*
X212486760Y-110784988D01*
X212361059Y-110743557D01*
X212339009Y-110744116D01*
X212253058Y-110804278D01*
G37*
X212253058Y-110804278D02*
X212194141Y-110933247D01*
X212177666Y-111093511D01*
X212181146Y-111128389D01*
X212279190Y-111466392D01*
X212465521Y-111757643D01*
X212617102Y-111902812D01*
X212816572Y-112028397D01*
X212974942Y-112055678D01*
X213092960Y-111984769D01*
X213099517Y-111976414D01*
X213133466Y-111856921D01*
X213121901Y-111676968D01*
X213076735Y-111489438D01*
X212830739Y-111524011D01*
X212843603Y-111680035D01*
X212819211Y-111747993D01*
X212749511Y-111742702D01*
X212719182Y-111729344D01*
X212624612Y-111647713D01*
X212544357Y-111517496D01*
X212487413Y-111367959D01*
X212462775Y-111228370D01*
X212479437Y-111127993D01*
X212524532Y-111096037D01*
X212633254Y-111130084D01*
X212733719Y-111245512D01*
X212807952Y-111417198D01*
X212830739Y-111524011D01*
X213076735Y-111489438D01*
X213071868Y-111469232D01*
X212990415Y-111266393D01*
X212920947Y-111148322D01*
X212798110Y-111009185D01*
X212642913Y-110880803D01*
X212486760Y-110784988D01*
X212361059Y-110743557D01*
X212339009Y-110744116D01*
X212253058Y-110804278D01*
G36*
X220291581Y-110599369D02*
G01*
X220288528Y-110610991D01*
X220312952Y-110724622D01*
X220411754Y-110847182D01*
X220537699Y-110944688D01*
X220634005Y-110977882D01*
X220681253Y-110942527D01*
X220681773Y-110906057D01*
X220638647Y-110831187D01*
X220541296Y-110722744D01*
X220491944Y-110676240D01*
X220379626Y-110582815D01*
X220320010Y-110559492D01*
X220291581Y-110599369D01*
G37*
X220291581Y-110599369D02*
X220288528Y-110610991D01*
X220312952Y-110724622D01*
X220411754Y-110847182D01*
X220537699Y-110944688D01*
X220634005Y-110977882D01*
X220681253Y-110942527D01*
X220681773Y-110906057D01*
X220638647Y-110831187D01*
X220541296Y-110722744D01*
X220491944Y-110676240D01*
X220379626Y-110582815D01*
X220320010Y-110559492D01*
X220291581Y-110599369D01*
G36*
X221701311Y-110112607D02*
G01*
X221737753Y-110207338D01*
X221843727Y-110342355D01*
X222005887Y-110500186D01*
X222187794Y-110652017D01*
X222305384Y-110726727D01*
X222365401Y-110727118D01*
X222374591Y-110655991D01*
X222374202Y-110653137D01*
X222331518Y-110582897D01*
X222231744Y-110471781D01*
X222099484Y-110342462D01*
X221959347Y-110217618D01*
X221835938Y-110119921D01*
X221753864Y-110072047D01*
X221742041Y-110070596D01*
X221701311Y-110112607D01*
G37*
X221701311Y-110112607D02*
X221737753Y-110207338D01*
X221843727Y-110342355D01*
X222005887Y-110500186D01*
X222187794Y-110652017D01*
X222305384Y-110726727D01*
X222365401Y-110727118D01*
X222374591Y-110655991D01*
X222374202Y-110653137D01*
X222331518Y-110582897D01*
X222231744Y-110471781D01*
X222099484Y-110342462D01*
X221959347Y-110217618D01*
X221835938Y-110119921D01*
X221753864Y-110072047D01*
X221742041Y-110070596D01*
X221701311Y-110112607D01*
G36*
X221580361Y-110524871D02*
G01*
X221593328Y-110591896D01*
X221676326Y-110692669D01*
X221837191Y-110839312D01*
X221892694Y-110886412D01*
X222059835Y-111022044D01*
X222164320Y-111091975D01*
X222221224Y-111103956D01*
X222245193Y-111067661D01*
X222218868Y-110990237D01*
X222132128Y-110874421D01*
X222008535Y-110742726D01*
X221871653Y-110617665D01*
X221745044Y-110521753D01*
X221652271Y-110477500D01*
X221629583Y-110479470D01*
X221580361Y-110524871D01*
G37*
X221580361Y-110524871D02*
X221593328Y-110591896D01*
X221676326Y-110692669D01*
X221837191Y-110839312D01*
X221892694Y-110886412D01*
X222059835Y-111022044D01*
X222164320Y-111091975D01*
X222221224Y-111103956D01*
X222245193Y-111067661D01*
X222218868Y-110990237D01*
X222132128Y-110874421D01*
X222008535Y-110742726D01*
X221871653Y-110617665D01*
X221745044Y-110521753D01*
X221652271Y-110477500D01*
X221629583Y-110479470D01*
X221580361Y-110524871D01*
G36*
X222283801Y-109188734D02*
G01*
X222297910Y-109267061D01*
X222344434Y-109321768D01*
X222457324Y-109431477D01*
X222622453Y-109583893D01*
X222825694Y-109766720D01*
X223052921Y-109967663D01*
X223290004Y-110174427D01*
X223522816Y-110374715D01*
X223737231Y-110556235D01*
X223919120Y-110706688D01*
X224054356Y-110813783D01*
X224128812Y-110865220D01*
X224137348Y-110867941D01*
X224195412Y-110820826D01*
X224205388Y-110802376D01*
X224206768Y-110779957D01*
X224189052Y-110745806D01*
X224144440Y-110692710D01*
X224065135Y-110613455D01*
X223943337Y-110500827D01*
X223771248Y-110347614D01*
X223541070Y-110146600D01*
X223245002Y-109890573D01*
X222879605Y-109576068D01*
X222626000Y-109365494D01*
X222443623Y-109231522D01*
X222330287Y-109172989D01*
X222283801Y-109188734D01*
G37*
X222283801Y-109188734D02*
X222297910Y-109267061D01*
X222344434Y-109321768D01*
X222457324Y-109431477D01*
X222622453Y-109583893D01*
X222825694Y-109766720D01*
X223052921Y-109967663D01*
X223290004Y-110174427D01*
X223522816Y-110374715D01*
X223737231Y-110556235D01*
X223919120Y-110706688D01*
X224054356Y-110813783D01*
X224128812Y-110865220D01*
X224137348Y-110867941D01*
X224195412Y-110820826D01*
X224205388Y-110802376D01*
X224206768Y-110779957D01*
X224189052Y-110745806D01*
X224144440Y-110692710D01*
X224065135Y-110613455D01*
X223943337Y-110500827D01*
X223771248Y-110347614D01*
X223541070Y-110146600D01*
X223245002Y-109890573D01*
X222879605Y-109576068D01*
X222626000Y-109365494D01*
X222443623Y-109231522D01*
X222330287Y-109172989D01*
X222283801Y-109188734D01*
G36*
X225228204Y-109831691D02*
G01*
X225224640Y-109836090D01*
X225213155Y-109885371D01*
X225252222Y-109956876D01*
X225352800Y-110064181D01*
X225525845Y-110220855D01*
X225557413Y-110248314D01*
X225778085Y-110439867D01*
X225930405Y-110570883D01*
X226027542Y-110650054D01*
X226082664Y-110686071D01*
X226108941Y-110687622D01*
X226119540Y-110663400D01*
X226127116Y-110624280D01*
X226123052Y-110567856D01*
X226080504Y-110493454D01*
X225989303Y-110390129D01*
X225839281Y-110246940D01*
X225620268Y-110052946D01*
X225498273Y-109947686D01*
X225364012Y-109842112D01*
X225281089Y-109806343D01*
X225228204Y-109831691D01*
G37*
X225228204Y-109831691D02*
X225224640Y-109836090D01*
X225213155Y-109885371D01*
X225252222Y-109956876D01*
X225352800Y-110064181D01*
X225525845Y-110220855D01*
X225557413Y-110248314D01*
X225778085Y-110439867D01*
X225930405Y-110570883D01*
X226027542Y-110650054D01*
X226082664Y-110686071D01*
X226108941Y-110687622D01*
X226119540Y-110663400D01*
X226127116Y-110624280D01*
X226123052Y-110567856D01*
X226080504Y-110493454D01*
X225989303Y-110390129D01*
X225839281Y-110246940D01*
X225620268Y-110052946D01*
X225498273Y-109947686D01*
X225364012Y-109842112D01*
X225281089Y-109806343D01*
X225228204Y-109831691D01*
G36*
X220030556Y-110869114D02*
G01*
X220043122Y-110939120D01*
X220120140Y-111051853D01*
X220253076Y-111194066D01*
X220386675Y-111314065D01*
X220552810Y-111449241D01*
X220656392Y-111519484D01*
X220713164Y-111532708D01*
X220738872Y-111496831D01*
X220740133Y-111491756D01*
X220724261Y-111409365D01*
X220637440Y-111295649D01*
X220470054Y-111138166D01*
X220460142Y-111129564D01*
X220304752Y-111000771D01*
X220174999Y-110903489D01*
X220096165Y-110856514D01*
X220090976Y-110855083D01*
X220030556Y-110869114D01*
G37*
X220030556Y-110869114D02*
X220043122Y-110939120D01*
X220120140Y-111051853D01*
X220253076Y-111194066D01*
X220386675Y-111314065D01*
X220552810Y-111449241D01*
X220656392Y-111519484D01*
X220713164Y-111532708D01*
X220738872Y-111496831D01*
X220740133Y-111491756D01*
X220724261Y-111409365D01*
X220637440Y-111295649D01*
X220470054Y-111138166D01*
X220460142Y-111129564D01*
X220304752Y-111000771D01*
X220174999Y-110903489D01*
X220096165Y-110856514D01*
X220090976Y-110855083D01*
X220030556Y-110869114D01*
G36*
X221488876Y-110897553D02*
G01*
X221524046Y-110990934D01*
X221631757Y-111125286D01*
X221804893Y-111289843D01*
X221840289Y-111320022D01*
X222005223Y-111453848D01*
X222107746Y-111522220D01*
X222163352Y-111532957D01*
X222187254Y-111495126D01*
X222168399Y-111411665D01*
X222074804Y-111292030D01*
X221898514Y-111126092D01*
X221895424Y-111123394D01*
X221740938Y-110994434D01*
X221615041Y-110899964D01*
X221540546Y-110856841D01*
X221533370Y-110855912D01*
X221488876Y-110897553D01*
G37*
X221488876Y-110897553D02*
X221524046Y-110990934D01*
X221631757Y-111125286D01*
X221804893Y-111289843D01*
X221840289Y-111320022D01*
X222005223Y-111453848D01*
X222107746Y-111522220D01*
X222163352Y-111532957D01*
X222187254Y-111495126D01*
X222168399Y-111411665D01*
X222074804Y-111292030D01*
X221898514Y-111126092D01*
X221895424Y-111123394D01*
X221740938Y-110994434D01*
X221615041Y-110899964D01*
X221540546Y-110856841D01*
X221533370Y-110855912D01*
X221488876Y-110897553D01*
G36*
X213747753Y-111124159D02*
G01*
X213760555Y-111214204D01*
X213785491Y-111314172D01*
X213846434Y-111551004D01*
X213649440Y-111393313D01*
X213481405Y-111280514D01*
X213357703Y-111253477D01*
X213262327Y-111309664D01*
X213246183Y-111329410D01*
X213217906Y-111435247D01*
X213223101Y-111605110D01*
X213256909Y-111803186D01*
X213314468Y-111993662D01*
X213346144Y-112065993D01*
X213445100Y-112212408D01*
X213582211Y-112353253D01*
X213728479Y-112464309D01*
X213854900Y-112521355D01*
X213894016Y-112523545D01*
X213992840Y-112549388D01*
X214023697Y-112582785D01*
X214102948Y-112657590D01*
X214182201Y-112698213D01*
X214228822Y-112712653D01*
X214257844Y-112705148D01*
X214268897Y-112660349D01*
X214261613Y-112562909D01*
X214235626Y-112397480D01*
X214190567Y-112148714D01*
X214165841Y-112015554D01*
X214162481Y-111997584D01*
X213904849Y-112033792D01*
X213900069Y-112158343D01*
X213890381Y-112178225D01*
X213842683Y-112245663D01*
X213795549Y-112251066D01*
X213711945Y-112192222D01*
X213678998Y-112165587D01*
X213597517Y-112062250D01*
X213538894Y-111921206D01*
X213509462Y-111775099D01*
X213515552Y-111656575D01*
X213563496Y-111598278D01*
X213568779Y-111597268D01*
X213669530Y-111631131D01*
X213771308Y-111737178D01*
X213855838Y-111882401D01*
X213904849Y-112033792D01*
X214162481Y-111997584D01*
X214107412Y-111703118D01*
X214063001Y-111479488D01*
X214026835Y-111328367D01*
X213993142Y-111233461D01*
X213956149Y-111178475D01*
X213910083Y-111147114D01*
X213849754Y-111123297D01*
X213774990Y-111101268D01*
X213747753Y-111124159D01*
G37*
X213747753Y-111124159D02*
X213760555Y-111214204D01*
X213785491Y-111314172D01*
X213846434Y-111551004D01*
X213649440Y-111393313D01*
X213481405Y-111280514D01*
X213357703Y-111253477D01*
X213262327Y-111309664D01*
X213246183Y-111329410D01*
X213217906Y-111435247D01*
X213223101Y-111605110D01*
X213256909Y-111803186D01*
X213314468Y-111993662D01*
X213346144Y-112065993D01*
X213445100Y-112212408D01*
X213582211Y-112353253D01*
X213728479Y-112464309D01*
X213854900Y-112521355D01*
X213894016Y-112523545D01*
X213992840Y-112549388D01*
X214023697Y-112582785D01*
X214102948Y-112657590D01*
X214182201Y-112698213D01*
X214228822Y-112712653D01*
X214257844Y-112705148D01*
X214268897Y-112660349D01*
X214261613Y-112562909D01*
X214235626Y-112397480D01*
X214190567Y-112148714D01*
X214165841Y-112015554D01*
X214162481Y-111997584D01*
X213904849Y-112033792D01*
X213900069Y-112158343D01*
X213890381Y-112178225D01*
X213842683Y-112245663D01*
X213795549Y-112251066D01*
X213711945Y-112192222D01*
X213678998Y-112165587D01*
X213597517Y-112062250D01*
X213538894Y-111921206D01*
X213509462Y-111775099D01*
X213515552Y-111656575D01*
X213563496Y-111598278D01*
X213568779Y-111597268D01*
X213669530Y-111631131D01*
X213771308Y-111737178D01*
X213855838Y-111882401D01*
X213904849Y-112033792D01*
X214162481Y-111997584D01*
X214107412Y-111703118D01*
X214063001Y-111479488D01*
X214026835Y-111328367D01*
X213993142Y-111233461D01*
X213956149Y-111178475D01*
X213910083Y-111147114D01*
X213849754Y-111123297D01*
X213774990Y-111101268D01*
X213747753Y-111124159D01*
G36*
X223158343Y-110467612D02*
G01*
X223159419Y-110476882D01*
X223200147Y-110530656D01*
X223303756Y-110635912D01*
X223451907Y-110776301D01*
X223626259Y-110935479D01*
X223808474Y-111097100D01*
X223980212Y-111244818D01*
X224123131Y-111362286D01*
X224218893Y-111433159D01*
X224247283Y-111446482D01*
X224277875Y-111399908D01*
X224289783Y-111360078D01*
X224257128Y-111286492D01*
X224142813Y-111157521D01*
X223952675Y-110979275D01*
X223801124Y-110848263D01*
X223546230Y-110638388D01*
X223361217Y-110499270D01*
X223239373Y-110427024D01*
X223173986Y-110417766D01*
X223158343Y-110467612D01*
G37*
X223158343Y-110467612D02*
X223159419Y-110476882D01*
X223200147Y-110530656D01*
X223303756Y-110635912D01*
X223451907Y-110776301D01*
X223626259Y-110935479D01*
X223808474Y-111097100D01*
X223980212Y-111244818D01*
X224123131Y-111362286D01*
X224218893Y-111433159D01*
X224247283Y-111446482D01*
X224277875Y-111399908D01*
X224289783Y-111360078D01*
X224257128Y-111286492D01*
X224142813Y-111157521D01*
X223952675Y-110979275D01*
X223801124Y-110848263D01*
X223546230Y-110638388D01*
X223361217Y-110499270D01*
X223239373Y-110427024D01*
X223173986Y-110417766D01*
X223158343Y-110467612D01*
G36*
X225312676Y-110362585D02*
G01*
X225311209Y-110418687D01*
X225354069Y-110489086D01*
X225457435Y-110605845D01*
X225600716Y-110749966D01*
X225763324Y-110902453D01*
X225924670Y-111044313D01*
X226064168Y-111156547D01*
X226161226Y-111220161D01*
X226188067Y-111227722D01*
X226220294Y-111178606D01*
X226219743Y-111128771D01*
X226176205Y-111061621D01*
X226071055Y-110946442D01*
X225925563Y-110802790D01*
X225761006Y-110650222D01*
X225598654Y-110508293D01*
X225459780Y-110396559D01*
X225365658Y-110334577D01*
X225349346Y-110328611D01*
X225312676Y-110362585D01*
G37*
X225312676Y-110362585D02*
X225311209Y-110418687D01*
X225354069Y-110489086D01*
X225457435Y-110605845D01*
X225600716Y-110749966D01*
X225763324Y-110902453D01*
X225924670Y-111044313D01*
X226064168Y-111156547D01*
X226161226Y-111220161D01*
X226188067Y-111227722D01*
X226220294Y-111178606D01*
X226219743Y-111128771D01*
X226176205Y-111061621D01*
X226071055Y-110946442D01*
X225925563Y-110802790D01*
X225761006Y-110650222D01*
X225598654Y-110508293D01*
X225459780Y-110396559D01*
X225365658Y-110334577D01*
X225349346Y-110328611D01*
X225312676Y-110362585D01*
G36*
X219897645Y-111247751D02*
G01*
X219908916Y-111313153D01*
X219985654Y-111414610D01*
X220135047Y-111562147D01*
X220311692Y-111720077D01*
X220533254Y-111908688D01*
X220687602Y-112026980D01*
X220783655Y-112079745D01*
X220830336Y-112071773D01*
X220836563Y-112007855D01*
X220835725Y-112001483D01*
X220793151Y-111933422D01*
X220690114Y-111820580D01*
X220546936Y-111681044D01*
X220383932Y-111532896D01*
X220221420Y-111394221D01*
X220079720Y-111283101D01*
X219979149Y-111217622D01*
X219944649Y-111208382D01*
X219897645Y-111247751D01*
G37*
X219897645Y-111247751D02*
X219908916Y-111313153D01*
X219985654Y-111414610D01*
X220135047Y-111562147D01*
X220311692Y-111720077D01*
X220533254Y-111908688D01*
X220687602Y-112026980D01*
X220783655Y-112079745D01*
X220830336Y-112071773D01*
X220836563Y-112007855D01*
X220835725Y-112001483D01*
X220793151Y-111933422D01*
X220690114Y-111820580D01*
X220546936Y-111681044D01*
X220383932Y-111532896D01*
X220221420Y-111394221D01*
X220079720Y-111283101D01*
X219979149Y-111217622D01*
X219944649Y-111208382D01*
X219897645Y-111247751D01*
G36*
X216255544Y-112444893D02*
G01*
X216276121Y-112537549D01*
X216354267Y-112673646D01*
X216449763Y-112748306D01*
X216544098Y-112786873D01*
X216566772Y-112758660D01*
X216546194Y-112666004D01*
X216468050Y-112529907D01*
X216372554Y-112455247D01*
X216278219Y-112416680D01*
X216255544Y-112444893D01*
G37*
X216255544Y-112444893D02*
X216276121Y-112537549D01*
X216354267Y-112673646D01*
X216449763Y-112748306D01*
X216544098Y-112786873D01*
X216566772Y-112758660D01*
X216546194Y-112666004D01*
X216468050Y-112529907D01*
X216372554Y-112455247D01*
X216278219Y-112416680D01*
X216255544Y-112444893D01*
G36*
X221441491Y-111336107D02*
G01*
X221479545Y-111430793D01*
X221594541Y-111570660D01*
X221781082Y-111747721D01*
X221806742Y-111769990D01*
X222004978Y-111934118D01*
X222137006Y-112025951D01*
X222211550Y-112049503D01*
X222237329Y-112008792D01*
X222234873Y-111967103D01*
X222191834Y-111898686D01*
X222089174Y-111786908D01*
X221949756Y-111652299D01*
X221796443Y-111515380D01*
X221652102Y-111396680D01*
X221539592Y-111316725D01*
X221485773Y-111294594D01*
X221441491Y-111336107D01*
G37*
X221441491Y-111336107D02*
X221479545Y-111430793D01*
X221594541Y-111570660D01*
X221781082Y-111747721D01*
X221806742Y-111769990D01*
X222004978Y-111934118D01*
X222137006Y-112025951D01*
X222211550Y-112049503D01*
X222237329Y-112008792D01*
X222234873Y-111967103D01*
X222191834Y-111898686D01*
X222089174Y-111786908D01*
X221949756Y-111652299D01*
X221796443Y-111515380D01*
X221652102Y-111396680D01*
X221539592Y-111316725D01*
X221485773Y-111294594D01*
X221441491Y-111336107D01*
G36*
X214331351Y-111878134D02*
G01*
X214316950Y-112018510D01*
X214337192Y-112248728D01*
X214350148Y-112345342D01*
X214416753Y-112819265D01*
X214607587Y-112903104D01*
X214766313Y-112984608D01*
X214900086Y-113072117D01*
X214910935Y-113080872D01*
X215040532Y-113146227D01*
X215147627Y-113157349D01*
X215233220Y-113126834D01*
X215255585Y-113047084D01*
X215248742Y-112975802D01*
X215166201Y-112734271D01*
X215162952Y-112729876D01*
X214948420Y-112760026D01*
X214931482Y-112831204D01*
X214865412Y-112829748D01*
X214773501Y-112761717D01*
X214722681Y-112701296D01*
X214668419Y-112601221D01*
X214665308Y-112541557D01*
X214726008Y-112534310D01*
X214816478Y-112585597D01*
X214902006Y-112668633D01*
X214947880Y-112756630D01*
X214948420Y-112760026D01*
X215162952Y-112729876D01*
X215003013Y-112513620D01*
X214803500Y-112359268D01*
X214678513Y-112274577D01*
X214604181Y-112196654D01*
X214596500Y-112177105D01*
X214618608Y-112124898D01*
X214685319Y-112132289D01*
X214761070Y-112188087D01*
X214795916Y-112239839D01*
X214868427Y-112323331D01*
X214972956Y-112383563D01*
X215067223Y-112400606D01*
X215100224Y-112383266D01*
X215094230Y-112311221D01*
X215022987Y-112201065D01*
X214908290Y-112076831D01*
X214771931Y-111962547D01*
X214652922Y-111890051D01*
X214492287Y-111824508D01*
X214387447Y-111817001D01*
X214331351Y-111878134D01*
G37*
X214331351Y-111878134D02*
X214316950Y-112018510D01*
X214337192Y-112248728D01*
X214350148Y-112345342D01*
X214416753Y-112819265D01*
X214607587Y-112903104D01*
X214766313Y-112984608D01*
X214900086Y-113072117D01*
X214910935Y-113080872D01*
X215040532Y-113146227D01*
X215147627Y-113157349D01*
X215233220Y-113126834D01*
X215255585Y-113047084D01*
X215248742Y-112975802D01*
X215166201Y-112734271D01*
X215162952Y-112729876D01*
X214948420Y-112760026D01*
X214931482Y-112831204D01*
X214865412Y-112829748D01*
X214773501Y-112761717D01*
X214722681Y-112701296D01*
X214668419Y-112601221D01*
X214665308Y-112541557D01*
X214726008Y-112534310D01*
X214816478Y-112585597D01*
X214902006Y-112668633D01*
X214947880Y-112756630D01*
X214948420Y-112760026D01*
X215162952Y-112729876D01*
X215003013Y-112513620D01*
X214803500Y-112359268D01*
X214678513Y-112274577D01*
X214604181Y-112196654D01*
X214596500Y-112177105D01*
X214618608Y-112124898D01*
X214685319Y-112132289D01*
X214761070Y-112188087D01*
X214795916Y-112239839D01*
X214868427Y-112323331D01*
X214972956Y-112383563D01*
X215067223Y-112400606D01*
X215100224Y-112383266D01*
X215094230Y-112311221D01*
X215022987Y-112201065D01*
X214908290Y-112076831D01*
X214771931Y-111962547D01*
X214652922Y-111890051D01*
X214492287Y-111824508D01*
X214387447Y-111817001D01*
X214331351Y-111878134D01*
G36*
X223440613Y-111141677D02*
G01*
X223454862Y-111212914D01*
X223531910Y-111317139D01*
X223680858Y-111464994D01*
X223832182Y-111599638D01*
X224036974Y-111775478D01*
X224176369Y-111888959D01*
X224264878Y-111948801D01*
X224317013Y-111963724D01*
X224347286Y-111942448D01*
X224360491Y-111917081D01*
X224354418Y-111861021D01*
X224292899Y-111773381D01*
X224167805Y-111645658D01*
X223971008Y-111469340D01*
X223768658Y-111297752D01*
X223610338Y-111170313D01*
X223513671Y-111108030D01*
X223462156Y-111103052D01*
X223440613Y-111141677D01*
G37*
X223440613Y-111141677D02*
X223454862Y-111212914D01*
X223531910Y-111317139D01*
X223680858Y-111464994D01*
X223832182Y-111599638D01*
X224036974Y-111775478D01*
X224176369Y-111888959D01*
X224264878Y-111948801D01*
X224317013Y-111963724D01*
X224347286Y-111942448D01*
X224360491Y-111917081D01*
X224354418Y-111861021D01*
X224292899Y-111773381D01*
X224167805Y-111645658D01*
X223971008Y-111469340D01*
X223768658Y-111297752D01*
X223610338Y-111170313D01*
X223513671Y-111108030D01*
X223462156Y-111103052D01*
X223440613Y-111141677D01*
G36*
X225382400Y-110943305D02*
G01*
X225421095Y-111037490D01*
X225542750Y-111180166D01*
X225743842Y-111366698D01*
X225854566Y-111459822D01*
X226056965Y-111621984D01*
X226192739Y-111719384D01*
X226274359Y-111759252D01*
X226314297Y-111748810D01*
X226321783Y-111730553D01*
X226301958Y-111656608D01*
X226211681Y-111542794D01*
X226043965Y-111381184D01*
X225911955Y-111265426D01*
X225730266Y-111114051D01*
X225576283Y-110993986D01*
X225468971Y-110919523D01*
X225430192Y-110902241D01*
X225382400Y-110943305D01*
G37*
X225382400Y-110943305D02*
X225421095Y-111037490D01*
X225542750Y-111180166D01*
X225743842Y-111366698D01*
X225854566Y-111459822D01*
X226056965Y-111621984D01*
X226192739Y-111719384D01*
X226274359Y-111759252D01*
X226314297Y-111748810D01*
X226321783Y-111730553D01*
X226301958Y-111656608D01*
X226211681Y-111542794D01*
X226043965Y-111381184D01*
X225911955Y-111265426D01*
X225730266Y-111114051D01*
X225576283Y-110993986D01*
X225468971Y-110919523D01*
X225430192Y-110902241D01*
X225382400Y-110943305D01*
G36*
X219758636Y-111575383D02*
G01*
X219757973Y-111633138D01*
X219799984Y-111696400D01*
X219905030Y-111811397D01*
X220055061Y-111961482D01*
X220232024Y-112130008D01*
X220417870Y-112300327D01*
X220594545Y-112455794D01*
X220743999Y-112579760D01*
X220848181Y-112655581D01*
X220883565Y-112671158D01*
X220924310Y-112626957D01*
X220936739Y-112589888D01*
X220904272Y-112533535D01*
X220807067Y-112424798D01*
X220662615Y-112279682D01*
X220488399Y-112114192D01*
X220301907Y-111944337D01*
X220120625Y-111786122D01*
X219962039Y-111655552D01*
X219843636Y-111568635D01*
X219791607Y-111541694D01*
X219758636Y-111575383D01*
G37*
X219758636Y-111575383D02*
X219757973Y-111633138D01*
X219799984Y-111696400D01*
X219905030Y-111811397D01*
X220055061Y-111961482D01*
X220232024Y-112130008D01*
X220417870Y-112300327D01*
X220594545Y-112455794D01*
X220743999Y-112579760D01*
X220848181Y-112655581D01*
X220883565Y-112671158D01*
X220924310Y-112626957D01*
X220936739Y-112589888D01*
X220904272Y-112533535D01*
X220807067Y-112424798D01*
X220662615Y-112279682D01*
X220488399Y-112114192D01*
X220301907Y-111944337D01*
X220120625Y-111786122D01*
X219962039Y-111655552D01*
X219843636Y-111568635D01*
X219791607Y-111541694D01*
X219758636Y-111575383D01*
G36*
X221428006Y-111799697D02*
G01*
X221427402Y-111802120D01*
X221443024Y-111876396D01*
X221524750Y-111985172D01*
X221681342Y-112138909D01*
X221791623Y-112236926D01*
X221964213Y-112387187D01*
X222108163Y-112512755D01*
X222203055Y-112595810D01*
X222226966Y-112616935D01*
X222275744Y-112612251D01*
X222296250Y-112566282D01*
X222295688Y-112498215D01*
X222255523Y-112418659D01*
X222164225Y-112314429D01*
X222010258Y-112172336D01*
X221784926Y-111981541D01*
X221616734Y-111846670D01*
X221511539Y-111776602D01*
X221453807Y-111763543D01*
X221428006Y-111799697D01*
G37*
X221428006Y-111799697D02*
X221427402Y-111802120D01*
X221443024Y-111876396D01*
X221524750Y-111985172D01*
X221681342Y-112138909D01*
X221791623Y-112236926D01*
X221964213Y-112387187D01*
X222108163Y-112512755D01*
X222203055Y-112595810D01*
X222226966Y-112616935D01*
X222275744Y-112612251D01*
X222296250Y-112566282D01*
X222295688Y-112498215D01*
X222255523Y-112418659D01*
X222164225Y-112314429D01*
X222010258Y-112172336D01*
X221784926Y-111981541D01*
X221616734Y-111846670D01*
X221511539Y-111776602D01*
X221453807Y-111763543D01*
X221428006Y-111799697D01*
G36*
X223542020Y-111691417D02*
G01*
X223533682Y-111739507D01*
X223575553Y-111813509D01*
X223677610Y-111925418D01*
X223849829Y-112087227D01*
X223934076Y-112162809D01*
X224114827Y-112321746D01*
X224264841Y-112450016D01*
X224367215Y-112533405D01*
X224404477Y-112558373D01*
X224434184Y-112511893D01*
X224446354Y-112470857D01*
X224416545Y-112388332D01*
X224309169Y-112259595D01*
X224166595Y-112125279D01*
X223997468Y-111976945D01*
X223841608Y-111839065D01*
X223732733Y-111741469D01*
X223732661Y-111741403D01*
X223630745Y-111665159D01*
X223565813Y-111667431D01*
X223542020Y-111691417D01*
G37*
X223542020Y-111691417D02*
X223533682Y-111739507D01*
X223575553Y-111813509D01*
X223677610Y-111925418D01*
X223849829Y-112087227D01*
X223934076Y-112162809D01*
X224114827Y-112321746D01*
X224264841Y-112450016D01*
X224367215Y-112533405D01*
X224404477Y-112558373D01*
X224434184Y-112511893D01*
X224446354Y-112470857D01*
X224416545Y-112388332D01*
X224309169Y-112259595D01*
X224166595Y-112125279D01*
X223997468Y-111976945D01*
X223841608Y-111839065D01*
X223732733Y-111741469D01*
X223732661Y-111741403D01*
X223630745Y-111665159D01*
X223565813Y-111667431D01*
X223542020Y-111691417D01*
G36*
X225456159Y-111473816D02*
G01*
X225498145Y-111570415D01*
X225622617Y-111717894D01*
X225826407Y-111911901D01*
X225887473Y-111965515D01*
X226090618Y-112139891D01*
X226228512Y-112251885D01*
X226315776Y-112310229D01*
X226367032Y-112323660D01*
X226396902Y-112300915D01*
X226409083Y-112277129D01*
X226417802Y-112242146D01*
X226404072Y-112201147D01*
X226355874Y-112141237D01*
X226261186Y-112049523D01*
X226107990Y-111913111D01*
X225907971Y-111739580D01*
X225742143Y-111601085D01*
X225605097Y-111495415D01*
X225517606Y-111438202D01*
X225499820Y-111432447D01*
X225456159Y-111473816D01*
G37*
X225456159Y-111473816D02*
X225498145Y-111570415D01*
X225622617Y-111717894D01*
X225826407Y-111911901D01*
X225887473Y-111965515D01*
X226090618Y-112139891D01*
X226228512Y-112251885D01*
X226315776Y-112310229D01*
X226367032Y-112323660D01*
X226396902Y-112300915D01*
X226409083Y-112277129D01*
X226417802Y-112242146D01*
X226404072Y-112201147D01*
X226355874Y-112141237D01*
X226261186Y-112049523D01*
X226107990Y-111913111D01*
X225907971Y-111739580D01*
X225742143Y-111601085D01*
X225605097Y-111495415D01*
X225517606Y-111438202D01*
X225499820Y-111432447D01*
X225456159Y-111473816D01*
G36*
X215349960Y-112375789D02*
G01*
X215318178Y-112454898D01*
X215313963Y-112602588D01*
X215337153Y-112834759D01*
X215344710Y-112890204D01*
X215378505Y-113110456D01*
X215410460Y-113249097D01*
X215449975Y-113330869D01*
X215506451Y-113380518D01*
X215537542Y-113397770D01*
X215668450Y-113464720D01*
X215631736Y-113090598D01*
X215620107Y-112905554D01*
X215623959Y-112769606D01*
X215642375Y-112710160D01*
X215644434Y-112709533D01*
X215735235Y-112747109D01*
X215831237Y-112870021D01*
X215920745Y-113058000D01*
X215992066Y-113290778D01*
X215999891Y-113325586D01*
X216048110Y-113525757D01*
X216095329Y-113647648D01*
X216155533Y-113718870D01*
X216217828Y-113755740D01*
X216357676Y-113822380D01*
X216263719Y-113409891D01*
X216214990Y-113187752D01*
X216173625Y-112984512D01*
X216147763Y-112840361D01*
X216146097Y-112829003D01*
X216100311Y-112692004D01*
X215990937Y-112615148D01*
X215966249Y-112605931D01*
X215824983Y-112539034D01*
X215728194Y-112468683D01*
X215583631Y-112363334D01*
X215446476Y-112332090D01*
X215349960Y-112375789D01*
G37*
X215349960Y-112375789D02*
X215318178Y-112454898D01*
X215313963Y-112602588D01*
X215337153Y-112834759D01*
X215344710Y-112890204D01*
X215378505Y-113110456D01*
X215410460Y-113249097D01*
X215449975Y-113330869D01*
X215506451Y-113380518D01*
X215537542Y-113397770D01*
X215668450Y-113464720D01*
X215631736Y-113090598D01*
X215620107Y-112905554D01*
X215623959Y-112769606D01*
X215642375Y-112710160D01*
X215644434Y-112709533D01*
X215735235Y-112747109D01*
X215831237Y-112870021D01*
X215920745Y-113058000D01*
X215992066Y-113290778D01*
X215999891Y-113325586D01*
X216048110Y-113525757D01*
X216095329Y-113647648D01*
X216155533Y-113718870D01*
X216217828Y-113755740D01*
X216357676Y-113822380D01*
X216263719Y-113409891D01*
X216214990Y-113187752D01*
X216173625Y-112984512D01*
X216147763Y-112840361D01*
X216146097Y-112829003D01*
X216100311Y-112692004D01*
X215990937Y-112615148D01*
X215966249Y-112605931D01*
X215824983Y-112539034D01*
X215728194Y-112468683D01*
X215583631Y-112363334D01*
X215446476Y-112332090D01*
X215349960Y-112375789D01*
G36*
X219349343Y-112698978D02*
G01*
X219379595Y-112786608D01*
X219493512Y-112919280D01*
X219613668Y-113029254D01*
X219784264Y-113172417D01*
X219892830Y-113252736D01*
X219956660Y-113279091D01*
X219993050Y-113260366D01*
X220008519Y-113232076D01*
X219987204Y-113161212D01*
X219898330Y-113047557D01*
X219760912Y-112911105D01*
X219593969Y-112771849D01*
X219517410Y-112715783D01*
X219414782Y-112653030D01*
X219366098Y-112657118D01*
X219349343Y-112698978D01*
G37*
X219349343Y-112698978D02*
X219379595Y-112786608D01*
X219493512Y-112919280D01*
X219613668Y-113029254D01*
X219784264Y-113172417D01*
X219892830Y-113252736D01*
X219956660Y-113279091D01*
X219993050Y-113260366D01*
X220008519Y-113232076D01*
X219987204Y-113161212D01*
X219898330Y-113047557D01*
X219760912Y-112911105D01*
X219593969Y-112771849D01*
X219517410Y-112715783D01*
X219414782Y-112653030D01*
X219366098Y-112657118D01*
X219349343Y-112698978D01*
G36*
X219629701Y-111957341D02*
G01*
X219626834Y-111963616D01*
X219634104Y-112076836D01*
X219681174Y-112132588D01*
X220033762Y-112437972D01*
X220338800Y-112699475D01*
X220589647Y-112911530D01*
X220779663Y-113068569D01*
X220902209Y-113165026D01*
X220948932Y-113195366D01*
X221009622Y-113164758D01*
X221021869Y-113144094D01*
X221028892Y-113114657D01*
X221017477Y-113078481D01*
X220977620Y-113025641D01*
X220899320Y-112946212D01*
X220772569Y-112830268D01*
X220587366Y-112667884D01*
X220333708Y-112449135D01*
X220242395Y-112370718D01*
X220007836Y-112172400D01*
X219840514Y-112039329D01*
X219729202Y-111964078D01*
X219662673Y-111939224D01*
X219629701Y-111957341D01*
G37*
X219629701Y-111957341D02*
X219626834Y-111963616D01*
X219634104Y-112076836D01*
X219681174Y-112132588D01*
X220033762Y-112437972D01*
X220338800Y-112699475D01*
X220589647Y-112911530D01*
X220779663Y-113068569D01*
X220902209Y-113165026D01*
X220948932Y-113195366D01*
X221009622Y-113164758D01*
X221021869Y-113144094D01*
X221028892Y-113114657D01*
X221017477Y-113078481D01*
X220977620Y-113025641D01*
X220899320Y-112946212D01*
X220772569Y-112830268D01*
X220587366Y-112667884D01*
X220333708Y-112449135D01*
X220242395Y-112370718D01*
X220007836Y-112172400D01*
X219840514Y-112039329D01*
X219729202Y-111964078D01*
X219662673Y-111939224D01*
X219629701Y-111957341D01*
G36*
X221469479Y-112304354D02*
G01*
X221508384Y-112400854D01*
X221626549Y-112545969D01*
X221819631Y-112733587D01*
X221897763Y-112802670D01*
X222101939Y-112977568D01*
X222240583Y-113088686D01*
X222327497Y-113143964D01*
X222376479Y-113151347D01*
X222401331Y-113118776D01*
X222407650Y-113096147D01*
X222376347Y-113036361D01*
X222282320Y-112927015D01*
X222145371Y-112786579D01*
X221985293Y-112633523D01*
X221821886Y-112486317D01*
X221674949Y-112363433D01*
X221564278Y-112283340D01*
X221514181Y-112262588D01*
X221469479Y-112304354D01*
G37*
X221469479Y-112304354D02*
X221508384Y-112400854D01*
X221626549Y-112545969D01*
X221819631Y-112733587D01*
X221897763Y-112802670D01*
X222101939Y-112977568D01*
X222240583Y-113088686D01*
X222327497Y-113143964D01*
X222376479Y-113151347D01*
X222401331Y-113118776D01*
X222407650Y-113096147D01*
X222376347Y-113036361D01*
X222282320Y-112927015D01*
X222145371Y-112786579D01*
X221985293Y-112633523D01*
X221821886Y-112486317D01*
X221674949Y-112363433D01*
X221564278Y-112283340D01*
X221514181Y-112262588D01*
X221469479Y-112304354D01*
G36*
X216333322Y-112904540D02*
G01*
X216355266Y-113046408D01*
X216393388Y-113245894D01*
X216428077Y-113409631D01*
X216484740Y-113656515D01*
X216530491Y-113819424D01*
X216574145Y-113919496D01*
X216624513Y-113977868D01*
X216678452Y-114010137D01*
X216810683Y-114073252D01*
X216703323Y-113505970D01*
X216652612Y-113249972D01*
X216611124Y-113079163D01*
X216571420Y-112973092D01*
X216526065Y-112911306D01*
X216474546Y-112876800D01*
X216376153Y-112840144D01*
X216331530Y-112843576D01*
X216333322Y-112904540D01*
G37*
X216333322Y-112904540D02*
X216355266Y-113046408D01*
X216393388Y-113245894D01*
X216428077Y-113409631D01*
X216484740Y-113656515D01*
X216530491Y-113819424D01*
X216574145Y-113919496D01*
X216624513Y-113977868D01*
X216678452Y-114010137D01*
X216810683Y-114073252D01*
X216703323Y-113505970D01*
X216652612Y-113249972D01*
X216611124Y-113079163D01*
X216571420Y-112973092D01*
X216526065Y-112911306D01*
X216474546Y-112876800D01*
X216376153Y-112840144D01*
X216331530Y-112843576D01*
X216333322Y-112904540D01*
G36*
X219199916Y-113054231D02*
G01*
X219235605Y-113144103D01*
X219344651Y-113271677D01*
X219502322Y-113411637D01*
X219685102Y-113551353D01*
X219800809Y-113618858D01*
X219858056Y-113617501D01*
X219865805Y-113553077D01*
X219822130Y-113484792D01*
X219720081Y-113377656D01*
X219585706Y-113254310D01*
X219445050Y-113137390D01*
X219324159Y-113049535D01*
X219249083Y-113013382D01*
X219244976Y-113013497D01*
X219199916Y-113054231D01*
G37*
X219199916Y-113054231D02*
X219235605Y-113144103D01*
X219344651Y-113271677D01*
X219502322Y-113411637D01*
X219685102Y-113551353D01*
X219800809Y-113618858D01*
X219858056Y-113617501D01*
X219865805Y-113553077D01*
X219822130Y-113484792D01*
X219720081Y-113377656D01*
X219585706Y-113254310D01*
X219445050Y-113137390D01*
X219324159Y-113049535D01*
X219249083Y-113013382D01*
X219244976Y-113013497D01*
X219199916Y-113054231D01*
G36*
X223611678Y-112246447D02*
G01*
X223611097Y-112248757D01*
X223643019Y-112335325D01*
X223765705Y-112478405D01*
X223979164Y-112678010D01*
X223994605Y-112691562D01*
X224204917Y-112871121D01*
X224348567Y-112981003D01*
X224435392Y-113026263D01*
X224475233Y-113011956D01*
X224477931Y-112943136D01*
X224477446Y-112939612D01*
X224432495Y-112867846D01*
X224321981Y-112749230D01*
X224164611Y-112602770D01*
X224048014Y-112503262D01*
X223850243Y-112345104D01*
X223719034Y-112253916D01*
X223643231Y-112223196D01*
X223611678Y-112246447D01*
G37*
X223611678Y-112246447D02*
X223611097Y-112248757D01*
X223643019Y-112335325D01*
X223765705Y-112478405D01*
X223979164Y-112678010D01*
X223994605Y-112691562D01*
X224204917Y-112871121D01*
X224348567Y-112981003D01*
X224435392Y-113026263D01*
X224475233Y-113011956D01*
X224477931Y-112943136D01*
X224477446Y-112939612D01*
X224432495Y-112867846D01*
X224321981Y-112749230D01*
X224164611Y-112602770D01*
X224048014Y-112503262D01*
X223850243Y-112345104D01*
X223719034Y-112253916D01*
X223643231Y-112223196D01*
X223611678Y-112246447D01*
G36*
X225565250Y-112023996D02*
G01*
X225563347Y-112031614D01*
X225563575Y-112084213D01*
X225595339Y-112149162D01*
X225669125Y-112237644D01*
X225795416Y-112360847D01*
X225984694Y-112529953D01*
X226222504Y-112734859D01*
X226359816Y-112846501D01*
X226438848Y-112891584D01*
X226478299Y-112877796D01*
X226490610Y-112845046D01*
X226474458Y-112762059D01*
X226385912Y-112646062D01*
X226215889Y-112485169D01*
X226215040Y-112484426D01*
X226039923Y-112330989D01*
X225872043Y-112183748D01*
X225751337Y-112077734D01*
X225645602Y-111991908D01*
X225591528Y-111975947D01*
X225565250Y-112023996D01*
G37*
X225565250Y-112023996D02*
X225563347Y-112031614D01*
X225563575Y-112084213D01*
X225595339Y-112149162D01*
X225669125Y-112237644D01*
X225795416Y-112360847D01*
X225984694Y-112529953D01*
X226222504Y-112734859D01*
X226359816Y-112846501D01*
X226438848Y-112891584D01*
X226478299Y-112877796D01*
X226490610Y-112845046D01*
X226474458Y-112762059D01*
X226385912Y-112646062D01*
X226215889Y-112485169D01*
X226215040Y-112484426D01*
X226039923Y-112330989D01*
X225872043Y-112183748D01*
X225751337Y-112077734D01*
X225645602Y-111991908D01*
X225591528Y-111975947D01*
X225565250Y-112023996D01*
G36*
X219473106Y-112314275D02*
G01*
X219507107Y-112406296D01*
X219614600Y-112538432D01*
X219788465Y-112700157D01*
X219834245Y-112738115D01*
X220016528Y-112889192D01*
X220186404Y-113034650D01*
X220310362Y-113145730D01*
X220320903Y-113155712D01*
X220439920Y-113264431D01*
X220605255Y-113409151D01*
X220776084Y-113554303D01*
X220934705Y-113681844D01*
X221031647Y-113743995D01*
X221083196Y-113748570D01*
X221103871Y-113711493D01*
X221088261Y-113639558D01*
X221007996Y-113532027D01*
X220854660Y-113379043D01*
X220705482Y-113245007D01*
X220524678Y-113092452D01*
X220368924Y-112971642D01*
X220258028Y-112897334D01*
X220216834Y-112880929D01*
X220149334Y-112847535D01*
X220141589Y-112825809D01*
X220099105Y-112760809D01*
X219998962Y-112654977D01*
X219866486Y-112530833D01*
X219727008Y-112410896D01*
X219605856Y-112317687D01*
X219528360Y-112273726D01*
X219519714Y-112272896D01*
X219473106Y-112314275D01*
G37*
X219473106Y-112314275D02*
X219507107Y-112406296D01*
X219614600Y-112538432D01*
X219788465Y-112700157D01*
X219834245Y-112738115D01*
X220016528Y-112889192D01*
X220186404Y-113034650D01*
X220310362Y-113145730D01*
X220320903Y-113155712D01*
X220439920Y-113264431D01*
X220605255Y-113409151D01*
X220776084Y-113554303D01*
X220934705Y-113681844D01*
X221031647Y-113743995D01*
X221083196Y-113748570D01*
X221103871Y-113711493D01*
X221088261Y-113639558D01*
X221007996Y-113532027D01*
X220854660Y-113379043D01*
X220705482Y-113245007D01*
X220524678Y-113092452D01*
X220368924Y-112971642D01*
X220258028Y-112897334D01*
X220216834Y-112880929D01*
X220149334Y-112847535D01*
X220141589Y-112825809D01*
X220099105Y-112760809D01*
X219998962Y-112654977D01*
X219866486Y-112530833D01*
X219727008Y-112410896D01*
X219605856Y-112317687D01*
X219528360Y-112273726D01*
X219519714Y-112272896D01*
X219473106Y-112314275D01*
G36*
X217368241Y-113399347D02*
G01*
X217368914Y-113455845D01*
X217412106Y-113513568D01*
X217521607Y-113621063D01*
X217679794Y-113761821D01*
X217829685Y-113887393D01*
X218032710Y-114049551D01*
X218169095Y-114147750D01*
X218251825Y-114189427D01*
X218293887Y-114182016D01*
X218304507Y-114159244D01*
X218289616Y-114090182D01*
X218211610Y-113988335D01*
X218061535Y-113843721D01*
X217886015Y-113692573D01*
X217660805Y-113511666D01*
X217503735Y-113404460D01*
X217408361Y-113368004D01*
X217368241Y-113399347D01*
G37*
X217368241Y-113399347D02*
X217368914Y-113455845D01*
X217412106Y-113513568D01*
X217521607Y-113621063D01*
X217679794Y-113761821D01*
X217829685Y-113887393D01*
X218032710Y-114049551D01*
X218169095Y-114147750D01*
X218251825Y-114189427D01*
X218293887Y-114182016D01*
X218304507Y-114159244D01*
X218289616Y-114090182D01*
X218211610Y-113988335D01*
X218061535Y-113843721D01*
X217886015Y-113692573D01*
X217660805Y-113511666D01*
X217503735Y-113404460D01*
X217408361Y-113368004D01*
X217368241Y-113399347D01*
G36*
X217926147Y-112409174D02*
G01*
X217943057Y-112471816D01*
X218023101Y-112576399D01*
X218171257Y-112728333D01*
X218392508Y-112933029D01*
X218691834Y-113195897D01*
X218806437Y-113294484D01*
X219062796Y-113513020D01*
X219291234Y-113705601D01*
X219479551Y-113862118D01*
X219615550Y-113972466D01*
X219687034Y-114026537D01*
X219694533Y-114030300D01*
X219726967Y-113983500D01*
X219738502Y-113945571D01*
X219704694Y-113891712D01*
X219602673Y-113782404D01*
X219446728Y-113630254D01*
X219251147Y-113447869D01*
X219030220Y-113247851D01*
X218798233Y-113042808D01*
X218569476Y-112845345D01*
X218358238Y-112668069D01*
X218178808Y-112523583D01*
X218045472Y-112424495D01*
X217972520Y-112383409D01*
X217967388Y-112383063D01*
X217926147Y-112409174D01*
G37*
X217926147Y-112409174D02*
X217943057Y-112471816D01*
X218023101Y-112576399D01*
X218171257Y-112728333D01*
X218392508Y-112933029D01*
X218691834Y-113195897D01*
X218806437Y-113294484D01*
X219062796Y-113513020D01*
X219291234Y-113705601D01*
X219479551Y-113862118D01*
X219615550Y-113972466D01*
X219687034Y-114026537D01*
X219694533Y-114030300D01*
X219726967Y-113983500D01*
X219738502Y-113945571D01*
X219704694Y-113891712D01*
X219602673Y-113782404D01*
X219446728Y-113630254D01*
X219251147Y-113447869D01*
X219030220Y-113247851D01*
X218798233Y-113042808D01*
X218569476Y-112845345D01*
X218358238Y-112668069D01*
X218178808Y-112523583D01*
X218045472Y-112424495D01*
X217972520Y-112383409D01*
X217967388Y-112383063D01*
X217926147Y-112409174D01*
G36*
X221577063Y-112865708D02*
G01*
X221568911Y-112910000D01*
X221605383Y-112974200D01*
X221704297Y-113086195D01*
X221844736Y-113226819D01*
X222005785Y-113376898D01*
X222166528Y-113517260D01*
X222306051Y-113628740D01*
X222403438Y-113692162D01*
X222430560Y-113699777D01*
X222487573Y-113652916D01*
X222497036Y-113635275D01*
X222468091Y-113583707D01*
X222376332Y-113482063D01*
X222241427Y-113348344D01*
X222083042Y-113200548D01*
X221920846Y-113056676D01*
X221774508Y-112934729D01*
X221663695Y-112852706D01*
X221615045Y-112828094D01*
X221577063Y-112865708D01*
G37*
X221577063Y-112865708D02*
X221568911Y-112910000D01*
X221605383Y-112974200D01*
X221704297Y-113086195D01*
X221844736Y-113226819D01*
X222005785Y-113376898D01*
X222166528Y-113517260D01*
X222306051Y-113628740D01*
X222403438Y-113692162D01*
X222430560Y-113699777D01*
X222487573Y-113652916D01*
X222497036Y-113635275D01*
X222468091Y-113583707D01*
X222376332Y-113482063D01*
X222241427Y-113348344D01*
X222083042Y-113200548D01*
X221920846Y-113056676D01*
X221774508Y-112934729D01*
X221663695Y-112852706D01*
X221615045Y-112828094D01*
X221577063Y-112865708D01*
G36*
X223698628Y-112800676D02*
G01*
X223735005Y-112894188D01*
X223846368Y-113030653D01*
X224026365Y-113200934D01*
X224085512Y-113251191D01*
X224262019Y-113393744D01*
X224374737Y-113471346D01*
X224438303Y-113491750D01*
X224467359Y-113462713D01*
X224469624Y-113454663D01*
X224453001Y-113377104D01*
X224366471Y-113264867D01*
X224201413Y-113107457D01*
X224141594Y-113055271D01*
X223978088Y-112919574D01*
X223843314Y-112817004D01*
X223758601Y-112763425D01*
X223743587Y-112759253D01*
X223698628Y-112800676D01*
G37*
X223698628Y-112800676D02*
X223735005Y-112894188D01*
X223846368Y-113030653D01*
X224026365Y-113200934D01*
X224085512Y-113251191D01*
X224262019Y-113393744D01*
X224374737Y-113471346D01*
X224438303Y-113491750D01*
X224467359Y-113462713D01*
X224469624Y-113454663D01*
X224453001Y-113377104D01*
X224366471Y-113264867D01*
X224201413Y-113107457D01*
X224141594Y-113055271D01*
X223978088Y-112919574D01*
X223843314Y-112817004D01*
X223758601Y-112763425D01*
X223743587Y-112759253D01*
X223698628Y-112800676D01*
G36*
X217496241Y-112479163D02*
G01*
X217458765Y-112555826D01*
X217459302Y-112567342D01*
X217500509Y-112616811D01*
X217610363Y-112722777D01*
X217775555Y-112873799D01*
X217982776Y-113058434D01*
X218218718Y-113265243D01*
X218470073Y-113482783D01*
X218723530Y-113699614D01*
X218965782Y-113904294D01*
X219183520Y-114085381D01*
X219363433Y-114231435D01*
X219492215Y-114331014D01*
X219556557Y-114372678D01*
X219559939Y-114373212D01*
X219587238Y-114325541D01*
X219578394Y-114266944D01*
X219530422Y-114203881D01*
X219415806Y-114087542D01*
X219247699Y-113929221D01*
X219039252Y-113740210D01*
X218803618Y-113531802D01*
X218553949Y-113315289D01*
X218303399Y-113101965D01*
X218065119Y-112903122D01*
X217852261Y-112730053D01*
X217677977Y-112594051D01*
X217555419Y-112506410D01*
X217497741Y-112478421D01*
X217496241Y-112479163D01*
G37*
X217496241Y-112479163D02*
X217458765Y-112555826D01*
X217459302Y-112567342D01*
X217500509Y-112616811D01*
X217610363Y-112722777D01*
X217775555Y-112873799D01*
X217982776Y-113058434D01*
X218218718Y-113265243D01*
X218470073Y-113482783D01*
X218723530Y-113699614D01*
X218965782Y-113904294D01*
X219183520Y-114085381D01*
X219363433Y-114231435D01*
X219492215Y-114331014D01*
X219556557Y-114372678D01*
X219559939Y-114373212D01*
X219587238Y-114325541D01*
X219578394Y-114266944D01*
X219530422Y-114203881D01*
X219415806Y-114087542D01*
X219247699Y-113929221D01*
X219039252Y-113740210D01*
X218803618Y-113531802D01*
X218553949Y-113315289D01*
X218303399Y-113101965D01*
X218065119Y-112903122D01*
X217852261Y-112730053D01*
X217677977Y-112594051D01*
X217555419Y-112506410D01*
X217497741Y-112478421D01*
X217496241Y-112479163D01*
G36*
X225688690Y-112554227D02*
G01*
X225660518Y-112585454D01*
X225647727Y-112636471D01*
X225681501Y-112708525D01*
X225770935Y-112811657D01*
X225925126Y-112955907D01*
X226153171Y-113151318D01*
X226234612Y-113219150D01*
X226393634Y-113346270D01*
X226490767Y-113408598D01*
X226542635Y-113413961D01*
X226564847Y-113374578D01*
X226551335Y-113304260D01*
X226476194Y-113202349D01*
X226330002Y-113057915D01*
X226170307Y-112917035D01*
X225994344Y-112765756D01*
X225850781Y-112641701D01*
X225757649Y-112560486D01*
X225732027Y-112537396D01*
X225688690Y-112554227D01*
G37*
X225688690Y-112554227D02*
X225660518Y-112585454D01*
X225647727Y-112636471D01*
X225681501Y-112708525D01*
X225770935Y-112811657D01*
X225925126Y-112955907D01*
X226153171Y-113151318D01*
X226234612Y-113219150D01*
X226393634Y-113346270D01*
X226490767Y-113408598D01*
X226542635Y-113413961D01*
X226564847Y-113374578D01*
X226551335Y-113304260D01*
X226476194Y-113202349D01*
X226330002Y-113057915D01*
X226170307Y-112917035D01*
X225994344Y-112765756D01*
X225850781Y-112641701D01*
X225757649Y-112560486D01*
X225732027Y-112537396D01*
X225688690Y-112554227D01*
G36*
X220240716Y-113486535D02*
G01*
X220243218Y-113537881D01*
X220286689Y-113600164D01*
X220391536Y-113703549D01*
X220537411Y-113831773D01*
X220703967Y-113968574D01*
X220870856Y-114097686D01*
X221017730Y-114202847D01*
X221124243Y-114267795D01*
X221169163Y-114277960D01*
X221191710Y-114232538D01*
X221181774Y-114180692D01*
X221127893Y-114108371D01*
X221018605Y-114001520D01*
X220842448Y-113846087D01*
X220756882Y-113772469D01*
X220531341Y-113587915D01*
X220373258Y-113480168D01*
X220277945Y-113447088D01*
X220240716Y-113486535D01*
G37*
X220240716Y-113486535D02*
X220243218Y-113537881D01*
X220286689Y-113600164D01*
X220391536Y-113703549D01*
X220537411Y-113831773D01*
X220703967Y-113968574D01*
X220870856Y-114097686D01*
X221017730Y-114202847D01*
X221124243Y-114267795D01*
X221169163Y-114277960D01*
X221191710Y-114232538D01*
X221181774Y-114180692D01*
X221127893Y-114108371D01*
X221018605Y-114001520D01*
X220842448Y-113846087D01*
X220756882Y-113772469D01*
X220531341Y-113587915D01*
X220373258Y-113480168D01*
X220277945Y-113447088D01*
X220240716Y-113486535D01*
G36*
X217471113Y-113895309D02*
G01*
X217460541Y-113923763D01*
X217477765Y-113995483D01*
X217561092Y-114106180D01*
X217718000Y-114264533D01*
X217885857Y-114417482D01*
X218066444Y-114576118D01*
X218215761Y-114704241D01*
X218317037Y-114787660D01*
X218353113Y-114812815D01*
X218379604Y-114766902D01*
X218391355Y-114725838D01*
X218384802Y-114673469D01*
X218337896Y-114599612D01*
X218240910Y-114494162D01*
X218084117Y-114347014D01*
X217857789Y-114148064D01*
X217728017Y-114036681D01*
X217590116Y-113924968D01*
X217510525Y-113880395D01*
X217471113Y-113895309D01*
G37*
X217471113Y-113895309D02*
X217460541Y-113923763D01*
X217477765Y-113995483D01*
X217561092Y-114106180D01*
X217718000Y-114264533D01*
X217885857Y-114417482D01*
X218066444Y-114576118D01*
X218215761Y-114704241D01*
X218317037Y-114787660D01*
X218353113Y-114812815D01*
X218379604Y-114766902D01*
X218391355Y-114725838D01*
X218384802Y-114673469D01*
X218337896Y-114599612D01*
X218240910Y-114494162D01*
X218084117Y-114347014D01*
X217857789Y-114148064D01*
X217728017Y-114036681D01*
X217590116Y-113924968D01*
X217510525Y-113880395D01*
X217471113Y-113895309D01*
G36*
X223729595Y-113371898D02*
G01*
X223772973Y-113433787D01*
X223879072Y-113542022D01*
X224027246Y-113675955D01*
X224070022Y-113712361D01*
X224237214Y-113848006D01*
X224341801Y-113918000D01*
X224398931Y-113930124D01*
X224423358Y-113893850D01*
X224404374Y-113811424D01*
X224310170Y-113691865D01*
X224133135Y-113525600D01*
X224124953Y-113518477D01*
X223931067Y-113362274D01*
X223802428Y-113288039D01*
X223736654Y-113294890D01*
X223729595Y-113371898D01*
G37*
X223729595Y-113371898D02*
X223772973Y-113433787D01*
X223879072Y-113542022D01*
X224027246Y-113675955D01*
X224070022Y-113712361D01*
X224237214Y-113848006D01*
X224341801Y-113918000D01*
X224398931Y-113930124D01*
X224423358Y-113893850D01*
X224404374Y-113811424D01*
X224310170Y-113691865D01*
X224133135Y-113525600D01*
X224124953Y-113518477D01*
X223931067Y-113362274D01*
X223802428Y-113288039D01*
X223736654Y-113294890D01*
X223729595Y-113371898D01*
G36*
X225743425Y-113112290D02*
G01*
X225729239Y-113159413D01*
X225757858Y-113255442D01*
X225880649Y-113391693D01*
X225966085Y-113465953D01*
X226128742Y-113597706D01*
X226229333Y-113668215D01*
X226286515Y-113686396D01*
X226318946Y-113661159D01*
X226329710Y-113639672D01*
X226308530Y-113570327D01*
X226223172Y-113459030D01*
X226094734Y-113328369D01*
X225944317Y-113200934D01*
X225869220Y-113146674D01*
X225781395Y-113095452D01*
X225743425Y-113112290D01*
G37*
X225743425Y-113112290D02*
X225729239Y-113159413D01*
X225757858Y-113255442D01*
X225880649Y-113391693D01*
X225966085Y-113465953D01*
X226128742Y-113597706D01*
X226229333Y-113668215D01*
X226286515Y-113686396D01*
X226318946Y-113661159D01*
X226329710Y-113639672D01*
X226308530Y-113570327D01*
X226223172Y-113459030D01*
X226094734Y-113328369D01*
X225944317Y-113200934D01*
X225869220Y-113146674D01*
X225781395Y-113095452D01*
X225743425Y-113112290D01*
G36*
X217303058Y-112814907D02*
G01*
X217316199Y-112876748D01*
X217382267Y-112971756D01*
X217507565Y-113106802D01*
X217698396Y-113288756D01*
X217961058Y-113524487D01*
X218254262Y-113779830D01*
X218595503Y-114074483D01*
X218864306Y-114306227D01*
X219069470Y-114481712D01*
X219219795Y-114607585D01*
X219324081Y-114690496D01*
X219391128Y-114737094D01*
X219429733Y-114754026D01*
X219448698Y-114747941D01*
X219456820Y-114725489D01*
X219462901Y-114693318D01*
X219462954Y-114693086D01*
X219440461Y-114609455D01*
X219338766Y-114484715D01*
X219151894Y-114311564D01*
X219148753Y-114308854D01*
X218992937Y-114174189D01*
X218778545Y-113988384D01*
X218527618Y-113770569D01*
X218262202Y-113539875D01*
X218091766Y-113391567D01*
X217858487Y-113190882D01*
X217652802Y-113018500D01*
X217488159Y-112885321D01*
X217378011Y-112802254D01*
X217336545Y-112779365D01*
X217303058Y-112814907D01*
G37*
X217303058Y-112814907D02*
X217316199Y-112876748D01*
X217382267Y-112971756D01*
X217507565Y-113106802D01*
X217698396Y-113288756D01*
X217961058Y-113524487D01*
X218254262Y-113779830D01*
X218595503Y-114074483D01*
X218864306Y-114306227D01*
X219069470Y-114481712D01*
X219219795Y-114607585D01*
X219324081Y-114690496D01*
X219391128Y-114737094D01*
X219429733Y-114754026D01*
X219448698Y-114747941D01*
X219456820Y-114725489D01*
X219462901Y-114693318D01*
X219462954Y-114693086D01*
X219440461Y-114609455D01*
X219338766Y-114484715D01*
X219151894Y-114311564D01*
X219148753Y-114308854D01*
X218992937Y-114174189D01*
X218778545Y-113988384D01*
X218527618Y-113770569D01*
X218262202Y-113539875D01*
X218091766Y-113391567D01*
X217858487Y-113190882D01*
X217652802Y-113018500D01*
X217488159Y-112885321D01*
X217378011Y-112802254D01*
X217336545Y-112779365D01*
X217303058Y-112814907D01*
G36*
X225819754Y-113742377D02*
G01*
X225837395Y-113827106D01*
X225857269Y-113850863D01*
X225950439Y-113902803D01*
X226000215Y-113863897D01*
X226001724Y-113795060D01*
X225960005Y-113695549D01*
X225923291Y-113664167D01*
X225853668Y-113673131D01*
X225819754Y-113742377D01*
G37*
X225819754Y-113742377D02*
X225837395Y-113827106D01*
X225857269Y-113850863D01*
X225950439Y-113902803D01*
X226000215Y-113863897D01*
X226001724Y-113795060D01*
X225960005Y-113695549D01*
X225923291Y-113664167D01*
X225853668Y-113673131D01*
X225819754Y-113742377D01*
G36*
X223666669Y-113724052D02*
G01*
X223702377Y-113817516D01*
X223806311Y-113949591D01*
X223970045Y-114107177D01*
X223994278Y-114128000D01*
X224151698Y-114256328D01*
X224247867Y-114318235D01*
X224298549Y-114321503D01*
X224316899Y-114287293D01*
X224295128Y-114199413D01*
X224192304Y-114072033D01*
X224044940Y-113934020D01*
X223896146Y-113809326D01*
X223776990Y-113719647D01*
X223710835Y-113682417D01*
X223707610Y-113682296D01*
X223666669Y-113724052D01*
G37*
X223666669Y-113724052D02*
X223702377Y-113817516D01*
X223806311Y-113949591D01*
X223970045Y-114107177D01*
X223994278Y-114128000D01*
X224151698Y-114256328D01*
X224247867Y-114318235D01*
X224298549Y-114321503D01*
X224316899Y-114287293D01*
X224295128Y-114199413D01*
X224192304Y-114072033D01*
X224044940Y-113934020D01*
X223896146Y-113809326D01*
X223776990Y-113719647D01*
X223710835Y-113682417D01*
X223707610Y-113682296D01*
X223666669Y-113724052D01*
G36*
X220355619Y-114008277D02*
G01*
X220348316Y-114021769D01*
X220352448Y-114085780D01*
X220414199Y-114177213D01*
X220544034Y-114308774D01*
X220698048Y-114446333D01*
X220917489Y-114636869D01*
X221068649Y-114766864D01*
X221164775Y-114844998D01*
X221219112Y-114879950D01*
X221244906Y-114880397D01*
X221255401Y-114855020D01*
X221262907Y-114816441D01*
X221244166Y-114706198D01*
X221195896Y-114640774D01*
X220917777Y-114393180D01*
X220707792Y-114211883D01*
X220556265Y-114089814D01*
X220453513Y-114019903D01*
X220389858Y-113995079D01*
X220355619Y-114008277D01*
G37*
X220355619Y-114008277D02*
X220348316Y-114021769D01*
X220352448Y-114085780D01*
X220414199Y-114177213D01*
X220544034Y-114308774D01*
X220698048Y-114446333D01*
X220917489Y-114636869D01*
X221068649Y-114766864D01*
X221164775Y-114844998D01*
X221219112Y-114879950D01*
X221244906Y-114880397D01*
X221255401Y-114855020D01*
X221262907Y-114816441D01*
X221244166Y-114706198D01*
X221195896Y-114640774D01*
X220917777Y-114393180D01*
X220707792Y-114211883D01*
X220556265Y-114089814D01*
X220453513Y-114019903D01*
X220389858Y-113995079D01*
X220355619Y-114008277D01*
G36*
X217544283Y-114475028D02*
G01*
X217568233Y-114566852D01*
X217670594Y-114695700D01*
X217731401Y-114754003D01*
X217985418Y-114981598D01*
X218172181Y-115143343D01*
X218302255Y-115246747D01*
X218386207Y-115299318D01*
X218434603Y-115308565D01*
X218458010Y-115281998D01*
X218460793Y-115272347D01*
X218443006Y-115198460D01*
X218357149Y-115085062D01*
X218195863Y-114923468D01*
X218062199Y-114801874D01*
X217885416Y-114648109D01*
X217737660Y-114525928D01*
X217637105Y-114449976D01*
X217603489Y-114432176D01*
X217544283Y-114475028D01*
G37*
X217544283Y-114475028D02*
X217568233Y-114566852D01*
X217670594Y-114695700D01*
X217731401Y-114754003D01*
X217985418Y-114981598D01*
X218172181Y-115143343D01*
X218302255Y-115246747D01*
X218386207Y-115299318D01*
X218434603Y-115308565D01*
X218458010Y-115281998D01*
X218460793Y-115272347D01*
X218443006Y-115198460D01*
X218357149Y-115085062D01*
X218195863Y-114923468D01*
X218062199Y-114801874D01*
X217885416Y-114648109D01*
X217737660Y-114525928D01*
X217637105Y-114449976D01*
X217603489Y-114432176D01*
X217544283Y-114475028D01*
G36*
X223530764Y-114100258D02*
G01*
X223529810Y-114104300D01*
X223560414Y-114193498D01*
X223677761Y-114329990D01*
X223807075Y-114448728D01*
X223976838Y-114591314D01*
X224085531Y-114669448D01*
X224150518Y-114691382D01*
X224189164Y-114665365D01*
X224203898Y-114637267D01*
X224179298Y-114577073D01*
X224093641Y-114471706D01*
X223968992Y-114343291D01*
X223827408Y-114213954D01*
X223690958Y-114105819D01*
X223639942Y-114071711D01*
X223564489Y-114043720D01*
X223530764Y-114100258D01*
G37*
X223530764Y-114100258D02*
X223529810Y-114104300D01*
X223560414Y-114193498D01*
X223677761Y-114329990D01*
X223807075Y-114448728D01*
X223976838Y-114591314D01*
X224085531Y-114669448D01*
X224150518Y-114691382D01*
X224189164Y-114665365D01*
X224203898Y-114637267D01*
X224179298Y-114577073D01*
X224093641Y-114471706D01*
X223968992Y-114343291D01*
X223827408Y-114213954D01*
X223690958Y-114105819D01*
X223639942Y-114071711D01*
X223564489Y-114043720D01*
X223530764Y-114100258D01*
G36*
X220440849Y-114557416D02*
G01*
X220428350Y-114591305D01*
X220459600Y-114651823D01*
X220553842Y-114761495D01*
X220691192Y-114901879D01*
X220851762Y-115054534D01*
X221015667Y-115201020D01*
X221163021Y-115322897D01*
X221273939Y-115401722D01*
X221323444Y-115421347D01*
X221356127Y-115372127D01*
X221356010Y-115322273D01*
X221313395Y-115258202D01*
X221209289Y-115145560D01*
X221064790Y-115003716D01*
X220901001Y-114852042D01*
X220739022Y-114709908D01*
X220599953Y-114596685D01*
X220504894Y-114531745D01*
X220486663Y-114524183D01*
X220440849Y-114557416D01*
G37*
X220440849Y-114557416D02*
X220428350Y-114591305D01*
X220459600Y-114651823D01*
X220553842Y-114761495D01*
X220691192Y-114901879D01*
X220851762Y-115054534D01*
X221015667Y-115201020D01*
X221163021Y-115322897D01*
X221273939Y-115401722D01*
X221323444Y-115421347D01*
X221356127Y-115372127D01*
X221356010Y-115322273D01*
X221313395Y-115258202D01*
X221209289Y-115145560D01*
X221064790Y-115003716D01*
X220901001Y-114852042D01*
X220739022Y-114709908D01*
X220599953Y-114596685D01*
X220504894Y-114531745D01*
X220486663Y-114524183D01*
X220440849Y-114557416D01*
G36*
X223311429Y-114389219D02*
G01*
X223333647Y-114460956D01*
X223426170Y-114574280D01*
X223595985Y-114739874D01*
X223627645Y-114769047D01*
X223826371Y-114937714D01*
X223966312Y-115026276D01*
X224044807Y-115033542D01*
X224059866Y-114962768D01*
X224016790Y-114893362D01*
X223915183Y-114784321D01*
X223778419Y-114655946D01*
X223629870Y-114528541D01*
X223492911Y-114422407D01*
X223390916Y-114357848D01*
X223352528Y-114348387D01*
X223311429Y-114389219D01*
G37*
X223311429Y-114389219D02*
X223333647Y-114460956D01*
X223426170Y-114574280D01*
X223595985Y-114739874D01*
X223627645Y-114769047D01*
X223826371Y-114937714D01*
X223966312Y-115026276D01*
X224044807Y-115033542D01*
X224059866Y-114962768D01*
X224016790Y-114893362D01*
X223915183Y-114784321D01*
X223778419Y-114655946D01*
X223629870Y-114528541D01*
X223492911Y-114422407D01*
X223390916Y-114357848D01*
X223352528Y-114348387D01*
X223311429Y-114389219D01*
G36*
X217635472Y-115023529D02*
G01*
X217628988Y-115039900D01*
X217650411Y-115114881D01*
X217744835Y-115231878D01*
X217918506Y-115397938D01*
X218040730Y-115504759D01*
X218260721Y-115688728D01*
X218412896Y-115803736D01*
X218506783Y-115854683D01*
X218551908Y-115846472D01*
X218557799Y-115784004D01*
X218555817Y-115769813D01*
X218510307Y-115699377D01*
X218398620Y-115581190D01*
X218238885Y-115433308D01*
X218095954Y-115311718D01*
X217892950Y-115149195D01*
X217756673Y-115051726D01*
X217674916Y-115012207D01*
X217635472Y-115023529D01*
G37*
X217635472Y-115023529D02*
X217628988Y-115039900D01*
X217650411Y-115114881D01*
X217744835Y-115231878D01*
X217918506Y-115397938D01*
X218040730Y-115504759D01*
X218260721Y-115688728D01*
X218412896Y-115803736D01*
X218506783Y-115854683D01*
X218551908Y-115846472D01*
X218557799Y-115784004D01*
X218555817Y-115769813D01*
X218510307Y-115699377D01*
X218398620Y-115581190D01*
X218238885Y-115433308D01*
X218095954Y-115311718D01*
X217892950Y-115149195D01*
X217756673Y-115051726D01*
X217674916Y-115012207D01*
X217635472Y-115023529D01*
G36*
X221633642Y-113396219D02*
G01*
X221642435Y-113448712D01*
X221705557Y-113537488D01*
X221828597Y-113668386D01*
X222017143Y-113847249D01*
X222276781Y-114079917D01*
X222613103Y-114372229D01*
X222699581Y-114446529D01*
X222984540Y-114689415D01*
X223243448Y-114907152D01*
X223465138Y-115090590D01*
X223638446Y-115230577D01*
X223752207Y-115317960D01*
X223794518Y-115344057D01*
X223852987Y-115297111D01*
X223860663Y-115282642D01*
X223828044Y-115235857D01*
X223726048Y-115131703D01*
X223567427Y-114981308D01*
X223364936Y-114795803D01*
X223131329Y-114586317D01*
X222879360Y-114363977D01*
X222621782Y-114139916D01*
X222371349Y-113925261D01*
X222140816Y-113731142D01*
X221942936Y-113568688D01*
X221790463Y-113449029D01*
X221696152Y-113383292D01*
X221673591Y-113374167D01*
X221633642Y-113396219D01*
G37*
X221633642Y-113396219D02*
X221642435Y-113448712D01*
X221705557Y-113537488D01*
X221828597Y-113668386D01*
X222017143Y-113847249D01*
X222276781Y-114079917D01*
X222613103Y-114372229D01*
X222699581Y-114446529D01*
X222984540Y-114689415D01*
X223243448Y-114907152D01*
X223465138Y-115090590D01*
X223638446Y-115230577D01*
X223752207Y-115317960D01*
X223794518Y-115344057D01*
X223852987Y-115297111D01*
X223860663Y-115282642D01*
X223828044Y-115235857D01*
X223726048Y-115131703D01*
X223567427Y-114981308D01*
X223364936Y-114795803D01*
X223131329Y-114586317D01*
X222879360Y-114363977D01*
X222621782Y-114139916D01*
X222371349Y-113925261D01*
X222140816Y-113731142D01*
X221942936Y-113568688D01*
X221790463Y-113449029D01*
X221696152Y-113383292D01*
X221673591Y-113374167D01*
X221633642Y-113396219D01*
G36*
X212172810Y-113155373D02*
G01*
X212193121Y-113303834D01*
X212226066Y-113532888D01*
X212269803Y-113829983D01*
X212322491Y-114182567D01*
X212382288Y-114578090D01*
X212423102Y-114845762D01*
X212687335Y-116573127D01*
X213039810Y-116753095D01*
X213392285Y-116933062D01*
X212926150Y-114158627D01*
X213177131Y-114294194D01*
X213428113Y-114429760D01*
X213393695Y-114067721D01*
X213371417Y-113871713D01*
X213343783Y-113754424D01*
X213299798Y-113687777D01*
X213228465Y-113643692D01*
X213227448Y-113643210D01*
X213123504Y-113590786D01*
X212954199Y-113502062D01*
X212748003Y-113392040D01*
X212635349Y-113331226D01*
X212439553Y-113227240D01*
X212283427Y-113148408D01*
X212187417Y-113104820D01*
X212166974Y-113100056D01*
X212172810Y-113155373D01*
G37*
X212172810Y-113155373D02*
X212193121Y-113303834D01*
X212226066Y-113532888D01*
X212269803Y-113829983D01*
X212322491Y-114182567D01*
X212382288Y-114578090D01*
X212423102Y-114845762D01*
X212687335Y-116573127D01*
X213039810Y-116753095D01*
X213392285Y-116933062D01*
X212926150Y-114158627D01*
X213177131Y-114294194D01*
X213428113Y-114429760D01*
X213393695Y-114067721D01*
X213371417Y-113871713D01*
X213343783Y-113754424D01*
X213299798Y-113687777D01*
X213228465Y-113643692D01*
X213227448Y-113643210D01*
X213123504Y-113590786D01*
X212954199Y-113502062D01*
X212748003Y-113392040D01*
X212635349Y-113331226D01*
X212439553Y-113227240D01*
X212283427Y-113148408D01*
X212187417Y-113104820D01*
X212166974Y-113100056D01*
X212172810Y-113155373D01*
G36*
X220517373Y-115137315D02*
G01*
X220559122Y-115232298D01*
X220684136Y-115376996D01*
X220889226Y-115567097D01*
X220945187Y-115614931D01*
X221158076Y-115790094D01*
X221303222Y-115896694D01*
X221390533Y-115939709D01*
X221429910Y-115924120D01*
X221431957Y-115859667D01*
X221388865Y-115794151D01*
X221284096Y-115683115D01*
X221139021Y-115545315D01*
X220975009Y-115399498D01*
X220813430Y-115264417D01*
X220675653Y-115158826D01*
X220583048Y-115101473D01*
X220562073Y-115096358D01*
X220517373Y-115137315D01*
G37*
X220517373Y-115137315D02*
X220559122Y-115232298D01*
X220684136Y-115376996D01*
X220889226Y-115567097D01*
X220945187Y-115614931D01*
X221158076Y-115790094D01*
X221303222Y-115896694D01*
X221390533Y-115939709D01*
X221429910Y-115924120D01*
X221431957Y-115859667D01*
X221388865Y-115794151D01*
X221284096Y-115683115D01*
X221139021Y-115545315D01*
X220975009Y-115399498D01*
X220813430Y-115264417D01*
X220675653Y-115158826D01*
X220583048Y-115101473D01*
X220562073Y-115096358D01*
X220517373Y-115137315D01*
G36*
X221741619Y-114002533D02*
G01*
X221742460Y-114034652D01*
X221783735Y-114087590D01*
X221892279Y-114196392D01*
X222053960Y-114348644D01*
X222254650Y-114531936D01*
X222480221Y-114733856D01*
X222716543Y-114941993D01*
X222949487Y-115143933D01*
X223164926Y-115327268D01*
X223348729Y-115479584D01*
X223486768Y-115588469D01*
X223564914Y-115641514D01*
X223575205Y-115644642D01*
X223602768Y-115596272D01*
X223601911Y-115546497D01*
X223560168Y-115488668D01*
X223451722Y-115376429D01*
X223290566Y-115222054D01*
X223090692Y-115037813D01*
X222866090Y-114835977D01*
X222630753Y-114628818D01*
X222398670Y-114428609D01*
X222183834Y-114247619D01*
X222000238Y-114098120D01*
X221861871Y-113992385D01*
X221782724Y-113942685D01*
X221771310Y-113940925D01*
X221741619Y-114002533D01*
G37*
X221741619Y-114002533D02*
X221742460Y-114034652D01*
X221783735Y-114087590D01*
X221892279Y-114196392D01*
X222053960Y-114348644D01*
X222254650Y-114531936D01*
X222480221Y-114733856D01*
X222716543Y-114941993D01*
X222949487Y-115143933D01*
X223164926Y-115327268D01*
X223348729Y-115479584D01*
X223486768Y-115588469D01*
X223564914Y-115641514D01*
X223575205Y-115644642D01*
X223602768Y-115596272D01*
X223601911Y-115546497D01*
X223560168Y-115488668D01*
X223451722Y-115376429D01*
X223290566Y-115222054D01*
X223090692Y-115037813D01*
X222866090Y-114835977D01*
X222630753Y-114628818D01*
X222398670Y-114428609D01*
X222183834Y-114247619D01*
X222000238Y-114098120D01*
X221861871Y-113992385D01*
X221782724Y-113942685D01*
X221771310Y-113940925D01*
X221741619Y-114002533D01*
G36*
X217717653Y-115585443D02*
G01*
X217760175Y-115682016D01*
X217884460Y-115829170D01*
X218087093Y-116022235D01*
X218149425Y-116076981D01*
X218359865Y-116256917D01*
X218502805Y-116371192D01*
X218589800Y-116426175D01*
X218632403Y-116428234D01*
X218642170Y-116383737D01*
X218638418Y-116346490D01*
X218595184Y-116275301D01*
X218491125Y-116158305D01*
X218347012Y-116014480D01*
X218183621Y-115862808D01*
X218021721Y-115722269D01*
X217882087Y-115611846D01*
X217785492Y-115550517D01*
X217760302Y-115544121D01*
X217717653Y-115585443D01*
G37*
X217717653Y-115585443D02*
X217760175Y-115682016D01*
X217884460Y-115829170D01*
X218087093Y-116022235D01*
X218149425Y-116076981D01*
X218359865Y-116256917D01*
X218502805Y-116371192D01*
X218589800Y-116426175D01*
X218632403Y-116428234D01*
X218642170Y-116383737D01*
X218638418Y-116346490D01*
X218595184Y-116275301D01*
X218491125Y-116158305D01*
X218347012Y-116014480D01*
X218183621Y-115862808D01*
X218021721Y-115722269D01*
X217882087Y-115611846D01*
X217785492Y-115550517D01*
X217760302Y-115544121D01*
X217717653Y-115585443D01*
G36*
X222192098Y-115260829D02*
G01*
X222141746Y-115308818D01*
X222157969Y-115380111D01*
X222248068Y-115486808D01*
X222419346Y-115641014D01*
X222423703Y-115644711D01*
X222581200Y-115772960D01*
X222677462Y-115834961D01*
X222728399Y-115838534D01*
X222747397Y-115803805D01*
X222722373Y-115724990D01*
X222638085Y-115609574D01*
X222518940Y-115481418D01*
X222389346Y-115364389D01*
X222273706Y-115282351D01*
X222196428Y-115259168D01*
X222192098Y-115260829D01*
G37*
X222192098Y-115260829D02*
X222141746Y-115308818D01*
X222157969Y-115380111D01*
X222248068Y-115486808D01*
X222419346Y-115641014D01*
X222423703Y-115644711D01*
X222581200Y-115772960D01*
X222677462Y-115834961D01*
X222728399Y-115838534D01*
X222747397Y-115803805D01*
X222722373Y-115724990D01*
X222638085Y-115609574D01*
X222518940Y-115481418D01*
X222389346Y-115364389D01*
X222273706Y-115282351D01*
X222196428Y-115259168D01*
X222192098Y-115260829D01*
G36*
X221840075Y-114522935D02*
G01*
X221827095Y-114558261D01*
X221860250Y-114621905D01*
X221968816Y-114743651D01*
X222144426Y-114915118D01*
X222378713Y-115127934D01*
X222514838Y-115246875D01*
X222745460Y-115444752D01*
X222947355Y-115615426D01*
X223107021Y-115747693D01*
X223210958Y-115830347D01*
X223245348Y-115853231D01*
X223277185Y-115806529D01*
X223288691Y-115768468D01*
X223255407Y-115701463D01*
X223143153Y-115575520D01*
X222957920Y-115396655D01*
X222705703Y-115170884D01*
X222616224Y-115093489D01*
X222386437Y-114897481D01*
X222184228Y-114727542D01*
X222023700Y-114595324D01*
X221918960Y-114512475D01*
X221885136Y-114489638D01*
X221840075Y-114522935D01*
G37*
X221840075Y-114522935D02*
X221827095Y-114558261D01*
X221860250Y-114621905D01*
X221968816Y-114743651D01*
X222144426Y-114915118D01*
X222378713Y-115127934D01*
X222514838Y-115246875D01*
X222745460Y-115444752D01*
X222947355Y-115615426D01*
X223107021Y-115747693D01*
X223210958Y-115830347D01*
X223245348Y-115853231D01*
X223277185Y-115806529D01*
X223288691Y-115768468D01*
X223255407Y-115701463D01*
X223143153Y-115575520D01*
X222957920Y-115396655D01*
X222705703Y-115170884D01*
X222616224Y-115093489D01*
X222386437Y-114897481D01*
X222184228Y-114727542D01*
X222023700Y-114595324D01*
X221918960Y-114512475D01*
X221885136Y-114489638D01*
X221840075Y-114522935D01*
G36*
X220592815Y-115667006D02*
G01*
X220633380Y-115763653D01*
X220758302Y-115911946D01*
X220965054Y-116108369D01*
X221022927Y-116159129D01*
X221226436Y-116333920D01*
X221364032Y-116445927D01*
X221449784Y-116503365D01*
X221497761Y-116514451D01*
X221522029Y-116487401D01*
X221531144Y-116455931D01*
X221500082Y-116394636D01*
X221406050Y-116284253D01*
X221268940Y-116143300D01*
X221108646Y-115990299D01*
X220945064Y-115843769D01*
X220798087Y-115722230D01*
X220687609Y-115644204D01*
X220639136Y-115625520D01*
X220592815Y-115667006D01*
G37*
X220592815Y-115667006D02*
X220633380Y-115763653D01*
X220758302Y-115911946D01*
X220965054Y-116108369D01*
X221022927Y-116159129D01*
X221226436Y-116333920D01*
X221364032Y-116445927D01*
X221449784Y-116503365D01*
X221497761Y-116514451D01*
X221522029Y-116487401D01*
X221531144Y-116455931D01*
X221500082Y-116394636D01*
X221406050Y-116284253D01*
X221268940Y-116143300D01*
X221108646Y-115990299D01*
X220945064Y-115843769D01*
X220798087Y-115722230D01*
X220687609Y-115644204D01*
X220639136Y-115625520D01*
X220592815Y-115667006D01*
G36*
X217837901Y-116106916D02*
G01*
X217808220Y-116157637D01*
X217831255Y-116229524D01*
X217915877Y-116334458D01*
X218070958Y-116484322D01*
X218216344Y-116613724D01*
X218421143Y-116789955D01*
X218561650Y-116901688D01*
X218652016Y-116957120D01*
X218706393Y-116964446D01*
X218738933Y-116931862D01*
X218744753Y-116919729D01*
X218718064Y-116863521D01*
X218627765Y-116759375D01*
X218493334Y-116624748D01*
X218334246Y-116477097D01*
X218169978Y-116333878D01*
X218020005Y-116212546D01*
X217903805Y-116130561D01*
X217840853Y-116105376D01*
X217837901Y-116106916D01*
G37*
X217837901Y-116106916D02*
X217808220Y-116157637D01*
X217831255Y-116229524D01*
X217915877Y-116334458D01*
X218070958Y-116484322D01*
X218216344Y-116613724D01*
X218421143Y-116789955D01*
X218561650Y-116901688D01*
X218652016Y-116957120D01*
X218706393Y-116964446D01*
X218738933Y-116931862D01*
X218744753Y-116919729D01*
X218718064Y-116863521D01*
X218627765Y-116759375D01*
X218493334Y-116624748D01*
X218334246Y-116477097D01*
X218169978Y-116333878D01*
X218020005Y-116212546D01*
X217903805Y-116130561D01*
X217840853Y-116105376D01*
X217837901Y-116106916D01*
G36*
X220709922Y-116193253D02*
G01*
X220698197Y-116225315D01*
X220719117Y-116321312D01*
X220824436Y-116452917D01*
X220913749Y-116537711D01*
X221137303Y-116738269D01*
X221293497Y-116876643D01*
X221394999Y-116961596D01*
X221454475Y-117001894D01*
X221484593Y-117006299D01*
X221498018Y-116983573D01*
X221506201Y-116947589D01*
X221505060Y-116886638D01*
X221467034Y-116812359D01*
X221380969Y-116712152D01*
X221235712Y-116573419D01*
X221020109Y-116383562D01*
X220964565Y-116335772D01*
X220827671Y-116224010D01*
X220748969Y-116179066D01*
X220709922Y-116193253D01*
G37*
X220709922Y-116193253D02*
X220698197Y-116225315D01*
X220719117Y-116321312D01*
X220824436Y-116452917D01*
X220913749Y-116537711D01*
X221137303Y-116738269D01*
X221293497Y-116876643D01*
X221394999Y-116961596D01*
X221454475Y-117001894D01*
X221484593Y-117006299D01*
X221498018Y-116983573D01*
X221506201Y-116947589D01*
X221505060Y-116886638D01*
X221467034Y-116812359D01*
X221380969Y-116712152D01*
X221235712Y-116573419D01*
X221020109Y-116383562D01*
X220964565Y-116335772D01*
X220827671Y-116224010D01*
X220748969Y-116179066D01*
X220709922Y-116193253D01*
G36*
X217883710Y-116692345D02*
G01*
X217883721Y-116739909D01*
X217924033Y-116795282D01*
X218024833Y-116900569D01*
X218166182Y-117037536D01*
X218328143Y-117187948D01*
X218490776Y-117333573D01*
X218634140Y-117456178D01*
X218738299Y-117537529D01*
X218781202Y-117560610D01*
X218805035Y-117514944D01*
X218817725Y-117469335D01*
X218785737Y-117383511D01*
X218663321Y-117240650D01*
X218450462Y-117040741D01*
X218422285Y-117015934D01*
X218191098Y-116821879D01*
X218027251Y-116704789D01*
X217926277Y-116662374D01*
X217883710Y-116692345D01*
G37*
X217883710Y-116692345D02*
X217883721Y-116739909D01*
X217924033Y-116795282D01*
X218024833Y-116900569D01*
X218166182Y-117037536D01*
X218328143Y-117187948D01*
X218490776Y-117333573D01*
X218634140Y-117456178D01*
X218738299Y-117537529D01*
X218781202Y-117560610D01*
X218805035Y-117514944D01*
X218817725Y-117469335D01*
X218785737Y-117383511D01*
X218663321Y-117240650D01*
X218450462Y-117040741D01*
X218422285Y-117015934D01*
X218191098Y-116821879D01*
X218027251Y-116704789D01*
X217926277Y-116662374D01*
X217883710Y-116692345D01*
G36*
X220790505Y-116786326D02*
G01*
X220786645Y-116873901D01*
X220871312Y-116992335D01*
X221035371Y-117128895D01*
X221037153Y-117130147D01*
X221141243Y-117196252D01*
X221190645Y-117197702D01*
X221212970Y-117142378D01*
X221190141Y-117060484D01*
X221110541Y-116959190D01*
X221002052Y-116861999D01*
X220892559Y-116792411D01*
X220809946Y-116773926D01*
X220790505Y-116786326D01*
G37*
X220790505Y-116786326D02*
X220786645Y-116873901D01*
X220871312Y-116992335D01*
X221035371Y-117128895D01*
X221037153Y-117130147D01*
X221141243Y-117196252D01*
X221190645Y-117197702D01*
X221212970Y-117142378D01*
X221190141Y-117060484D01*
X221110541Y-116959190D01*
X221002052Y-116861999D01*
X220892559Y-116792411D01*
X220809946Y-116773926D01*
X220790505Y-116786326D01*
G36*
X220877411Y-117293007D02*
G01*
X220907609Y-117315763D01*
X220930364Y-117285565D01*
X220900166Y-117262809D01*
X220877411Y-117293007D01*
G37*
X220877411Y-117293007D02*
X220907609Y-117315763D01*
X220930364Y-117285565D01*
X220900166Y-117262809D01*
X220877411Y-117293007D01*
G36*
X217984811Y-117244346D02*
G01*
X217982130Y-117253658D01*
X217997698Y-117325559D01*
X218077870Y-117433012D01*
X218231072Y-117585888D01*
X218380494Y-117720148D01*
X218582886Y-117895495D01*
X218720580Y-118007628D01*
X218808163Y-118065113D01*
X218860216Y-118076516D01*
X218891323Y-118050404D01*
X218903080Y-118027100D01*
X218903516Y-117972342D01*
X218856620Y-117895462D01*
X218752386Y-117785738D01*
X218580806Y-117632453D01*
X218370240Y-117456370D01*
X218192324Y-117314427D01*
X218078614Y-117236911D01*
X218014360Y-117216120D01*
X217984811Y-117244346D01*
G37*
X217984811Y-117244346D02*
X217982130Y-117253658D01*
X217997698Y-117325559D01*
X218077870Y-117433012D01*
X218231072Y-117585888D01*
X218380494Y-117720148D01*
X218582886Y-117895495D01*
X218720580Y-118007628D01*
X218808163Y-118065113D01*
X218860216Y-118076516D01*
X218891323Y-118050404D01*
X218903080Y-118027100D01*
X218903516Y-117972342D01*
X218856620Y-117895462D01*
X218752386Y-117785738D01*
X218580806Y-117632453D01*
X218370240Y-117456370D01*
X218192324Y-117314427D01*
X218078614Y-117236911D01*
X218014360Y-117216120D01*
X217984811Y-117244346D01*
G36*
X218079332Y-117808173D02*
G01*
X218071910Y-117864489D01*
X218126899Y-117949314D01*
X218254648Y-118076517D01*
X218328860Y-118142742D01*
X218504458Y-118296612D01*
X218672679Y-118444160D01*
X218795411Y-118551953D01*
X218901399Y-118637572D01*
X218955796Y-118652934D01*
X218981960Y-118604068D01*
X218982876Y-118600338D01*
X218986770Y-118546601D01*
X218963717Y-118487712D01*
X218901734Y-118410313D01*
X218788833Y-118301053D01*
X218613028Y-118146577D01*
X218453836Y-118010928D01*
X218280300Y-117871400D01*
X218167137Y-117800901D01*
X218100182Y-117791764D01*
X218079332Y-117808173D01*
G37*
X218079332Y-117808173D02*
X218071910Y-117864489D01*
X218126899Y-117949314D01*
X218254648Y-118076517D01*
X218328860Y-118142742D01*
X218504458Y-118296612D01*
X218672679Y-118444160D01*
X218795411Y-118551953D01*
X218901399Y-118637572D01*
X218955796Y-118652934D01*
X218981960Y-118604068D01*
X218982876Y-118600338D01*
X218986770Y-118546601D01*
X218963717Y-118487712D01*
X218901734Y-118410313D01*
X218788833Y-118301053D01*
X218613028Y-118146577D01*
X218453836Y-118010928D01*
X218280300Y-117871400D01*
X218167137Y-117800901D01*
X218100182Y-117791764D01*
X218079332Y-117808173D01*
G36*
X218135492Y-118358636D02*
G01*
X218166362Y-118448460D01*
X218286311Y-118583592D01*
X218372978Y-118661744D01*
X218536304Y-118794550D01*
X218641477Y-118857686D01*
X218705088Y-118857977D01*
X218739488Y-118812518D01*
X218714181Y-118754142D01*
X218628675Y-118655132D01*
X218508541Y-118538742D01*
X218379345Y-118428228D01*
X218266657Y-118346843D01*
X218196043Y-118317843D01*
X218195650Y-118317894D01*
X218135492Y-118358636D01*
G37*
X218135492Y-118358636D02*
X218166362Y-118448460D01*
X218286311Y-118583592D01*
X218372978Y-118661744D01*
X218536304Y-118794550D01*
X218641477Y-118857686D01*
X218705088Y-118857977D01*
X218739488Y-118812518D01*
X218714181Y-118754142D01*
X218628675Y-118655132D01*
X218508541Y-118538742D01*
X218379345Y-118428228D01*
X218266657Y-118346843D01*
X218196043Y-118317843D01*
X218195650Y-118317894D01*
X218135492Y-118358636D01*
G36*
X218242629Y-118910885D02*
G01*
X218237804Y-118997515D01*
X218287278Y-119063908D01*
X218356491Y-119125878D01*
X218387382Y-119106167D01*
X218401375Y-119054841D01*
X218393253Y-118953963D01*
X218338413Y-118888789D01*
X218267958Y-118887525D01*
X218242629Y-118910885D01*
G37*
X218242629Y-118910885D02*
X218237804Y-118997515D01*
X218287278Y-119063908D01*
X218356491Y-119125878D01*
X218387382Y-119106167D01*
X218401375Y-119054841D01*
X218393253Y-118953963D01*
X218338413Y-118888789D01*
X218267958Y-118887525D01*
X218242629Y-118910885D01*
G36*
X226592761Y-105828628D02*
G01*
X226513883Y-105868438D01*
X226399834Y-105934252D01*
X226246117Y-106029062D01*
X226048235Y-106155859D01*
X225801689Y-106317637D01*
X225501983Y-106517384D01*
X225144619Y-106758094D01*
X224725100Y-107042760D01*
X224238929Y-107374371D01*
X223681608Y-107755919D01*
X223048639Y-108190398D01*
X222335527Y-108680797D01*
X221780039Y-109063231D01*
X216958785Y-112383735D01*
X216647729Y-112227765D01*
X216539142Y-112172601D01*
X216346063Y-112073734D01*
X216079007Y-111936575D01*
X215748484Y-111766538D01*
X215365008Y-111569031D01*
X214939089Y-111349470D01*
X214481240Y-111113264D01*
X214001974Y-110865825D01*
X213920290Y-110823636D01*
X213372092Y-110540958D01*
X212910990Y-110304491D01*
X212529414Y-110110690D01*
X212219790Y-109956009D01*
X211974549Y-109836904D01*
X211786116Y-109749829D01*
X211646922Y-109691240D01*
X211549392Y-109657591D01*
X211485957Y-109645337D01*
X211449043Y-109650934D01*
X211436842Y-109660912D01*
X211395864Y-109737619D01*
X211441108Y-109797023D01*
X211457684Y-109809208D01*
X211521055Y-109845104D01*
X211670451Y-109924875D01*
X211896660Y-110043739D01*
X212190472Y-110196910D01*
X212542676Y-110379603D01*
X212944059Y-110587036D01*
X213385411Y-110814423D01*
X213857521Y-111056979D01*
X214047796Y-111154555D01*
X214531266Y-111402753D01*
X214989048Y-111638533D01*
X215411704Y-111856980D01*
X215789800Y-112053183D01*
X216113898Y-112222228D01*
X216374563Y-112359203D01*
X216562359Y-112459193D01*
X216667849Y-112517287D01*
X216684173Y-112527209D01*
X216818344Y-112617375D01*
X217293341Y-115997155D01*
X217389255Y-116678863D01*
X217471712Y-117262247D01*
X217542002Y-117754905D01*
X217601419Y-118164443D01*
X217651254Y-118498457D01*
X217692798Y-118764549D01*
X217727344Y-118970322D01*
X217756182Y-119123374D01*
X217780606Y-119231307D01*
X217801906Y-119301722D01*
X217821375Y-119342221D01*
X217840303Y-119360402D01*
X217859984Y-119363867D01*
X217865419Y-119363290D01*
X217963677Y-119331851D01*
X217992841Y-119309383D01*
X217990902Y-119250751D01*
X217975006Y-119095313D01*
X217946332Y-118852134D01*
X217906058Y-118530279D01*
X217855360Y-118138813D01*
X217795415Y-117686801D01*
X217727403Y-117183309D01*
X217652498Y-116637402D01*
X217571882Y-116058143D01*
X217553679Y-115928433D01*
X217084177Y-112587748D01*
X221908996Y-109264144D01*
X222552949Y-108820287D01*
X223171608Y-108393347D01*
X223759342Y-107987236D01*
X224310520Y-107605868D01*
X224819512Y-107253158D01*
X225280685Y-106933016D01*
X225688410Y-106649359D01*
X226037057Y-106406100D01*
X226320994Y-106207150D01*
X226534591Y-106056424D01*
X226672216Y-105957837D01*
X226728238Y-105915301D01*
X226729253Y-105913961D01*
X226694965Y-105855497D01*
X226662992Y-105815054D01*
X226640964Y-105811831D01*
X226592761Y-105828628D01*
G37*
X226592761Y-105828628D02*
X226513883Y-105868438D01*
X226399834Y-105934252D01*
X226246117Y-106029062D01*
X226048235Y-106155859D01*
X225801689Y-106317637D01*
X225501983Y-106517384D01*
X225144619Y-106758094D01*
X224725100Y-107042760D01*
X224238929Y-107374371D01*
X223681608Y-107755919D01*
X223048639Y-108190398D01*
X222335527Y-108680797D01*
X221780039Y-109063231D01*
X216958785Y-112383735D01*
X216647729Y-112227765D01*
X216539142Y-112172601D01*
X216346063Y-112073734D01*
X216079007Y-111936575D01*
X215748484Y-111766538D01*
X215365008Y-111569031D01*
X214939089Y-111349470D01*
X214481240Y-111113264D01*
X214001974Y-110865825D01*
X213920290Y-110823636D01*
X213372092Y-110540958D01*
X212910990Y-110304491D01*
X212529414Y-110110690D01*
X212219790Y-109956009D01*
X211974549Y-109836904D01*
X211786116Y-109749829D01*
X211646922Y-109691240D01*
X211549392Y-109657591D01*
X211485957Y-109645337D01*
X211449043Y-109650934D01*
X211436842Y-109660912D01*
X211395864Y-109737619D01*
X211441108Y-109797023D01*
X211457684Y-109809208D01*
X211521055Y-109845104D01*
X211670451Y-109924875D01*
X211896660Y-110043739D01*
X212190472Y-110196910D01*
X212542676Y-110379603D01*
X212944059Y-110587036D01*
X213385411Y-110814423D01*
X213857521Y-111056979D01*
X214047796Y-111154555D01*
X214531266Y-111402753D01*
X214989048Y-111638533D01*
X215411704Y-111856980D01*
X215789800Y-112053183D01*
X216113898Y-112222228D01*
X216374563Y-112359203D01*
X216562359Y-112459193D01*
X216667849Y-112517287D01*
X216684173Y-112527209D01*
X216818344Y-112617375D01*
X217293341Y-115997155D01*
X217389255Y-116678863D01*
X217471712Y-117262247D01*
X217542002Y-117754905D01*
X217601419Y-118164443D01*
X217651254Y-118498457D01*
X217692798Y-118764549D01*
X217727344Y-118970322D01*
X217756182Y-119123374D01*
X217780606Y-119231307D01*
X217801906Y-119301722D01*
X217821375Y-119342221D01*
X217840303Y-119360402D01*
X217859984Y-119363867D01*
X217865419Y-119363290D01*
X217963677Y-119331851D01*
X217992841Y-119309383D01*
X217990902Y-119250751D01*
X217975006Y-119095313D01*
X217946332Y-118852134D01*
X217906058Y-118530279D01*
X217855360Y-118138813D01*
X217795415Y-117686801D01*
X217727403Y-117183309D01*
X217652498Y-116637402D01*
X217571882Y-116058143D01*
X217553679Y-115928433D01*
X217084177Y-112587748D01*
X221908996Y-109264144D01*
X222552949Y-108820287D01*
X223171608Y-108393347D01*
X223759342Y-107987236D01*
X224310520Y-107605868D01*
X224819512Y-107253158D01*
X225280685Y-106933016D01*
X225688410Y-106649359D01*
X226037057Y-106406100D01*
X226320994Y-106207150D01*
X226534591Y-106056424D01*
X226672216Y-105957837D01*
X226728238Y-105915301D01*
X226729253Y-105913961D01*
X226694965Y-105855497D01*
X226662992Y-105815054D01*
X226640964Y-105811831D01*
X226592761Y-105828628D01*
D12*
%TO.C,U101*%
X154623744Y-86380359D02*
X154217158Y-86786945D01*
X147305189Y-79061804D02*
X146827892Y-79539101D01*
X139986634Y-86380359D02*
X140463931Y-85903062D01*
X147305189Y-93698914D02*
X147782486Y-93221617D01*
X154623744Y-86380359D02*
X154146447Y-85903062D01*
X147305189Y-93698914D02*
X146827892Y-93221617D01*
X139986634Y-86380359D02*
X140463931Y-86857656D01*
X147305189Y-79061804D02*
X147782486Y-79539101D01*
X154217158Y-86786945D02*
X155118719Y-87688507D01*
D10*
%TO.C,Y1*%
X134870756Y-92533985D02*
X136284970Y-91119772D01*
X133739385Y-88574187D02*
X132325172Y-89988401D01*
X134764690Y-89033807D02*
X135047533Y-88750964D01*
X132183750Y-89846980D02*
X133597964Y-88432766D01*
X136284970Y-91119772D02*
X136567812Y-90836929D01*
X133739385Y-88574187D02*
X134022228Y-88291345D01*
X133597964Y-88432766D02*
X133880807Y-88149923D01*
X132325172Y-89988401D02*
X132431238Y-90094467D01*
X134022228Y-88291345D02*
X134128294Y-88397411D01*
X134764690Y-89033807D02*
X134729335Y-88998451D01*
X136567812Y-90836929D02*
X136461746Y-90730863D01*
X134870756Y-92533985D02*
X134764690Y-92427919D01*
%TO.C,R5*%
X146202078Y-75434986D02*
X146202078Y-74925538D01*
X145157078Y-75434986D02*
X145157078Y-74925538D01*
%TO.C,R4*%
X139836528Y-94069628D02*
X140341018Y-94140530D01*
X139981964Y-93034798D02*
X140486454Y-93105700D01*
%TO.C,R3*%
X159001549Y-88874710D02*
X159510997Y-88874710D01*
X159001549Y-87829710D02*
X159510997Y-87829710D01*
%TO.C,R2*%
X158978048Y-90652709D02*
X159487496Y-90652709D01*
X158978048Y-89607709D02*
X159487496Y-89607709D01*
%TO.C,C101*%
X158348010Y-85687209D02*
X158640544Y-85687209D01*
X158348010Y-84667209D02*
X158640544Y-84667209D01*
%TO.C,C6*%
X154758066Y-92925326D02*
X154964919Y-92718473D01*
X154036817Y-92204077D02*
X154243670Y-91997224D01*
%TO.C,C5*%
X140805845Y-67297762D02*
X140513311Y-67297762D01*
X140805845Y-68317762D02*
X140513311Y-68317762D01*
%TO.C,C4*%
X148590275Y-75316977D02*
X148590275Y-75024443D01*
X147570275Y-75316977D02*
X147570275Y-75024443D01*
%TO.C,C2*%
X137768512Y-82720682D02*
X137478825Y-82679969D01*
X137626555Y-83730755D02*
X137336868Y-83690042D01*
%TO.C,C1*%
X140514204Y-91550530D02*
X140224517Y-91509817D01*
X140372247Y-92560603D02*
X140082560Y-92519890D01*
%TO.C,D118*%
X140324550Y-96055935D02*
X141245499Y-96185366D01*
X143453797Y-96495722D02*
X142532848Y-96366291D01*
X143453797Y-96495722D02*
X143153183Y-98634701D01*
X140324550Y-96055935D02*
X140121357Y-97501726D01*
%TO.C,D117*%
X234636181Y-103589227D02*
X235566181Y-103589227D01*
X237796181Y-103589227D02*
X236866181Y-103589227D01*
X237796181Y-103589227D02*
X237796181Y-105749227D01*
X234636181Y-103589227D02*
X234636181Y-105049227D01*
%TO.C,D116*%
X137679877Y-114873773D02*
X138600826Y-115003204D01*
X140809124Y-115313560D02*
X139888175Y-115184129D01*
X140809124Y-115313560D02*
X140508510Y-117452539D01*
X137679877Y-114873773D02*
X137476684Y-116319564D01*
%TO.C,D115*%
X53336811Y-103249652D02*
X54266811Y-103249652D01*
X56496811Y-103249652D02*
X55566811Y-103249652D01*
X56496811Y-103249652D02*
X56496811Y-105409652D01*
X53336811Y-103249652D02*
X53336811Y-104709652D01*
%TO.C,D114*%
X232254929Y-84539226D02*
X233184929Y-84539226D01*
X235414929Y-84539226D02*
X234484929Y-84539226D01*
X235414929Y-84539226D02*
X235414929Y-86699226D01*
X232254929Y-84539226D02*
X232254929Y-85999226D01*
%TO.C,D113*%
X186371233Y-90617882D02*
X187292182Y-90488451D01*
X189500480Y-90178095D02*
X188579531Y-90307526D01*
X189500480Y-90178095D02*
X189801094Y-92317074D01*
X186371233Y-90617882D02*
X186574426Y-92063673D01*
%TO.C,D112*%
X104953413Y-91084845D02*
X105874362Y-91214276D01*
X108082660Y-91524632D02*
X107161711Y-91395201D01*
X108082660Y-91524632D02*
X107782046Y-93663611D01*
X104953413Y-91084845D02*
X104750220Y-92530636D01*
%TO.C,D111*%
X56717818Y-84491999D02*
X57647818Y-84491999D01*
X59877818Y-84491999D02*
X58947818Y-84491999D01*
X59877818Y-84491999D02*
X59877818Y-86651999D01*
X56717818Y-84491999D02*
X56717818Y-85951999D01*
%TO.C,D110*%
X232254927Y-65489229D02*
X233184927Y-65489229D01*
X235414927Y-65489229D02*
X234484927Y-65489229D01*
X235414927Y-65489229D02*
X235414927Y-67649229D01*
X232254927Y-65489229D02*
X232254927Y-66949229D01*
%TO.C,D109*%
X193152283Y-70427655D02*
X194073232Y-70298224D01*
X196281530Y-69987868D02*
X195360581Y-70117299D01*
X196281530Y-69987868D02*
X196582144Y-72126847D01*
X193152283Y-70427655D02*
X193355476Y-71873446D01*
%TO.C,D108*%
X133543495Y-75865707D02*
X134464444Y-75995138D01*
X136672742Y-76305494D02*
X135751793Y-76176063D01*
X136672742Y-76305494D02*
X136372128Y-78444473D01*
X133543495Y-75865707D02*
X133340302Y-77311498D01*
%TO.C,D107*%
X98172357Y-70894619D02*
X99093306Y-71024050D01*
X101301604Y-71334406D02*
X100380655Y-71204975D01*
X101301604Y-71334406D02*
X101000990Y-73473385D01*
X98172357Y-70894619D02*
X97969164Y-72340410D01*
%TO.C,D106*%
X54336566Y-65442001D02*
X55266566Y-65442001D01*
X57496566Y-65442001D02*
X56566566Y-65442001D01*
X57496566Y-65442001D02*
X57496566Y-67602001D01*
X54336566Y-65442001D02*
X54336566Y-66902001D01*
%TO.C,D105*%
X227492429Y-46439230D02*
X228422429Y-46439230D01*
X230652429Y-46439230D02*
X229722429Y-46439230D01*
X230652429Y-46439230D02*
X230652429Y-48599230D01*
X227492429Y-46439230D02*
X227492429Y-47899230D01*
%TO.C,D104*%
X185784890Y-52225861D02*
X186705839Y-52096430D01*
X188914137Y-51786074D02*
X187993188Y-51915505D01*
X188914137Y-51786074D02*
X189214751Y-53925053D01*
X185784890Y-52225861D02*
X185988083Y-53671652D01*
%TO.C,D103*%
X131478591Y-56338285D02*
X132399540Y-56467716D01*
X134607838Y-56778072D02*
X133686889Y-56648641D01*
X134607838Y-56778072D02*
X134307224Y-58917051D01*
X131478591Y-56338285D02*
X131275398Y-57784076D01*
%TO.C,D102*%
X96107454Y-51367195D02*
X97028403Y-51496626D01*
X99236701Y-51806982D02*
X98315752Y-51677551D01*
X99236701Y-51806982D02*
X98936087Y-53945961D01*
X96107454Y-51367195D02*
X95904261Y-52812986D01*
%TO.C,D101*%
X54336566Y-46392002D02*
X55266566Y-46392002D01*
X57496566Y-46392002D02*
X56566566Y-46392002D01*
X57496566Y-46392002D02*
X57496566Y-48552002D01*
X54336566Y-46392002D02*
X54336566Y-47852002D01*
%TD*%
M02*
